<?xml version="1.0" standalone="no"?>
<!DOCTYPE svg PUBLIC "-//W3C//DTD SVG 20010904//EN"
 "http://www.w3.org/TR/2001/REC-SVG-20010904/DTD/svg10.dtd">
<svg version="1.0" xmlns="http://www.w3.org/2000/svg"
viewBox="0 0 730.000000 334.000000"
 preserveAspectRatio="xMidYMid meet">

<g transform="translate(0.000000,334.000000) scale(0.100000,-0.100000)"
fill="#000000" stroke="none">
<path d="M262 3310 c-132 -47 -218 -151 -242 -291 -8 -45 -10 -464 -8 -1394
l3 -1330 23 -58 c33 -81 114 -166 194 -203 l63 -29 3361 0 3360 0 77 38 c86
43 130 89 174 183 l28 59 0 1375 c0 1285 -1 1378 -18 1425 -23 66 -80 140
-140 182 -101 68 198 63 -3486 63 -3251 -1 -3337 -1 -3389 -20z m6797 -91 c41
-21 73 -46 96 -76 69 -90 65 -5 65 -1478 0 -1523 7 -1399 -88 -1495 -101 -100
295 -90 -3472 -90 -2928 0 -3322 2 -3367 15 -68 20 -143 88 -174 157 l-24 53
0 1365 c0 1291 1 1367 18 1403 35 74 114 146 187 168 14 4 1526 8 3361 8
l3336 1 62 -31z"/>
<path d="M690 2601 l0 -391 239 0 c212 0 246 2 305 20 167 52 248 192 233 404
-7 102 -19 142 -60 202 -42 63 -89 99 -162 126 -54 20 -84 22 -307 26 l-248 4
0 -391z m405 228 c99 -27 147 -101 147 -228 0 -92 -20 -149 -68 -190 -42 -38
-90 -51 -181 -51 l-73 0 0 240 0 240 68 0 c37 0 85 -5 107 -11z"/>
<path d="M1580 2600 l0 -390 295 0 295 0 0 75 0 75 -190 0 -190 0 0 80 0 80
175 0 175 0 0 80 0 80 -175 0 -176 0 3 78 3 77 185 3 185 2 -2 73 -1 72 -291
3 -291 2 0 -390z"/>
<path d="M2300 2600 l0 -390 95 0 95 0 2 291 3 291 129 -291 129 -291 149 0
148 0 0 390 0 390 -95 0 -95 0 -2 -284 -3 -285 -129 285 -129 284 -148 0 -149
0 0 -390z"/>
<path d="M3198 2600 l-3 -390 92 0 93 0 2 314 3 315 84 -315 85 -315 100 3
101 3 85 302 c47 166 87 304 90 306 3 3 4 -134 2 -304 l-3 -309 100 0 101 0 0
390 0 390 -169 0 c-153 0 -170 -2 -175 -17 -3 -10 -30 -126 -61 -257 -31 -132
-57 -241 -58 -243 -2 -1 -31 114 -66 257 l-63 260 -169 0 -169 0 -2 -390z"/>
<path d="M4503 2973 c-4 -10 -73 -186 -154 -391 l-147 -373 111 3 110 3 25 73
24 72 156 0 157 0 26 -73 25 -72 123 -3 c115 -2 123 -1 117 15 -4 10 -73 186
-153 391 l-146 372 -134 0 c-118 0 -134 -2 -140 -17z m181 -299 c25 -84 46
-155 46 -158 0 -3 -45 -6 -100 -6 -55 0 -100 3 -100 7 0 13 102 315 105 311 1
-2 23 -71 49 -154z"/>
<path d="M5150 2601 l0 -391 110 0 110 0 0 150 0 150 74 0 c109 0 114 -7 132
-155 8 -66 17 -126 19 -132 5 -14 235 -19 235 -5 -2 42 -52 286 -63 309 -17
32 -70 63 -109 63 -15 0 -1 9 37 25 95 39 122 87 113 200 -6 67 -42 125 -95
151 -34 17 -66 19 -300 22 l-263 3 0 -390z m409 224 c33 -16 41 -33 41 -81 0
-67 -65 -100 -180 -92 l-45 3 -3 93 -3 92 81 0 c52 0 91 -5 109 -15z"/>
<path d="M5950 2600 l0 -390 110 0 110 0 2 201 3 202 125 -201 125 -202 133 0
c72 0 132 2 132 5 0 3 -63 100 -140 216 -83 124 -138 215 -134 222 4 7 63 82
131 169 68 86 123 159 123 162 0 4 -57 5 -127 4 l-128 -3 -120 -165 -120 -164
-3 167 -2 167 -110 0 -110 0 0 -390z"/>
<path d="M1825 1944 c-80 -20 -149 -65 -181 -119 -48 -82 -41 -184 18 -251 42
-47 65 -58 220 -100 162 -44 178 -53 178 -100 0 -48 -14 -70 -51 -83 -90 -31
-189 14 -189 86 0 23 -2 23 -111 23 l-112 0 6 -45 c8 -53 36 -111 69 -142 108
-101 406 -105 535 -7 97 74 110 245 24 327 -42 42 -77 56 -229 96 -139 36
-162 50 -162 95 0 52 27 78 88 84 47 4 54 2 82 -26 18 -18 30 -41 30 -56 l0
-26 110 0 110 0 0 38 c0 47 -29 109 -66 144 -52 48 -98 61 -229 64 -66 2 -129
1 -140 -2z"/>
<path d="M2280 1855 l0 -75 120 0 120 0 0 -315 0 -315 110 0 110 0 2 313 3
312 123 3 122 3 0 74 0 75 -355 0 -355 0 0 -75z"/>
<path d="M3070 1540 l0 -390 110 0 110 0 0 155 0 155 55 0 c31 0 71 -6 89 -14
29 -12 35 -21 45 -66 6 -28 11 -63 11 -77 0 -15 5 -55 11 -90 l11 -63 120 0
c110 0 120 1 113 17 -3 10 -15 74 -27 143 -11 69 -26 139 -34 155 -17 36 -61
65 -98 65 -37 0 -32 16 6 24 41 8 92 43 111 76 57 99 1 261 -101 290 -21 5
-148 10 -284 10 l-248 0 0 -390z m414 221 c36 -34 37 -101 1 -136 -22 -23 -32
-25 -110 -25 l-85 0 0 96 0 96 84 -3 c73 -4 88 -7 110 -28z"/>
<path d="M3852 1543 l3 -388 298 -3 297 -2 0 75 0 75 -187 2 -188 3 -3 83 -3
82 176 0 175 0 0 75 0 75 -175 0 -175 0 0 80 0 80 185 0 185 0 0 75 0 75 -295
0 -295 0 2 -387z"/>
<path d="M4580 1540 l0 -390 295 0 295 0 0 75 0 75 -187 2 -188 3 -3 83 -3 82
176 0 175 0 0 75 0 75 -175 0 -175 0 0 80 0 80 185 0 185 0 0 75 0 75 -290 0
-290 0 0 -390z"/>
<path d="M5240 1855 l0 -75 115 0 115 0 0 -315 0 -315 110 0 110 0 2 313 3
312 123 3 122 3 0 74 0 75 -350 0 -350 0 0 -75z"/>
<path d="M180 900 c0 -20 7 -20 3475 -20 3468 0 3475 0 3475 20 0 20 -7 20
-3475 20 -3468 0 -3475 0 -3475 -20z"/>
<path d="M3020 711 c-86 -18 -141 -70 -160 -151 -25 -103 11 -202 88 -247 54
-32 148 -41 250 -23 l72 12 0 109 0 109 -90 0 c-49 0 -93 1 -97 3 -5 1 -9 -15
-11 -35 l-3 -38 45 0 46 0 0 -45 0 -45 -56 0 c-50 0 -60 4 -89 33 -37 37 -51
87 -40 144 4 22 20 50 40 70 44 44 86 45 125 3 24 -26 35 -30 80 -30 l53 0 -7
32 c-7 36 -29 64 -67 83 -32 17 -133 26 -179 16z"/>
<path d="M2257 703 c-4 -3 -7 -98 -7 -210 l0 -203 133 0 c159 0 193 12 216 77
19 54 2 97 -48 123 l-36 18 28 11 c33 13 58 64 50 103 -7 38 -45 69 -95 79
-52 10 -232 12 -241 2z m211 -85 c7 -7 12 -21 12 -33 0 -33 -20 -45 -72 -45
l-48 0 0 45 0 45 48 0 c26 0 53 -5 60 -12z m10 -170 c17 -17 15 -53 -4 -69 -9
-7 -37 -13 -62 -13 l-47 -1 -3 48 -3 47 53 0 c30 0 59 -5 66 -12z"/>
<path d="M2670 500 l0 -210 60 0 60 0 0 210 0 210 -60 0 -60 0 0 -210z"/>
<path d="M3540 501 l0 -211 130 0 c140 0 174 9 204 52 9 12 16 41 16 64 0 35
-5 47 -31 68 -17 14 -38 26 -47 26 -11 1 -6 7 13 16 41 22 55 42 55 82 0 83
-42 104 -212 110 l-128 4 0 -211z m222 103 c19 -40 1 -58 -61 -62 l-51 -3 0
45 0 46 50 0 c44 0 52 -3 62 -26z m9 -168 c16 -34 -3 -64 -45 -71 -60 -12 -71
-5 -74 48 l-3 47 56 0 c49 0 57 -3 66 -24z"/>
<path d="M3994 509 c-43 -111 -81 -206 -83 -211 -1 -5 23 -8 55 -6 56 3 58 4
69 38 l12 35 88 0 88 0 12 -35 c12 -35 12 -35 77 -38 l66 -3 -82 208 -82 208
-70 3 -71 3 -79 -202z m173 28 c12 -39 23 -75 23 -79 0 -5 -25 -8 -56 -8 -41
0 -55 3 -51 13 2 6 15 45 28 84 12 40 25 70 28 68 2 -3 15 -38 28 -78z"/>
<path d="M4426 698 c-3 -7 -4 -101 -3 -208 l2 -195 52 -3 53 -3 -6 158 c-5
110 -3 155 4 148 6 -5 39 -75 74 -155 l64 -145 77 -3 77 -3 0 201 c0 110 1
203 3 208 1 4 -19 8 -45 10 l-48 3 0 -152 c0 -84 -3 -149 -7 -145 -5 4 -37 71
-73 149 l-66 142 -77 3 c-57 2 -78 -1 -81 -10z"/>
<path d="M4910 501 l0 -211 123 0 c138 0 183 9 228 47 43 37 59 80 59 161 0
95 -28 148 -94 181 -43 21 -67 25 -182 29 l-134 5 0 -212z m255 99 c43 -40 53
-124 23 -182 -13 -27 -62 -48 -113 -48 l-45 0 0 131 0 131 55 -4 c40 -3 62
-11 80 -28z"/>
</g>
</svg>
