<?xml version="1.0" standalone="no"?>
<!DOCTYPE svg PUBLIC "-//W3C//DTD SVG 20010904//EN"
 "http://www.w3.org/TR/2001/REC-SVG-20010904/DTD/svg10.dtd">
<svg version="1.0" xmlns="http://www.w3.org/2000/svg"
width="90" viewBox="0 0 240.000000 240.000000"
 preserveAspectRatio="xMidYMid meet">

<g transform="translate(0.000000,240.000000) scale(0.100000,-0.100000)"
fill="#000000" stroke="none">
<path d="M1174 2345 c-18 -8 -41 -26 -52 -40 -17 -21 -28 -25 -76 -25 -61 0
-96 -22 -96 -59 0 -19 -43 -41 -79 -41 -9 0 -61 -21 -116 -46 -58 -27 -113
-46 -131 -45 -35 2 -81 -30 -94 -65 -8 -20 -17 -24 -50 -24 -23 0 -50 -5 -61
-10 -22 -12 -49 -60 -49 -87 0 -10 -13 -27 -30 -36 -20 -12 -31 -28 -36 -54
-4 -20 -19 -55 -34 -77 -15 -23 -46 -78 -69 -123 -39 -77 -44 -83 -79 -89 -58
-10 -82 -38 -82 -95 0 -26 5 -60 10 -74 8 -22 6 -32 -10 -55 -26 -36 -25 -86
1 -130 12 -19 25 -37 28 -40 4 -3 17 -61 29 -130 27 -158 52 -236 109 -347
167 -327 463 -530 850 -584 164 -23 408 19 580 101 223 105 387 257 511 474
64 111 98 210 122 349 12 75 24 115 38 130 45 50 56 117 26 162 -15 23 -15 28
0 72 9 25 16 57 16 69 0 38 -40 75 -88 81 -23 3 -42 11 -42 17 0 16 -71 162
-103 213 -14 22 -27 53 -29 69 -2 19 -13 35 -35 49 -26 16 -32 27 -33 56 0 50
-33 79 -93 81 -38 2 -47 6 -52 25 -8 35 -45 63 -82 63 -19 0 -73 19 -126 44
-51 24 -107 47 -124 51 -22 4 -33 12 -33 23 0 9 -9 31 -20 49 -24 40 -79 58
-130 43 -43 -12 -40 -13 -40 3 0 23 -45 58 -81 62 -19 2 -48 -2 -65 -10z m78
-180 c10 -4 12 -24 10 -80 -2 -41 -1 -75 2 -75 3 0 28 16 55 35 48 35 91 46
91 23 0 -7 -34 -44 -75 -83 l-74 -70 6 -158 c6 -170 4 -163 57 -142 14 6 18 4
14 -6 -2 -8 -32 -24 -65 -36 -61 -22 -61 -22 -123 -3 -66 20 -90 35 -90 56 0
10 14 7 57 -11 31 -14 58 -23 60 -21 2 2 6 77 8 166 l3 162 -59 60 c-60 62
-75 98 -41 98 10 0 38 -18 62 -40 23 -22 47 -37 51 -34 5 3 9 36 9 73 0 39 5
72 12 79 14 14 12 14 30 7z m-319 -40 c-10 -13 -21 -25 -25 -25 -5 0 -8 -22
-8 -49 0 -88 72 -131 164 -96 43 17 45 17 76 -7 l32 -23 -7 -145 c-4 -80 -8
-146 -10 -148 -1 -1 -24 6 -51 17 -55 21 -58 35 -22 97 13 23 19 45 15 67 -3
21 1 35 11 43 14 10 14 13 0 28 -15 15 -17 15 -22 -2 -5 -14 -14 -17 -41 -14
-46 6 -100 -35 -127 -94 -20 -46 -24 -49 -47 -35 -11 7 -10 14 7 37 11 16 23
44 27 61 6 28 2 38 -24 64 -17 17 -31 39 -31 49 0 11 -8 35 -17 55 -18 38 -44
50 -93 43 -75 -11 -3 34 122 76 91 32 93 32 71 1z m708 -41 c33 -15 59 -31 59
-35 0 -5 -20 -6 -44 -3 -53 8 -79 -13 -96 -77 -7 -24 -25 -55 -41 -70 -37 -34
-38 -73 -3 -124 20 -30 23 -40 12 -46 -21 -14 -24 -11 -36 30 -21 67 -91 121
-142 108 -15 -4 -20 0 -20 14 0 24 -12 24 -27 0 -10 -15 -9 -20 2 -25 11 -4
12 -12 5 -37 -8 -27 -5 -42 15 -85 14 -29 25 -60 25 -69 0 -15 -48 -41 -57
-31 -3 2 -7 66 -10 141 l-6 136 28 29 c32 34 46 36 78 16 12 -8 41 -18 64 -22
37 -6 45 -3 68 21 25 24 27 32 23 81 -3 31 -12 62 -21 72 -9 10 -17 21 -17 25
0 8 64 -15 141 -49z m-956 -254 c24 -53 33 -60 129 -95 73 -27 81 -33 84 -59
5 -38 -5 -61 -21 -49 -19 16 -167 73 -187 73 -10 0 -41 -16 -70 -35 -60 -40
-70 -42 -70 -16 0 12 11 23 30 30 60 21 49 56 -29 93 -59 27 -30 38 35 13 72
-27 83 -15 59 63 -13 40 21 25 40 -18z m1075 30 c0 -6 -7 -25 -16 -42 -14 -27
-14 -32 -1 -46 14 -13 21 -13 68 7 36 16 55 19 62 12 8 -8 -5 -17 -41 -33 -62
-28 -70 -59 -22 -86 29 -17 38 -36 22 -46 -5 -3 -35 13 -67 36 -57 39 -60 40
-94 28 -33 -12 -136 -57 -153 -67 -5 -2 -8 12 -8 32 0 35 2 37 83 74 72 34 86
45 115 90 31 48 52 64 52 41z m-704 -8 c32 -21 34 -50 9 -104 -25 -53 -31
-105 -16 -142 4 -12 32 -29 67 -42 56 -21 58 -23 34 -32 -18 -7 -29 -6 -41 4
-17 16 -39 19 -39 6 0 -5 10 -13 22 -19 20 -9 20 -10 -16 -31 l-36 -21 -44 26
c-66 40 -92 105 -80 199 6 49 8 52 25 41 16 -10 23 -8 41 10 18 18 19 24 9 37
-11 13 -10 17 3 22 25 10 19 26 -6 18 -29 -8 -21 0 17 20 34 18 36 18 51 8z
m360 -18 c16 -13 16 -15 2 -10 -10 3 -20 1 -23 -4 -3 -5 4 -12 15 -15 17 -5
19 -10 10 -20 -7 -8 -9 -24 -5 -35 5 -17 13 -21 38 -18 l32 3 3 -65 c6 -117
-24 -152 -195 -229 -198 -90 -201 -122 -25 -291 84 -80 90 -88 95 -135 12 -98
-13 -152 -122 -259 -40 -38 -71 -77 -71 -88 0 -26 15 -52 66 -115 75 -91 104
-173 89 -244 -14 -63 -117 -149 -179 -149 -24 0 -86 35 -86 48 0 5 20 17 44
26 24 9 61 32 82 50 32 28 38 39 37 70 -1 32 -12 47 -80 117 -82 84 -101 113
-114 167 -13 59 7 98 103 200 50 53 97 110 105 128 28 58 2 100 -108 174 -105
72 -150 148 -129 220 25 88 89 138 225 179 39 11 85 30 103 41 30 18 32 23 32
75 0 37 -6 65 -20 87 -23 38 -25 60 -8 88 15 24 57 26 84 4z m-436 -63 c0 -14
-18 -23 -30 -16 -6 4 -8 11 -5 16 8 12 35 12 35 0z m475 -1 c11 -17 -5 -32
-21 -19 -7 6 -11 15 -8 20 7 12 21 11 29 -1z m-1077 -91 c17 -6 37 -21 46 -34
9 -13 30 -25 51 -29 43 -8 95 -73 95 -119 0 -29 1 -30 42 -24 66 9 88 41 88
128 0 82 -8 80 122 26 68 -28 79 -36 92 -68 10 -25 31 -48 65 -69 l49 -32 -25
-50 c-21 -42 -24 -60 -20 -100 5 -38 3 -49 -7 -45 -125 48 -301 87 -394 87
-38 0 -71 2 -74 5 -3 3 5 32 19 65 36 90 17 130 -68 145 -25 5 -41 15 -50 32
-16 30 -54 58 -93 67 -23 6 -27 9 -15 17 19 12 39 11 77 -2z m1710 -7 c9 -6 0
-13 -28 -21 -24 -7 -50 -25 -67 -47 -19 -23 -42 -38 -70 -45 -23 -6 -51 -20
-62 -30 -27 -25 -28 -82 -2 -132 23 -45 25 -43 -81 -52 -76 -6 -182 -27 -301
-59 -32 -9 -59 -16 -61 -16 -2 0 -3 24 -2 53 1 35 -6 66 -19 93 l-21 41 49 32
c34 23 54 45 65 72 8 21 19 39 24 39 4 0 27 9 51 19 44 21 118 51 122 51 2 0
2 -34 2 -75 -2 -68 0 -77 24 -100 14 -14 42 -28 62 -32 33 -5 37 -3 37 17 0
59 64 130 117 130 12 0 27 9 33 20 21 38 95 63 128 42z m-708 -262 c11 -21 20
-56 20 -76 0 -45 -36 -109 -81 -146 -35 -30 -47 -28 -88 15 l-23 26 20 28 c29
41 36 87 17 103 -26 21 -17 35 43 62 31 14 60 26 64 27 4 1 17 -17 28 -39z
m-930 -24 c54 -54 56 -55 115 -56 81 -2 160 -17 281 -51 133 -38 152 -47 201
-94 l42 -40 -26 -27 -26 -27 -28 20 c-46 32 -189 96 -244 108 -27 6 -71 15
-97 21 -26 5 -76 10 -111 10 -73 0 -102 -16 -143 -82 -25 -38 -44 -43 -44 -9
0 9 14 39 31 65 16 27 28 51 25 54 -4 3 -32 7 -64 9 -81 6 -92 11 -67 29 14
11 34 13 76 8 53 -6 57 -5 64 17 6 19 1 28 -24 49 -29 24 -41 50 -24 50 4 0
32 -25 63 -54z m1550 32 c0 -7 -16 -26 -35 -41 -30 -24 -34 -31 -25 -47 9 -17
22 -20 81 -20 91 0 90 -21 -2 -34 -35 -5 -66 -10 -68 -12 -2 -2 9 -28 24 -57
17 -32 26 -61 22 -71 -9 -23 -23 -13 -48 35 -22 45 -71 79 -111 79 -37 0 -157
-18 -238 -36 -36 -8 -109 -36 -163 -61 -97 -46 -98 -47 -117 -27 -19 19 -18
20 21 61 32 35 55 48 120 69 117 38 254 64 338 64 78 0 77 -1 130 66 28 36 71
55 71 32z m-760 -91 c0 -20 -30 -77 -41 -77 -12 0 -38 35 -44 61 -5 21 -1 31
21 48 25 20 28 20 46 5 10 -10 18 -26 18 -37z m-598 -107 c29 -6 78 -15 108
-21 30 -5 106 -36 168 -66 88 -45 111 -60 106 -72 -14 -30 -16 -115 -4 -155 7
-22 23 -54 36 -71 22 -29 22 -32 7 -48 -15 -15 -19 -14 -57 15 -64 49 -116
101 -116 115 0 8 11 36 25 63 43 86 26 130 -51 130 -25 0 -46 6 -51 13 -13 21
-56 47 -77 47 -10 0 -33 -15 -51 -34 -23 -24 -39 -33 -53 -30 -24 7 -78 -20
-92 -45 -5 -11 -10 -36 -10 -56 0 -22 -8 -47 -20 -62 -11 -14 -20 -38 -20 -54
0 -33 53 -99 79 -99 10 0 24 -12 31 -26 29 -53 115 -71 163 -34 14 11 31 36
37 55 l11 35 97 -88 c61 -55 101 -99 108 -119 7 -18 23 -48 38 -67 l25 -34
-24 -61 c-29 -70 -33 -150 -9 -186 11 -18 13 -29 5 -43 -8 -14 -6 -24 4 -38 8
-11 15 -29 15 -41 0 -36 -34 -33 -215 19 -261 75 -527 315 -634 572 -29 69
-71 212 -71 239 0 10 18 16 52 20 47 6 55 4 73 -17 48 -57 102 -56 141 4 14
21 39 44 55 50 57 24 68 88 25 144 -24 32 -25 36 -9 45 23 13 88 14 155 1z
m1229 -5 l30 -16 -26 -30 c-14 -17 -28 -41 -31 -54 -8 -34 16 -78 53 -94 18
-8 35 -23 38 -32 8 -25 63 -69 86 -69 10 0 37 16 59 36 36 33 43 36 66 25 14
-6 36 -11 50 -11 19 0 24 -4 21 -17 -75 -273 -191 -452 -397 -615 -138 -109
-306 -182 -487 -213 -43 -7 -43 -6 -43 23 0 18 6 32 16 36 11 4 15 14 11 33
-3 16 2 37 11 51 24 37 19 129 -11 191 l-25 52 25 30 c14 17 35 54 47 82 16
41 39 68 99 120 77 67 97 75 97 36 0 -29 53 -79 85 -79 43 0 94 27 113 60 10
18 25 30 38 30 55 0 96 108 56 148 -14 14 -18 28 -14 47 10 56 -51 122 -104
114 -11 -2 -33 11 -51 29 -38 39 -65 40 -109 7 -20 -15 -46 -25 -66 -25 -79 0
-101 -64 -52 -149 l25 -45 -66 -63 c-89 -85 -124 -86 -68 -1 24 36 28 51 28
117 0 42 -4 86 -8 97 -7 20 2 26 85 68 61 30 120 51 173 61 222 41 207 39 246
20z m-719 -108 l27 -20 -19 -34 c-19 -36 -18 -47 8 -99 14 -29 14 -33 -5 -60
-31 -43 -70 -77 -81 -70 -25 15 -52 98 -52 159 0 63 8 85 53 134 21 23 24 23
69 -10z m78 -97 c0 -15 -8 -38 -19 -51 l-18 -23 -17 32 c-20 39 -20 61 1 84
15 17 17 17 35 2 10 -10 18 -29 18 -44z m-376 -53 c8 -55 27 -82 105 -149 34
-31 63 -58 62 -62 0 -3 -4 -21 -9 -38 l-8 -32 -80 76 c-90 85 -113 101 -135
87 -18 -11 -109 -12 -109 0 0 5 20 14 45 20 52 13 56 27 19 64 -38 38 -25 52
18 21 48 -35 68 -27 68 26 0 52 16 44 24 -13z m684 2 c-2 -48 16 -56 56 -26
60 46 76 33 24 -20 -26 -26 -29 -35 -19 -47 7 -8 26 -16 43 -18 18 -2 33 -9
36 -16 3 -11 -10 -13 -72 -7 l-75 7 -71 -61 c-39 -33 -74 -61 -78 -61 -4 0
-13 13 -19 29 -10 28 -9 31 53 80 63 51 94 99 94 146 0 12 3 25 6 28 13 12 23
-4 22 -34z m-200 -209 c12 -19 22 -48 22 -68 0 -40 -31 -110 -59 -136 -17 -15
-20 -14 -59 28 -37 41 -40 47 -35 87 4 34 15 54 46 87 23 23 46 41 52 39 5 -2
20 -18 33 -37z m-138 -80 c0 -5 -5 -10 -11 -10 -5 0 -7 5 -4 10 3 6 8 10 11
10 2 0 4 -4 4 -10z m-63 -217 c29 -31 33 -40 24 -55 -15 -23 -14 -63 1 -88 11
-16 9 -22 -7 -34 -11 -9 -32 -20 -48 -25 -24 -9 -29 -7 -44 15 -23 35 -21 119
5 177 11 26 24 47 28 47 4 0 22 -17 41 -37z m66 -75 c8 -29 -2 -70 -16 -65
-16 5 -25 40 -16 65 11 28 25 28 32 0z m107 -164 c0 -11 -34 -33 -50 -33 -10
-1 -6 6 10 19 26 20 40 25 40 14z m-40 -73 c0 -15 -11 -19 -63 -25 -72 -7
-127 1 -127 19 0 19 4 20 99 22 82 2 91 1 91 -16z"/>
<path d="M1022 1790 c-7 -11 -9 -20 -4 -20 10 0 32 22 32 32 0 15 -15 8 -28
-12z"/>
<path d="M996 1722 c-4 -13 -5 -26 -2 -29 10 -11 18 4 14 29 l-4 23 -8 -23z"/>
<path d="M987 1653 c-7 -11 10 -40 18 -31 4 4 3 14 -3 24 -5 9 -12 12 -15 7z"/>
<path d="M1010 1592 c0 -5 9 -17 20 -27 15 -14 20 -15 20 -4 0 8 -9 20 -20 27
-11 7 -20 8 -20 4z"/>
<path d="M1360 1793 c0 -14 19 -38 25 -32 8 8 -5 39 -16 39 -5 0 -9 -3 -9 -7z"/>
<path d="M1393 1726 c4 -10 7 -24 7 -32 0 -9 4 -13 9 -10 11 7 3 44 -12 53 -7
4 -8 0 -4 -11z"/>
<path d="M1397 1640 c-6 -24 8 -36 17 -14 8 22 7 34 -3 34 -5 0 -11 -9 -14
-20z"/>
<path d="M1362 1578 c-19 -19 -14 -29 8 -16 20 13 27 28 12 28 -4 0 -13 -5
-20 -12z"/>
<path d="M1300 1537 c-22 -9 -23 -11 -6 -14 10 -3 23 0 29 6 16 16 5 20 -23 8z"/>
<path d="M1230 1510 c0 -5 4 -10 9 -10 6 0 13 5 16 10 3 6 -1 10 -9 10 -9 0
-16 -4 -16 -10z"/>
<path d="M1040 1386 c-6 -9 -10 -21 -8 -28 3 -8 9 -4 17 10 15 28 9 39 -9 18z"/>
<path d="M1028 1325 c-8 -8 2 -45 13 -45 10 0 10 8 0 33 -3 10 -9 15 -13 12z"/>
<path d="M1050 1252 c0 -12 19 -26 26 -19 2 2 -2 10 -11 17 -9 8 -15 8 -15 2z"/>
<path d="M1297 1073 c-4 -6 2 -18 13 -28 23 -21 27 -8 7 20 -8 11 -16 14 -20
8z"/>
<path d="M1332 985 c0 -16 2 -22 5 -12 2 9 2 23 0 30 -3 6 -5 -1 -5 -18z"/>
<path d="M1310 910 c-7 -13 -7 -20 -1 -20 6 0 15 9 21 20 7 13 7 20 1 20 -6 0
-15 -9 -21 -20z"/>
<path d="M1340 1393 c0 -14 19 -38 25 -32 8 8 -5 39 -16 39 -5 0 -9 -3 -9 -7z"/>
<path d="M1357 1324 c-4 -4 -7 -14 -7 -23 0 -11 3 -12 11 -4 6 6 10 16 7 23
-2 6 -7 8 -11 4z"/>
<path d="M1327 1264 c-4 -4 -7 -14 -7 -23 0 -11 3 -12 11 -4 6 6 10 16 7 23
-2 6 -7 8 -11 4z"/>
<path d="M1070 1060 c-7 -13 -7 -20 -1 -20 6 0 15 9 21 20 7 13 7 20 1 20 -6
0 -15 -9 -21 -20z"/>
<path d="M1050 985 c0 -14 2 -25 4 -25 2 0 6 11 8 25 3 14 1 25 -3 25 -5 0 -9
-11 -9 -25z"/>
<path d="M1060 923 c0 -12 5 -25 10 -28 13 -8 13 15 0 35 -8 12 -10 11 -10 -7z"/>
</g>
</svg>
