<svg xmlns="http://www.w3.org/2000/svg" viewBox="0 0 200 46" fill="none"><path d="M5.4 18.8c-.23333-.6667-.46667-1.05-.7-1.15h-.05c-.13333 0-.2.3167-.2.95 0 .1.03333.9833.1 2.65.13333 2.5333.21667 3.8167.25 3.85.06667.0667.21667 0 .45-.2.26667-.2667.4-1.4.4-3.4 0-1.4-.08333-2.3-.25-2.7zm-3.6-4.3c.33333 0 .55-.0833.65-.25.1-.1667.66667-.25 1.7-.25 1.23333 0 2.06667.1 2.5.3.83333.3667 1.43333.9 1.8 1.6.36667.7.65 1.8167.85 3.35.13333 1.2667.2 2.1667.2 2.7 0 2.5667-.58333 4.6667-1.75 6.3-.2.2667-.08333.7.35 1.3.4.5667.66667 1.05.8 1.45.16667.4667.56667 1.2833 1.2 2.45 1.2 2.2 1.8 3.8 1.8 4.8 0 .5333-.1333.9833-.4 1.35-.2667.3667-.6.55-1 .55-.3 0-.56667-.0167-.8-.05-.83333-.1-1.36667-.2167-1.6-.35-.23333-.1333-.35-.4-.35-.8 0-.6333-.35-1.6333-1.05-3-.7-1.4-1.21667-2.1-1.55-2.1H5.1c-.1.0333-.15.35-.15.95 0 .8.11667 1.95.35 3.45.06667.5333.1.9.1 1.1 0 1.1667-.25 1.8833-.75 2.15-.2.1-.48333.15-.85.15-1.06667 0-1.75-.2667-2.05-.8-.2-.3667-.33333-2.5833-.4-6.65-.1-6.7-.3-11.55-.6-14.55-.133333-1.3333-.2-2.3333-.2-3 0-.6333.116667-1.1167.35-1.45.33333-.4667.63333-.7.9-.7zm21.3527 4.8c-.3-.6333-.55-.95-.75-.95-.2333 0-.5166.5167-.85 1.55-.2666.8-.4 2.3333-.4 4.6 0 1.8.0667 3.7.2 5.7.1334 1.9.35 3.7.65 5.4.3 1.6667.5667 2.5.8 2.5.1667 0 .3167-.3667.45-1.1.1667-.6.35-1.1.55-1.5.1-.2.25-1.6667.45-4.4.1-1.4.15-2.7.15-3.9 0-3.7-.4166-6.3333-1.25-7.9zm-4.7-2.4l.9-1.15h6.2l1 1c.6334.6333 1.0834 1.4333 1.35 2.4.2667.9667.4834 2.4667.65 4.5.0667.7667.1 1.8833.1 3.35 0 3.4-.3166 6.5-.95 9.3-.6333 2.7667-1.4666 4.65-2.5 5.65-.3333.3333-.8166.6167-1.45.85-.6333.2333-1.1833.35-1.65.35-.2 0-.3666-.0333-.5-.1-.2666-.1667-.6166-.25-1.05-.25-.3333 0-.7166-.2667-1.15-.8-.4333-.5667-.7833-1.2333-1.05-2-.4666-1.3-.7833-2.7167-.95-4.25-.1333-1.5667-.2166-4.0667-.25-7.5V25.9c0-3.1333.0667-5.2333.2-6.3.1667-1.1.5334-2 1.1-2.7zm19.2493-1.2c.4-.2.8666-.3 1.4-.3.3666 0 .6666.0167.9.05.9666.1 1.6166.2333 1.95.4.3666.1667.7.5 1 1 .3333.5333.5 1.0667.5 1.6 0 .6-.2334 1.1167-.7 1.55-.4.4-.8.6-1.2.6-.4667 0-.8834-.2833-1.25-.85-.3-.4333-.6167-.65-.95-.65-.3 0-.6.2167-.9.65-.2667.4-.4334.85-.5 1.35v.25c0 1.8333 1.4 5.2167 4.2 10.15.4666.8.9166 2.2667 1.35 4.4.0333.1333.05.3667.05.7 0 1.8333-.3834 3.25-1.15 4.25-.3334.4333-.8834.8167-1.65 1.15-.7334.3333-1.4.5-2 .5h-.2c-.0667-.0333-.1334-.05-.2-.05-.7667-.1333-1.7-.7-2.8-1.7-1.0667-1.0333-1.6-1.85-1.6-2.45 0-.2667.1833-.5667.55-.9.3666-.3667.7166-.5833 1.05-.65.0666-.0333.1833-.05.35-.05.3666 0 .95.5333 1.75 1.6.3.4333.6333.65 1 .65.3333 0 .5833-.2.75-.6.0666-.1333.1-.3833.1-.75 0-1.9333-.8667-4.7333-2.6-8.4-1.6-3.4667-2.4-6.0333-2.4-7.7 0-.7333.1333-1.4167.4-2.05.5333-1.3.95-2.15 1.25-2.55.3-.4333.8166-.8333 1.55-1.2zm12.9949 1.85c.4-.1.9333-.15 1.6-.15 1.8333 0 2.9833.2 3.45.6.3333.3.5.6667.5 1.1 0 .4333-.1667.8-.5 1.1-.3334.3-.7667.45-1.3.45-.5 0-.8334.1333-1 .4-.1667.2333-.25.8-.25 1.7 0 .2667.0333 1.1.1 2.5.0666 1.6333.1333 2.7.2 3.2.1.4667.2333.7167.4.75.0333 0 .25.0167.65.05h1c.8.0333 1.3833.2333 1.75.6.2333.2333.35.4667.35.7 0 .5-.7167 1.0167-2.15 1.55-.8334.3-1.3334.5333-1.5.7-.1667.1333-.2834.4833-.35 1.05-.0667.5333-.1 1-.1 1.4 0 1.6667.15 2.9167.45 3.75.1333.3333.2833.55.45.65.1666.0667.5166.1 1.05.1.7 0 1.3.1667 1.8.5.5.3.75.6667.75 1.1 0 .3-.25.7-.75 1.2-.8.7667-2.1334 1.15-4 1.15-1.9334 0-3.2-.4167-3.8-1.25-.3334-.4333-.5334-3.2833-.6-8.55-.0667-6.5667-.1334-10.4333-.2-11.6l-.15-3.7.7-.4c.5333-.3333 1.0166-.55 1.45-.65zm19.9472 6.9c-.2-.9667-.4333-1.45-.7-1.45-.2333 0-.5.35-.8 1.05-.6333 1.3333-1.0333 3.1667-1.2 5.5-.0666 1-.1 1.55-.1 1.65 0 .4667.0834.75.25.85.1667.1333.6167.2 1.35.2 1 0 1.55-.1 1.65-.3.0667-.1.1-.5333.1-1.3 0-2.3-.1833-4.3667-.55-6.2zm-3.4-5.15c.8667-.8667 2.1667-1.3 3.9-1.3.7667 0 1.4.1333 1.9.4.7.3333 1.2 1.2667 1.5 2.8.2334 1.2667.5167 3.4333.85 6.5.3334 3.0333.5334 5.3667.6 7 .0334 1.5333.1334 3.2833.3 5.25.2 1.9333.35 2.9833.45 3.15.0334.0333.05.1.05.2 0 .3-.1333.6667-.4 1.1-.2666.4333-.5166.6833-.75.75-.0666.0333-.2166.05-.45.05-.5 0-1.05-.1167-1.65-.35-.6-.2333-.9666-.4833-1.1-.75-.1333-.2667-.3-1.1833-.5-2.75-.1666-1.5667-.25-2.85-.25-3.85 0-.9-.1-1.4167-.3-1.55-.1666-.1-.9166-.15-2.25-.15-1.1333 0-1.7166.05-1.75.15-.0333.1667-.05.3667-.05.6 0 .7.05 1.6.15 2.7.1 1.3.15 2.3667.15 3.2v.45c-.0333.2333-.2833.45-.75.65-.4333.1667-.85.25-1.25.25-.2 0-.35-.0167-.45-.05-1.1333-.3333-1.7666-.8-1.9-1.4 0-.0333-.0166-.1-.05-.2v-.35c0-1.4.1667-4.4.5-9 .3334-4.6.5834-7.25.75-7.95.2-.9.5834-1.9333 1.15-3.1.6-1.2 1.1334-2.0167 1.6-2.45zm15.7036-4.6c.4666-.4 1.2333-.6 2.3-.6h1.15c1.8.0667 2.8833.15 3.25.25.2.0667.6666.1333 1.4.2.7333.0333 1.2666.1833 1.6.45.3666.2333.55.65.55 1.25-.0334.6333-.1667 1.0833-.4 1.35-.2334.2667-.65.45-1.25.55-.7.1333-1.1.25-1.2.35-.1667.1667-.25 3.35-.25 9.55 0 4.2667.05 7.3.15 9.1.0666 1.4.1 2.15.1 2.25 0 .7-.15 1.3-.45 1.8-.3667.6667-.9334 1-1.7 1-.5 0-1.0167-.15-1.55-.45l-.95-.55.15-11.4c.0666-2.9333.1-5.8667.1-8.8 0-1.7667-.1334-2.7333-.4-2.9-.4-.2-.65-.2833-.75-.25-.1334.0333-.3167.05-.55.05-.6 0-1.1-.1667-1.5-.5-.4-.3667-.6-.7833-.6-1.25 0-.5333.2666-1.0167.8-1.45zm17.6023 2.85c.4-.1.934-.15 1.6-.15 1.834 0 2.984.2 3.45.6.334.3.5.6667.5 1.1 0 .4333-.166.8-.5 1.1-.333.3-.766.45-1.3.45-.5 0-.833.1333-1 .4-.166.2333-.25.8-.25 1.7 0 .2667.034 1.1.1 2.5.067 1.6333.134 2.7.2 3.2.1.4667.234.7167.4.75.034 0 .25.0167.65.05h1c.8.0333 1.384.2333 1.75.6.234.2333.35.4667.35.7 0 .5-.716 1.0167-2.15 1.55-.833.3-1.333.5333-1.5.7-.166.1333-.283.4833-.35 1.05-.066.5333-.1 1-.1 1.4 0 1.6667.15 2.9167.45 3.75.134.3333.284.55.45.65.167.0667.517.1 1.05.1.7 0 1.3.1667 1.8.5.5.3.75.6667.75 1.1 0 .3-.25.7-.75 1.2-.8.7667-2.133 1.15-4 1.15-1.933 0-3.1996-.4167-3.7996-1.25-.3333-.4333-.5333-3.2833-.6-8.55-.0667-6.5667-.1333-10.4333-.2-11.6l-.15-3.7.7-.4c.5333-.3333 1.0166-.55 1.4496-.65zm28.498-.8c.6-.5667 1.05-.9167 1.35-1.05.3-.1333.716-.2 1.25-.2.8 0 1.416.2167 1.85.65.433.4333.65.75.65.95 0 .3-.184.65-.55 1.05-.334.4-.767.7333-1.3 1-.667.3667-1.184.95-1.55 1.75-.367.7667-.667 2.05-.9 3.85-.2 1.2333-.3 2.3-.3 3.2 0 .2667.066 1.4667.2 3.6.266 2.8333.483 4.4833.65 4.95.466 1.1333 1.25 1.7 2.35 1.7.533 0 .966.1333 1.3.4.366.2333.55.5333.55.9 0 .1333-.017.2333-.05.3-.267.9333-1.067 1.4-2.4 1.4-.6 0-1.384-.1333-2.35-.4-.667-.2-1.134-.3833-1.4-.55-.234-.2-.5-.5833-.8-1.15-.467-.8-.834-1.5833-1.1-2.35-.5-1.4333-.75-4.4333-.75-9 0-1.2333.05-2.1833.15-2.85.333-2.5.683-4.25 1.05-5.25.4-1.0333 1.1-2 2.1-2.9zm18.11 7.7c-.2-.9667-.434-1.45-.7-1.45-.234 0-.5.35-.8 1.05-.634 1.3333-1.034 3.1667-1.2 5.5-.067 1-.1 1.55-.1 1.65 0 .4667.083.75.25.85.166.1333.616.2 1.35.2 1 0 1.55-.1 1.65-.3.066-.1.1-.5333.1-1.3 0-2.3-.184-4.3667-.55-6.2zm-3.4-5.15c.866-.8667 2.166-1.3 3.9-1.3.766 0 1.4.1333 1.9.4.7.3333 1.2 1.2667 1.5 2.8.233 1.2667.516 3.4333.85 6.5.333 3.0333.533 5.3667.6 7 .033 1.5333.133 3.2833.3 5.25.2 1.9333.35 2.9833.45 3.15.033.0333.05.1.05.2 0 .3-.134.6667-.4 1.1-.267.4333-.517.6833-.75.75-.067.0333-.217.05-.45.05-.5 0-1.05-.1167-1.65-.35-.6-.2333-.967-.4833-1.1-.75-.134-.2667-.3-1.1833-.5-2.75-.167-1.5667-.25-2.85-.25-3.85 0-.9-.1-1.4167-.3-1.55-.167-.1-.917-.15-2.25-.15-1.134 0-1.717.05-1.75.15-.034.1667-.05.3667-.05.6 0 .7.05 1.6.15 2.7.1 1.3.15 2.3667.15 3.2v.45c-.034.2333-.284.45-.75.65-.434.1667-.85.25-1.25.25-.2 0-.35-.0167-.45-.05-1.134-.3333-1.767-.8-1.9-1.4 0-.0333-.017-.1-.05-.2v-.35c0-1.4.166-4.4.5-9 .333-4.6.583-7.25.75-7.95.2-.9.583-1.9333 1.15-3.1.6-1.2 1.133-2.0167 1.6-2.45zm19.353-.8c-.1-.2667-.283-.4-.55-.4-.2 0-.366.1167-.5.35-.133.2333-.133.4333 0 .6.034.0333.117 1.1167.25 3.25.167 2.1.284 3.1833.35 3.25.067.0667.234-.0667.5-.4.2-.3.3-.8667.3-1.7 0-.6333-.016-1.1833-.05-1.65-.066-1.8333-.166-2.9333-.3-3.3zm-3.15-3.7c.6-.2 1.367-.3 2.3-.3 1 0 1.734.1 2.2.3.867.3667 1.534 1.0333 2 2 .2.4333.384 1.3.55 2.6.2 1.2667.3 2.4.3 3.4 0 .4667-.016.8-.05 1-.1.8333-.333 1.7667-.7 2.8-.333 1.0333-.583 1.55-.75 1.55-.266 0-.4.2167-.4.65 0 .3333.117.7.35 1.1.534.7667 1.284 2.1833 2.25 4.25.967 2.0667 1.5 3.3667 1.6 3.9.034.1667.05.4.05.7 0 .4333-.116.8167-.35 1.15-.266.4-.583.6-.95.6-.333 0-.633-.0167-.9-.05-.833-.1-1.366-.2167-1.6-.35-.2-.1333-.3-.4-.3-.8 0-.6667-.35-1.6833-1.05-3.05-.666-1.3667-1.166-2.05-1.5-2.05h-.05c-.1.0667-.15.4333-.15 1.1 0 1 .1 2.1.3 3.3.067.5333.1.9.1 1.1 0 1.1333-.25 1.8333-.75 2.1-.2.1-.483.15-.85.15-1.066 0-1.733-.25-2-.75-.166-.2667-.3-2.5167-.4-6.75-.033-1.3667-.066-2.8333-.1-4.4-.033-1.5667-.05-2.7-.05-3.4 0-.7333-.05-1.6667-.15-2.8-.066-1.1667-.166-2.45-.3-3.85-.133-1.6-.2-2.5333-.2-2.8 0-.8.1-1.35.3-1.65.234-.3333.65-.5833 1.25-.75zm20.455 8.8c-.5-1.7667-.916-2.65-1.25-2.65l-.1.1-.05.15v.75c0 .4333.034 1.3833.1 2.85.1 1.7.184 4.0167.25 6.95.034 2.7667.15 4.15.35 4.15.067 0 .184-.2333.35-.7.634-2.1.95-4.3667.95-6.8 0-1.8667-.2-3.4667-.6-4.8zm-4.7-6.1c.167-.0333 1-.05 2.5-.05 1.734.0333 3.034.4167 3.9 1.15.9.7 1.617 1.9833 2.15 3.85.534 1.8.8 3.8667.8 6.2 0 .5-.033 1.05-.1 1.65-.1.5-.216 1.25-.35 2.25-.133 1-.266 1.9-.4 2.7-.133.7667-.3 1.3167-.5 1.65-.166.2667-.25.5667-.25.9 0 .2333-.166.7167-.5 1.45-.333.7-.616 1.2-.85 1.5-.4.4667-.983.9-1.75 1.3-.766.3667-1.516.5833-2.25.65-.6.0667-.95.1-1.05.1-.4 0-.783-.1833-1.15-.55l-.7-.7.05-8.45v-2.5c0-4.1667-.05-6.45-.15-6.85-.2-1.3667-.3-2.5333-.3-3.5 0-1.7.3-2.6167.9-2.75zm18.382-1.8c.4-.2.867-.3 1.4-.3.367 0 .667.0167.9.05.967.1 1.617.2333 1.95.4.367.1667.7.5 1 1 .334.5333.5 1.0667.5 1.6 0 .6-.233 1.1167-.7 1.55-.4.4-.8.6-1.2.6-.466 0-.883-.2833-1.25-.85-.3-.4333-.616-.65-.95-.65-.3 0-.6.2167-.9.65-.266.4-.433.85-.5 1.35v.25c0 1.8333 1.4 5.2167 4.2 10.15.467.8.917 2.2667 1.35 4.4.034.1333.05.3667.05.7 0 1.8333-.383 3.25-1.15 4.25-.333.4333-.883.8167-1.65 1.15-.733.3333-1.4.5-2 .5h-.2c-.066-.0333-.133-.05-.2-.05-.766-.1333-1.7-.7-2.8-1.7-1.066-1.0333-1.6-1.85-1.6-2.45 0-.2667.184-.5667.55-.9.367-.3667.717-.5833 1.05-.65.067-.0333.184-.05.35-.05.367 0 .95.5333 1.75 1.6.3.4333.634.65 1 .65.334 0 .584-.2.75-.6.067-.1333.1-.3833.1-.75 0-1.9333-.866-4.7333-2.6-8.4-1.6-3.4667-2.4-6.0333-2.4-7.7 0-.7333.134-1.4167.4-2.05.534-1.3.95-2.15 1.25-2.55.3-.4333.817-.8333 1.55-1.2z" fill="#4A3838"/><g clip-path="url(#clip0)"><path d="M117.173 9.06498c.72-.05119 2.212-1.00168 3.117-.26667.281.22804.675.53679.909.95795.506.91064.434 2.03754-.069 3.04844-.392.7884-1.002 1.3855-1.588 1.8584-1.064.8592-2.348 1.2727-3.89 1.6527-.274.0675-1.28-1.1527-1.48-1.3347-1.457-1.3275-2.3-3.2626-1.878-5.18543.179-.81705.655-1.93958 1.533-2.16488.706-.18112 1.558-.02539 2.064.30927.283.18756.577.38362.801.60528.282.27806.508.51283.628.53772" fill="#ED664C"/><path d="M120.555 8.47232c.278.22573.723.59541 1.011 1.07979.532 1.02619.465 2.34859-.06 3.43969-.433.8449-1.099 1.5119-1.7 1.9981-1.132.8957-2.498 1.3497-4.054 1.7336-.221-.0034-.517-.1041-.68-.233-.152-.1203-.329-.291-.489-.4556-.32-.3286-.612-.6706-.694-.7433-1.508-1.399-2.453-3.5427-2.006-5.58582.095-.43103.281-.98295.557-1.43354.277-.45335.748-.8811 1.283-1.04832.796-.18426 1.816-.00026 2.4.36586.284.18803.609.40989.865.65687.239.23673.279.28358.366.36294.319-.07858.677-.24825 1.269-.39641.594-.14847 1.35-.14157 1.932.25914zm-1.728.55573c-.521.13043-1.083.37285-1.511.44346l-.149.0245-.121-.07565c-.174-.10933-.415-.34541-.649-.57636-.193-.19634-.455-.3666-.738-.5537-.428-.3032-1.111-.43067-1.728-.25266-.343.05807-.549.30426-.775.67271-.227.3713-.368.7892-.452 1.17519-.395 1.80266.345 3.52896 1.751 4.78516.117.1093.428.4683.73.7784.15.1548.289.2879.409.383.038.0307.055.0446.061.0503 1.478-.3674 2.629-.7255 3.623-1.5461.571-.4596 1.125-.9869 1.476-1.7188.482-.9307.558-1.8619.078-2.65712-.18-.35789-.523-.60576-.807-.83612-.29-.30756-.678-.22639-1.198-.09621zM119.027 3.49978l-.537 2.44805s-.045.15987-.457.0721c-.374-.0795-.363-.25185-.363-.25185l.536-2.44805s.056-.19682.433-.11965c.421.08603.388.2994.388.2994zM125.357 7.41166l-2.133 1.31568s-.147.07881-.37-.27872c-.203-.32397-.071-.4362-.071-.4362l2.133-1.31569s.18-.09638.387.22835c.23.36204.054.48658.054.48658zM125.64 14.4891l-2.457-.4929s-.161-.0421-.08-.456c.073-.3751.245-.3676.245-.3676l2.457.4929s.198.0527.128.4311c-.079.4218-.293.3925-.293.3925zM109.762 10.6884l-2.457-.493s-.16-.0421-.08-.45597c.073-.37507.245-.36762.245-.36762l2.458.49296s.197.05271.127.43103c-.079.4218-.293.3926-.293.3926zM110.279 16.6579l-2.133 1.3158s-.146.0788-.37-.2788c-.202-.3239-.071-.4362-.071-.4362l2.133-1.3157s.18-.0964.387.2284c.23.362.054.4865.054.4865zM115.561 18.8508l-.536 2.448s-.045.1599-.457.0721c-.374-.0795-.363-.2518-.363-.2518l.536-2.4481s.056-.1968.433-.1196c.42.086.387.2994.387.2994zM111.206 3.40368l1.37 2.09842s.082.14409-.269.3767c-.319.21081-.435.08251-.435.08251l-1.37-2.09842s-.101-.17804.219-.39283c.356-.23951.485-.06638.485-.06638zM120.765 18.235l1.37 2.0985s.082.1441-.269.3767c-.319.2108-.434.0825-.434.0825l-1.37-2.0984s-.101-.1781.218-.3929c.356-.2395.485-.0664.485-.0664z" fill="#4A3838"/></g><defs></defs></svg>
