<svg width="140" viewBox="0 0 1164 1164" fill="none" xmlns="http://www.w3.org/2000/svg">
<path d="M542.874 289.952C377.147 296.17 228.887 336.344 128.906 402.09C106.129 417.042 87.4746 432.273 70.5666 449.67C34.0955 487.189 15.3709 526.106 13.5543 568.515C11.9474 605.406 24.314 640.549 51.5625 676.671C58.3397 685.684 59.5973 687.012 73.7106 701.195C90.4091 717.893 105.92 730.539 127.509 744.862C136.242 750.661 151.404 760.163 151.893 760.163C152.033 760.163 155.247 761.91 159.019 764.076C177.604 774.696 207.158 788.39 234.407 799.08C349.899 844.424 502.909 865.524 650.82 856.581C828.005 845.821 984.3 794.468 1074.57 717.334C1082.25 710.767 1101.33 691.832 1106.71 685.474C1127.11 661.23 1140.59 636.078 1147.65 609.248L1150.31 599.118L1150.59 576.83C1150.86 554.472 1150.59 550.909 1148.21 540.778C1142.83 518.49 1131.65 495.084 1116.56 474.753C1102.66 456.098 1081.56 435.277 1058.5 417.671C1044.18 406.771 1033.07 399.505 1005.96 383.505C1001.14 380.641 974.867 367.505 965.575 363.313C915.619 340.606 857.14 322.301 794.049 309.585C745.701 299.873 696.514 293.865 638.593 290.651C621.336 289.673 561.599 289.253 542.874 289.952ZM636.497 302.249C755.342 307.698 864.406 331.384 956.073 371.697C975.007 380.012 1001.7 393.915 1019.02 404.535C1068.21 434.649 1106.15 472.307 1124.18 508.988C1131.65 524.219 1135.14 534.28 1138.29 549.861C1139.69 556.848 1139.9 559.992 1139.9 573.616C1139.9 590.035 1139.48 594.017 1136.33 606.594C1118.31 678.977 1040.89 745.212 921.209 790.556C848.546 818.154 760.023 836.878 670.732 843.655C574.105 850.922 477.967 846.31 388.815 829.961C294.773 812.774 215.752 784.687 147.771 744.303C104.732 718.732 66.654 682.819 46.4621 648.654C22.707 608.55 18.5149 564.114 34.6544 523.311C39.4753 511.294 49.8857 492.22 55.6847 484.884C56.1039 484.325 59.1781 480.342 62.5318 476.01C81.8852 450.928 112.837 424.797 149.517 402.649C162.862 394.544 174.041 388.466 188.643 381.339C270.808 341.235 372.187 315.035 482.438 305.323C515.765 302.458 528.83 301.76 559.992 301.201C592.969 300.712 606.803 300.851 636.497 302.249Z" fill="black"/>
<path d="M299.594 350.458C271.227 358.772 239.228 379.103 212.678 405.583C206.949 411.313 201.569 416.832 200.8 417.81C200.102 418.788 197.656 421.723 195.56 424.448C188.294 433.461 180.609 446.945 177.465 456.028C172.015 472.028 172.714 488.307 179.491 502.56C186.408 517.023 196.119 528.341 225.254 555.869C232.101 562.367 239.787 570.192 242.372 573.266C244.887 576.271 248.8 580.882 251.035 583.397C255.717 588.568 263.193 599.048 265.498 603.589C266.337 605.266 267.175 608.27 267.385 610.227C268.153 617.353 263.193 631.536 256.765 640.829C251.105 648.864 239.857 659.064 232.171 662.977C230.005 664.095 227.769 663.955 227.35 662.697C226.372 660.322 234.617 650.96 241.673 646.418C250.826 640.549 251.944 637.056 245.306 635.1C243.629 634.611 241.254 634.96 235.245 636.497C193.744 647.187 168.172 659.833 162.862 672.2C156.504 686.872 165.447 702.382 182.565 706.365C188.154 707.623 198.285 707.203 205.202 705.317C230.983 698.4 261.236 680.304 277.026 662.208C280.939 657.737 281.987 657.248 288.904 655.99C303.716 653.475 318.598 644.602 330.405 631.187C339.488 620.986 347.733 615.467 355.628 614.349C357.794 614.069 358.423 614.349 360.728 616.654C364.291 620.288 367.296 626.785 371.977 641.038C381.339 669.125 388.256 677.02 402.789 676.112C416.623 675.274 432.692 665.143 453.233 644.322C464.133 633.283 469.792 628.672 471.958 628.951C474.473 629.301 474.194 633.213 470.561 650.401C467.486 664.863 467.906 669.055 472.936 674.226C477.687 679.116 482.508 680.793 491.87 680.793C501.023 680.863 503.748 680.025 510.944 675.134C518.001 670.313 525.477 663.606 545.599 643.833C554.262 635.379 562.088 627.694 563.066 626.715C568.236 621.685 576.55 614.838 577.459 614.838C579.135 614.838 579.485 618.122 578.576 627.344C575.921 655.361 565.791 679.885 546.297 705.666C537.424 717.474 529.878 726.138 509.687 747.587C487.608 771.202 476.01 786.713 467.067 804.739C461.268 816.407 459.521 826.398 462.526 830.171C466.089 834.712 474.194 836.11 481.809 833.525C496.342 828.494 518.42 807.883 534.56 784.268C541.337 774.346 550.629 758.696 562.996 736.408C567.118 729.072 576.201 714.889 581.092 708.251C591.083 694.837 605.895 681.003 628.811 663.536C633.213 660.182 638.453 655.99 640.34 654.243C644.602 650.331 646.907 648.724 647.466 649.283C647.676 649.562 647.187 651.379 646.278 653.405C643.484 659.903 642.575 663.955 642.575 670.034C642.645 685.824 652.567 694.278 667.169 690.924C672.549 689.736 683.518 684.077 690.645 678.977C695.116 675.763 704.269 667.309 711.535 659.623C727.325 643.065 743.674 627.135 746.399 625.667C750.312 623.571 750.941 624.619 752.128 635.868C753.735 650.82 756.67 658.296 763.447 664.444C768.967 669.475 774.346 671.012 784.827 670.593C801.944 669.894 812.634 662.837 828.145 642.086C837.367 629.72 842.118 623.991 855.044 609.388C869.576 593.039 874.607 589.127 877.402 591.921C880.336 594.856 876.144 611.065 866.712 633.353C859.166 651.169 856.162 659.344 854.136 667.588C850.572 681.702 851.9 694.208 857.28 697.841C862.38 701.265 869.087 701.474 874.397 698.33C879.009 695.535 883.201 691.343 902.344 670.383C915.549 655.85 917.715 653.615 928.475 642.925C940.422 631.117 949.715 622.943 952.09 622.244C954.815 621.405 960.335 624.41 964.737 629.091C967.881 632.515 970.186 636.287 975.985 647.606C981.994 659.274 984.02 662.488 987.304 665.842C994.78 673.457 1002.74 674.715 1013.29 669.824C1032.02 661.16 1047.04 639.152 1044.25 624.34C1043.76 621.964 1041.03 618.331 1039.63 618.331C1036.84 618.331 1030.34 623.641 1026.71 628.812C1024.61 631.816 1023.64 632.095 1019.09 630.768C1015.04 629.58 1009.03 623.362 1006.17 617.493C1004.91 614.838 1002.05 607.152 999.74 600.375C995.129 586.821 992.544 581.441 988.561 576.83C983.671 571.31 977.942 570.053 969.138 572.638C956.073 576.411 945.523 585.703 925.401 610.995C913.523 625.947 907.864 632.305 902.484 636.567C895.917 641.807 894.589 639.641 897.524 628.322C899.41 620.777 904.301 606.943 910.938 590.384C917.785 573.197 918.973 568.655 919.043 559.642C919.113 552.166 918.973 551.258 917.087 547.206C914.921 542.525 911.008 538.472 907.165 536.865C900.877 534.21 889.349 536.516 881.244 542.036C874.956 546.297 870.555 551.957 858.956 570.402C854.834 576.969 843.236 593.179 838.625 598.768C838.136 599.327 834.014 604.707 829.402 610.716C821.298 621.336 816.547 625.947 810.119 629.37C806.975 631.117 799.01 630.908 795.446 629.021C786.573 624.34 785.176 615.676 789.368 592.201C791.604 579.834 791.534 578.507 788.809 576.061C787.482 574.873 786.294 574.664 780.145 574.664C773.298 574.664 772.809 574.804 767.779 577.249C762.469 579.904 759.115 582.769 748.635 593.808C742.696 600.026 736.478 605.476 716.216 622.174C703.57 632.584 695.605 637.755 693.509 636.986C690.225 635.728 694.557 623.571 701.963 613.301C725.02 581.231 741.718 566.07 767.988 553.075C780.145 547.066 783.289 544.481 786.573 537.354C788.739 532.603 788.46 526.455 785.805 521.424C783.22 516.394 780.774 515.276 772.739 515.346C759.534 515.486 749.194 520.027 733.264 532.743C729.84 535.468 724.95 539.241 722.435 541.127C705.037 554.193 694.976 563.904 650.471 609.947C633.073 627.973 606.174 654.593 605.685 654.243C604.707 653.684 604.917 652.357 607.083 646.907C610.925 637.196 615.047 626.366 615.606 624.619C615.886 623.641 618.75 615.467 622.034 606.384C629.021 586.891 630.209 582.14 630.209 573.266C630.209 567.887 629.929 566 628.742 563.764C625.108 556.638 619.659 554.472 610.227 556.358C597.65 558.944 589.476 565.162 570.472 586.541C557.546 601.144 541.756 616.305 525.058 630.279C514.997 638.733 514.088 639.152 512.761 636.218C512.202 634.96 512.202 633.213 512.761 629.72C514.647 618.751 517.372 609.947 525.756 587.24C530.018 575.642 529.878 566.559 525.337 561.389C522.682 558.385 519.328 557.267 514.298 557.756C505.844 558.524 498.158 564.323 480.691 583.118C473.984 590.384 467.417 597.441 466.089 598.768C464.762 600.096 460.011 605.336 455.539 610.296C445.688 621.266 440.657 626.017 434.229 630.349C425.566 636.218 420.675 637.196 415.365 634.191C408.937 630.558 406.701 623.502 406.631 607.152C406.631 595.764 405.793 587.589 404.256 582.279C402.16 575.432 396.361 568.655 387.837 563.066C383.156 559.922 382.317 559.642 378.544 559.642C372.676 559.642 368.483 562.018 361.217 569.354C357.933 572.638 351.017 581.022 345.846 587.869C340.676 594.786 333.969 603.1 331.034 606.454C323.139 615.397 312.24 623.571 307.07 624.41L304.554 624.829L307 620.008C313.567 607.292 312.659 595.205 303.995 578.856C297.847 567.258 291.14 558.454 274.232 539.45C262.005 525.686 253.83 516.184 249.918 510.944C248.101 508.569 246.215 506.193 245.726 505.704C243.769 503.678 234.826 492.639 232.171 489.006C215.263 465.879 218.547 443.172 242.023 420.815C246.284 416.762 250.896 412.64 252.223 411.662C253.551 410.614 257.044 407.749 259.909 405.164C262.773 402.649 265.847 400.134 266.756 399.714C270.249 397.828 271.367 400.553 269.271 405.653C267.315 410.334 265.708 412.011 259.35 415.714C252.083 420.116 249.638 422.212 249.079 424.797C248.52 427.242 250.057 430.876 252.433 433.111C254.11 434.648 254.669 434.718 259 434.369C270.04 433.391 286.668 425.286 299.733 414.457C304.484 410.544 315.384 399.645 318.668 395.592C322.51 390.771 328.938 380.291 330.545 376.029C333.41 368.414 332.292 358.003 328.17 354.51C319.716 347.244 313.358 346.335 299.594 350.458Z" fill="black"/>
<path d="M381 478C381 478 371 490 368 500.5C365 511 367 516.5 368 524C369 531.5 366.994 536.369 372 541C376.808 545.447 381.985 543.333 388.5 544C397.047 544.876 402.245 546.382 410.5 544C419.814 541.312 424.593 537.275 431 530C435.803 524.547 437.229 520.489 440.5 514C443.928 507.2 447.2 503.573 448 496C448.749 488.913 445.489 485.11 445 478C444.652 472.935 445 470.077 445 465C445 461.29 446.207 459.008 445 455.5C443.996 452.581 443.163 450.562 440.5 449C437.3 447.123 434.688 448.594 431 449C423.388 449.839 419.34 452.056 412.5 455.5C406.453 458.544 403.539 461.107 398 465C391.162 469.806 381 478 381 478Z" fill="#FFDD29"/>
</svg>
