<svg version="1.1" xmlns="http://www.w3.org/2000/svg" xmlns:xlink="http://www.w3.org/1999/xlink" x="0px" y="0px"
	 width="100" viewBox="0 0 356 402" enable-background="new 0 0 356 402" xml:space="preserve">
	<defs>
		<rect id="SVGID_1_" x="-111" y="-223.89" width="595.28" height="841.89"/>
	</defs>
	<clipPath id="SVGID_2_">
		<use xlink:href="#SVGID_1_"  overflow="visible"/>
	</clipPath>
	<path clip-path="url(#SVGID_2_)" fill="#0A1710" d="M72.96,255.016l0.054-0.255l3.069,0.408c4.272,0.339,10.589,1.511,18.953,3.515
		c0.611,0.034,1.077,0,1.4-0.102c4.595-3.566,7.018-6.656,7.269-9.271c-0.251-1.223-0.987-1.986-2.207-2.293l-1.239,0.103
		c-4.666,1.121-10.805,1.358-18.415,0.713l-2.153-0.152l-3.823-0.611l-3.285-0.356l-1.561-0.051
		c-4.487,0.543-7.144,2.496-7.969,5.857l-0.431,2.599c-0.216,2.309-0.144,4.94,0.215,7.896c0.646,2.411,1.436,4.144,2.369,5.195
		l0.216,1.478c0.789,1.732,2.513,2.7,5.169,2.903l10.984,1.937c3.913,0.34,7.215,1.087,9.908,2.24
		c3.338,1.598,3.374,4.568,0.107,8.915c-2.297,0.137-4.9,0.068-7.807-0.204l-1.293-0.102c-1.256-0.103-6.066-0.985-14.43-2.649
		c-3.948-0.203-6.048,1.291-6.3,4.483l-0.107,0.713l0.646,1.987c2.01,3.124,6.353,5.11,13.03,5.96l1.185,0.102
		c4.271-0.306,8.4-0.595,12.384-0.866c6.892-1.562,11.218-5.195,12.977-10.9l0.753-4.33c0.18-1.189,0.234-2.632,0.162-4.33
		c-0.682-2.242-0.969-3.906-0.862-4.992c-0.036-0.441-0.107-0.679-0.215-0.713c0.144-1.257-0.754-2.072-2.692-2.446l-11.577-1.171
		l-1.238-0.204l-1.831-0.152c-3.482-0.306-7.233-1.002-11.253-2.088c-2.118-1.563-2.208-4.483-0.27-8.763H72.96z"/>
	<path clip-path="url(#SVGID_2_)" fill="#0A1710" d="M152.596,253.997l-0.485-3.413c-1.076-3.396-3.392-5.094-6.946-5.094
		l-2.315,0.509c-2.297,0.815-3.446,2.87-3.446,6.164v0.866c1.113,9.983,1.669,18.389,1.669,25.215
		c0.467,3.668-2.315,6.198-8.346,7.59l-6.299,0.306c-1.436-0.237-2.89-1.315-4.362-3.234c-1.472-1.918-2.064-7.581-1.777-16.988
		v-2.241l0.323-6.521v-0.153c-0.574-3.564-1.095-5.348-1.561-5.348c-1.687-2.072-3.698-3.108-6.031-3.108
		c-0.825,0-1.777,0.153-2.854,0.459c-1.076,0.577-1.615,2.021-1.615,4.33l1.508,23.33c0.395,4.008,0.987,7.488,1.777,10.443
		c2.369,4.517,5.492,6.774,9.369,6.774c5.061,0.272,9.638-0.212,13.73-1.452c4.092-1.238,7.107-0.552,9.046,2.063
		c2.118,1.257,3.966,1.885,5.546,1.885c1.974-0.238,2.961-1.121,2.961-2.648v-0.866c-0.754-5.162-1.13-10.409-1.13-15.74v-2.547
		C151.358,271.045,151.77,264.186,152.596,253.997"/>
	<path clip-path="url(#SVGID_2_)" fill="#0A1710" d="M169.665,255.016l0.054-0.255l3.069,0.408
		c4.272,0.339,10.589,1.511,18.953,3.515c0.61,0.034,1.077,0,1.399-0.102c4.596-3.566,7.019-6.656,7.27-9.271
		c-0.251-1.223-0.987-1.986-2.207-2.293l-1.239,0.103c-4.666,1.121-10.805,1.358-18.415,0.713l-2.153-0.152l-3.823-0.611
		l-3.285-0.356l-1.561-0.051c-4.487,0.543-7.144,2.496-7.969,5.857l-0.431,2.599c-0.216,2.309-0.144,4.94,0.215,7.896
		c0.646,2.411,1.436,4.144,2.369,5.195l0.216,1.478c0.789,1.732,2.513,2.7,5.169,2.903l10.984,1.937
		c3.913,0.34,7.215,1.087,9.908,2.24c3.338,1.598,3.374,4.568,0.107,8.915c-2.297,0.137-4.9,0.068-7.807-0.204l-1.293-0.102
		c-1.256-0.103-6.066-0.985-14.43-2.649c-3.948-0.203-6.048,1.291-6.3,4.483l-0.107,0.713l0.646,1.987
		c2.01,3.124,6.353,5.11,13.03,5.96l1.185,0.102c4.271-0.306,8.4-0.595,12.384-0.866c6.892-1.562,11.218-5.195,12.977-10.9
		l0.753-4.33c0.18-1.189,0.233-2.632,0.162-4.33c-0.683-2.242-0.97-3.906-0.862-4.992c-0.036-0.441-0.107-0.679-0.215-0.713
		c0.144-1.257-0.754-2.072-2.692-2.446l-11.577-1.171l-1.238-0.204l-1.831-0.152c-3.482-0.306-7.233-1.002-11.253-2.088
		c-2.118-1.563-2.208-4.483-0.27-8.763H169.665z"/>
	<path clip-path="url(#SVGID_2_)" fill="#0A1710" d="M275.737,276.958l-0.09-7.543l1.816-11.652
		c-0.033-0.679-0.251-1.503-0.657-2.471c-5.332-7.082-9.432-10.563-12.3-10.439c-1.65,0.07-2.537,1.061-2.662,2.97l0.029,0.61
		c2.723,9.641,4.168,16.207,4.334,19.702l0.07,1.475l0.222,1.266c-0.172,2.422-0.406,4.301-0.701,5.64l-2.054,11.204l0.005,0.102
		l0.212,1.062c2.229,4.528,4.849,6.728,7.86,6.6c3.228-0.138,5.093-2.087,5.597-5.848c-0.987-5.635-1.523-9.352-1.608-11.149
		L275.737,276.958z"/>
	<path clip-path="url(#SVGID_2_)" fill="#0A1710" d="M248.991,244.624c-3.231,0-5.188,1.868-5.869,5.604
		c0.718,5.672,1.077,9.406,1.077,11.207v1.527l-0.064,1.782c-4.147,0.436-7.046,0.664-8.57,0.664h-1.614l-7.97-0.255l-4.749-0.871
		l0.065-2.677l-0.038-1.243l0.085-0.72l0.146-6.08c-0.185-0.396-0.407-0.786-0.739-1.16c-6.604-4.592-11.037-6.912-13.298-6.961
		l-0.484-0.01c-2.263,0.019-3.552,0.619-3.868,1.802l-0.007,0.306l3.829,4.26c1.519,2.548,2.419,5.437,2.701,8.669l-0.069,2.853
		l0.021,1.376l-0.057,0.101l0.029,1.021l0.473,2.762l0.129,1.378l-0.164,0.099l0.16,0.004l0.058,2.141l0.081,1.123l-0.112,0.15
		l0.095,0.512l0.238,12.539c-0.139,1.838-2.412,5.663,0.275,8.055c1.398,1.246,6.097,1.192,7.682,0.165
		c1.344-0.87,1.507-0.335,2.198-6.66l0.333-13.869c1.253-0.125,2.345-0.198,3.21-0.198h1.561l1.348-0.152
		c2.548,0.271,4.522,0.577,5.923,0.916l10.938,2.279l0.068,10.15c0,0.68,0.18,1.512,0.539,2.496
		c4.989,7.301,6.438,5.808,9.311,5.808c1.651,0,2.584-0.951,2.8-2.854v-0.611c-2.262-9.746-3.392-16.368-3.392-19.865v-1.479
		l-0.049-0.386c0.01-0.129,0.084-0.246,0.084-0.378c0-0.311-0.11-0.553-0.15-0.838c0.276-2.235,0.582-4.019,0.922-5.275
		l2.585-11.104v-0.102l-0.161-1.07C254.519,246.934,252.006,244.624,248.991,244.624"/>
	<path clip-path="url(#SVGID_2_)" fill="#0A1710" d="M243.689,340.348c-1.302-4.157-6.195-5.008-8.041-5.759
		c0.753-0.996,1.468-2.239,2.109-3.982c0.603-2.925,0.874-5.547,0.813-7.865l-0.268-2.619c-0.635-3.405-3.332-5.518-8.091-6.338
		l-1.676-0.045l-3.538,0.153l-4.136,0.374l-2.314,0.019c-8.188,0.174-14.737-0.441-19.646-1.848l-1.316-0.179
		c-1.328,0.229-2.171,0.946-2.531,2.151c0.04,1.379,0.752,2.938,2.055,4.654c2.186,8.105,0.943,10.534,1.109,13.791l0.076,1.475
		l0.237,1.266c-0.185,2.422-0.435,4.301-0.752,5.64l0.52,13.297l0.006,0.103l0.227,1.062c2.001,3.795,3.868,4.449,6.309,4.497
		c2.735,1.158,6.606,1.416,11.729,1.591l1.275-0.006c4.526-0.687,8.899-0.083,13.123-0.711c7.187-2.174,11.412-6.179,12.676-12.017
		l0.338-4.379C244.046,343.474,243.948,342.031,243.689,340.348 M210.13,323.307c5.928-0.839,10.612-1.289,14.039-1.346l3.313-0.218
		l0.039,0.258l0.115,0.008c1.758,4.389,2.701,8.65,0.055,9.651c-0.81,0.307-1.886,0.508-2.946,0.695l-1.746,0.01
		c-2.206,0.006-9.334,0.364-13.551,0.295L210.13,323.307z M232.827,351.444c-2.437,0.342-5.222,0.508-8.354,0.498l-1.39,0.015
		c-1.197,0.011-5.937,0.708-13.213,0c-0.522-3.705-0.306-6.318-0.377-7.713l-0.077-1.526l-0.016-1.147l11.539-0.333
		c4.211-0.012,7.816,0.434,10.813,1.342C235.487,343.869,235.846,346.823,232.827,351.444"/>
	<path clip-path="url(#SVGID_2_)" fill="#0A1710" d="M128.89,349.205c-6.034,1.098-7.126,1.714-9.06,1.848l-1.642,0.113
		l-8.124,0.305l-1.259-0.137c-0.432-2.61-0.699-4.564-0.756-5.685l-0.078-1.526l-0.096-7.543l1.947-16.801
		c-0.035-0.679-0.269-1.503-0.704-2.471c-5.715-7.081-7.057-5.413-10.133-5.291c-1.768,0.07-2.719,1.06-2.853,2.969l0.032,0.61
		c2.919,9.641,1.414,16.208,1.592,19.702l0.076,1.476l0.237,1.267c-0.185,2.421-0.435,4.3-0.752,5.639l-2.201,11.203l0.005,0.102
		l0.227,1.063c2.389,4.527,5.198,6.728,8.426,6.6c1.993-0.079,3.443-0.832,4.467-2.112c0.245-0.025,0.581-0.087,0.8-0.102
		l1.587-0.11l1.356-0.247c2.615,0.093,4.649,0.259,6.102,0.499l9.256,1.613l0.11-0.007l1.136-0.232
		c4.795-2.238,7.066-4.779,6.814-7.624C135.132,351.277,132.961,349.57,128.89,349.205"/>
	<path clip-path="url(#SVGID_2_)" fill="#0A1710" d="M185.479,330.527c-0.236-5.33-0.063-10.586,0.517-15.768l-0.038-0.866
		c-0.068-1.528-1.164-2.381-3.289-2.56c-1.691,0.047-3.644,0.729-5.857,2.049c-1.96,2.672-5.16,3.449-9.597,2.332
		c-4.438-1.117-9.362-1.465-14.77-1.042c-4.153,0.115-7.398,2.466-9.737,7.051c-0.715,2.977-1.196,6.474-1.442,10.492l-0.452,26.422
		c0.101,2.308,0.742,3.735,1.92,4.28c1.167,0.273,2.193,0.397,3.077,0.373c2.499-0.069,4.607-1.164,6.322-3.285
		c0.5-0.015,0.979-1.813,1.437-5.394l-0.007-0.152l-0.362-4.515l10.035-1.282c1.522-0.242,3.657-0.411,6.403-0.506l1.428,0.245
		l1.67,0.108c0.386,0.023,0.948,0.115,1.406,0.168c-0.113,2.032-0.242,4.106-0.406,6.291l0.039,0.865
		c0.145,3.293,1.466,5.313,3.962,6.059l2.503,0.44c3.806-0.105,6.211-1.872,7.214-5.3l0.369-3.426
		c-1.333-10.159-2.077-17.004-2.233-20.535L185.479,330.527z M171.496,339.547l-8.542-0.296l-1.728-0.112
		c-1.59-0.102-4.545-0.509-8.776-1.197c-0.254-6.526,0.187-10.723,1.402-12.32c1.492-1.963,3.002-3.083,4.529-3.364l6.761,0.118
		c6.521,1.212,9.611,3.657,9.273,7.339c0.127,2.869,0.139,6.085,0.079,9.518L171.496,339.547z"/>
	<path clip-path="url(#SVGID_2_)" fill="#8DC63F" d="M134.813,71.923c12.08,35.768,48.922,25.846,48.922,25.846
		c0.001-0.13-0.009-0.248-0.008-0.379c-10.304-0.275-22.237-4.507-31.267-19.204c-6.063-9.866-9.803-15.962-12.098-19.708
		c2.569,3.65,6.502,9.228,12.617,17.893c9.392,13.307,20.764,17.122,30.675,17.191c-2.096-54.026-58.003-48.903-58.003-48.903
		S122.734,36.155,134.813,71.923"/>
	<path clip-path="url(#SVGID_2_)" fill="#8DC63F" d="M192.524,64.03c-17.986,15.693-3.294,34.828-3.294,34.828
		c0.077-0.031,0.144-0.065,0.219-0.096c-2.325-6.088-2.733-14.083,3.676-22.908c4.302-5.924,6.962-9.582,8.596-11.827
		c-1.512,2.383-3.823,6.028-7.41,11.693c-5.509,8.7-4.993,16.267-2.641,22.075c31.064-14.267,14.575-45.7,14.575-45.7
		S210.511,48.337,192.524,64.03"/>
	<path clip-path="url(#SVGID_2_)" fill="#EE2847" d="M264.245,31.438c7.048-1.619,14.074,2.783,15.692,9.832
		c1.619,7.048-2.783,14.074-9.831,15.693c-7.049,1.619-14.075-2.783-15.693-9.832C252.795,40.083,257.195,33.057,264.245,31.438"/>
	<path clip-path="url(#SVGID_2_)" fill="#FFE679" d="M298.419,85.006c4.826-1.108,9.637,1.906,10.745,6.731
		c1.107,4.826-1.906,9.637-6.732,10.745c-4.825,1.108-9.636-1.905-10.744-6.731C290.58,90.925,293.593,86.114,298.419,85.006"/>
	<path clip-path="url(#SVGID_2_)" fill="#C4D93B" d="M265.188,79.802c3.347-0.768,6.683,1.321,7.45,4.667
		c0.77,3.346-1.32,6.682-4.667,7.45c-3.346,0.769-6.682-1.321-7.45-4.667C259.753,83.906,261.843,80.57,265.188,79.802"/>
	<path clip-path="url(#SVGID_2_)" fill="#F89B5E" d="M302.674,51.756c4.073-0.935,8.133,1.608,9.068,5.681
		c0.935,4.073-1.608,8.133-5.682,9.068c-4.072,0.935-8.133-1.608-9.067-5.681C296.058,56.751,298.601,52.691,302.674,51.756"/>
	<path clip-path="url(#SVGID_2_)" fill="#EE2847" d="M288.742,123.658c2.181-0.501,4.354,0.861,4.855,3.042
		c0.501,2.18-0.861,4.354-3.041,4.855c-2.182,0.501-4.355-0.861-4.856-3.042C285.199,126.333,286.562,124.159,288.742,123.658"/>
	<path clip-path="url(#SVGID_2_)" fill="#0A1710" d="M275.886,201.394l-211.022-7.165c-2.615-0.089-4.775,2.563-4.789,5.881
		c-0.015,3.316,2.121,6.008,4.736,5.965l211.069-3.414L275.886,201.394z"/>
	<path clip-path="url(#SVGID_2_)" fill="#0A1710" d="M60.074,221.923l211.021-7.164c2.615-0.089,4.775,2.563,4.789,5.881
		c0.016,3.317-2.121,6.008-4.735,5.965L60.08,223.191L60.074,221.923z"/>
	<path clip-path="url(#SVGID_2_)" fill="#ED1C24" d="M246.943,163.514c-3.003,0.314-7.223-0.51-9.486-4.607
		c-2.448-3.788-2.94-10.849-2.752-15.872c-0.188-5.024,0.304-12.085,2.752-15.873c2.264-4.097,6.483-4.921,9.486-4.607
		c3.002-0.314,7.222,0.51,9.484,4.607c2.449,3.788,2.941,10.849,2.753,15.873c0.188,5.023-0.304,12.085-2.752,15.872
		C254.165,163.005,249.945,163.828,246.943,163.514"/>
	<path clip-path="url(#SVGID_2_)" fill="#0A1710" d="M268.265,113.749c-6.117-10.06-17.42-10.144-21.322-9.838
		c-2.938-0.23-10.064-0.236-15.954,3.964c-12.802,0.03-28.664,0.066-28.68,0.066c-6.402,0-13.257,0.873-17.412,7.893
		c-0.556,0.803-1.049,1.693-1.491,2.65l-2.346,8.025c-1.004,5.517-1.216,11.584-1.216,16.526c0,8.616,0.558,20.709,5.053,27.2
		c4.155,7.021,11.822,7.896,17.412,7.896h28.656c5.945,4.265,13.047,4.257,15.978,4.028c3.902,0.305,15.205,0.23,21.166-9.593
		c6.103-8.567,6.191-23.61,5.936-29.368C274.316,137.142,274.211,122.073,268.265,113.749 M201.253,117.914
		c-1.572,3.074-2.751,7.341-3.113,11.38c-0.1,1.127-1.14,2.069-2.388,2.099c-1.244,0.032-2.229-0.964-2.115-2.218
		c0.5-5.446,1.458-8.585,3.309-12.306c0.58-1.167,1.834-1.848,3.095-1.619C201.421,115.539,201.786,116.871,201.253,117.914
		 M217.389,117.914c-1.571,3.074-2.751,7.341-3.112,11.38c-0.102,1.127-1.141,2.069-2.389,2.099
		c-1.244,0.032-2.229-0.964-2.115-2.218c0.501-5.446,1.459-8.585,3.309-12.306c0.58-1.167,1.834-1.848,3.094-1.619
		C217.557,115.539,217.922,116.871,217.389,117.914 M261.41,168.151c-3.908,6.421-11.772,6.203-14.086,5.983
		c-0.097-0.009-0.382-0.037-0.382-0.037l-0.382,0.037c-2.314,0.219-10.179,0.438-14.243-6.229
		c-3.814-5.358-4.786-16.275-4.457-25.035c-0.345-8.425,0.643-19.348,4.613-24.952c3.908-6.424,11.772-6.205,14.087-5.985
		l0.382,0.036l0.382-0.036c2.313-0.22,10.178-0.439,14.243,6.228c3.813,5.35,4.812,16.273,4.462,25.035
		C266.379,151.633,265.381,162.561,261.41,168.151"/>
	<path clip-path="url(#SVGID_2_)" fill="#0A1710" d="M178.392,171.37c-4.495-6.762-5.053-19.359-5.054-28.334
		c0-2.438,0.05-5.141,0.207-7.919h0.002c0.002-0.102,0.015-0.196,0.018-0.298c0.149-2.515,0.403-5.079,0.778-7.574
		c0.819-4.572,2.047-8.124,2.748-9.91c0.404-0.918,0.79-1.863,1.301-2.632c2.071-3.646,4.814-5.698,7.835-6.842
		c-11.734,0.031-39.864,0.079-39.882,0.079c-5.856,0-12.065,0.789-16.266,6.287l-0.05-0.002c-0.082,0.12-0.136,0.253-0.216,0.374
		c-0.295,0.409-0.608,0.775-0.88,1.235c-0.555,0.802-1.049,1.692-1.49,2.649h0.273c-1.226,2.73-2.034,5.503-2.562,8.026h-0.057
		c-0.049,0.266-0.074,0.544-0.119,0.813c-0.841,4.39-0.871,7.713-0.871,7.774c-0.173,2.785-0.227,5.5-0.227,7.938
		c0,8.616,0.559,20.709,5.053,27.201c4.155,7.021,11.822,7.894,17.412,7.894h40.003C183.294,176.972,180.422,174.943,178.392,171.37
		 M147.901,117.913c-1.572,3.074-2.751,7.341-3.113,11.38c-0.1,1.127-1.14,2.069-2.388,2.099c-1.244,0.032-2.229-0.963-2.115-2.217
		c0.5-5.447,1.459-8.586,3.308-12.307c0.58-1.167,1.834-1.848,3.095-1.618C148.069,115.538,148.435,116.87,147.901,117.913
		 M164.037,117.913c-1.572,3.074-2.751,7.341-3.113,11.38c-0.1,1.127-1.14,2.069-2.388,2.099c-1.244,0.032-2.229-0.963-2.115-2.217
		c0.5-5.447,1.458-8.586,3.308-12.307c0.58-1.167,1.834-1.848,3.095-1.618C164.205,115.538,164.57,116.87,164.037,117.913"/>
	<path clip-path="url(#SVGID_2_)" fill="#0A1710" d="M122.072,171.37c-4.495-6.762-5.053-19.359-5.053-28.334
		c0-4.943,0.197-10.967,1.1-16.528l2.084-8.025c0.539-1.375,1.135-2.676,1.869-3.781c2.071-3.645,4.814-5.697,7.836-6.841
		c-11.734,0.031-31.879,0.097-32.527,0.12c-0.173-0.003-0.336-0.041-0.51-0.041c-19.349,0-35.035,15.685-35.035,35.035
		c0,18.893,14.966,34.251,33.684,34.967c1.32,0.128,34.509,0.187,34.509,0.187C126.974,176.972,124.102,174.943,122.072,171.37
		 M94.549,117.913c-1.572,3.074-2.751,7.341-3.113,11.38c-0.1,1.127-1.14,2.069-2.388,2.099c-1.244,0.032-2.229-0.963-2.115-2.217
		c0.5-5.447,1.459-8.586,3.308-12.307c0.58-1.167,1.834-1.848,3.095-1.618C94.717,115.538,95.083,116.87,94.549,117.913
		 M110.685,117.913c-1.572,3.074-2.751,7.341-3.113,11.38c-0.1,1.127-1.14,2.069-2.388,2.099c-1.244,0.032-2.229-0.963-2.115-2.217
		c0.5-5.447,1.458-8.586,3.308-12.307c0.58-1.167,1.834-1.848,3.095-1.618C110.853,115.538,111.218,116.87,110.685,117.913"/>
</svg>
