<svg width="248" height="289" viewBox="0 0 248 289" fill="none" xmlns="http://www.w3.org/2000/svg">
<path d="M18.6063 94.3563C9.025 94.3563 0.8125 102.569 0.8125 112.15V186.063C0.8125 195.644 9.025 203.856 18.6063 203.856C28.8719 203.856 36.4 195.644 36.4 186.063V111.466C37.0844 101.884 28.8719 94.3563 18.6063 94.3563ZM163.694 27.2875L176.012 4.70315C176.697 3.3344 176.013 1.96565 175.328 1.28128C173.959 0.596905 172.591 1.28128 171.906 1.96566L158.903 24.55C147.953 19.7594 136.319 17.0219 124 17.0219C111.681 17.0219 99.3625 19.7594 89.0969 24.55L76.0938 2.65003C75.4094 1.28128 74.0406 1.28128 72.6719 1.28128C71.3031 1.96565 71.3031 3.3344 71.9875 4.70315L84.3063 27.2875C59.6688 39.6063 43.2438 63.5594 43.2438 90.9344H204.756C204.756 64.2438 188.331 40.2907 163.694 27.2875ZM87.0438 62.1906C83.6219 62.1906 80.2 59.4532 80.2 55.3469C80.2 51.925 82.9375 48.5032 87.0438 48.5032C90.4656 48.5032 93.8875 51.2407 93.8875 55.3469C93.8875 59.4532 91.15 62.1906 87.0438 62.1906ZM160.956 62.1906C157.534 62.1906 154.113 59.4532 154.113 55.3469C154.113 51.925 156.85 48.5032 160.956 48.5032C164.378 48.5032 167.8 51.2407 167.8 55.3469C167.8 59.4532 164.378 62.1906 160.956 62.1906ZM43.9281 97.7782V212.753C43.9281 223.019 52.825 231.916 63.0906 231.916H76.0938V270.925C76.0938 280.506 84.3063 288.719 93.8875 288.719C104.153 288.719 111.681 280.506 111.681 270.925V231.916H135.634V270.925C135.634 280.506 143.847 288.719 153.428 288.719C163.694 288.719 171.222 280.506 171.222 270.925V231.916H184.225C194.491 231.916 203.387 223.703 203.387 212.753V97.7782H43.9281ZM247.188 112.15C247.188 102.569 238.975 94.3563 229.394 94.3563C219.813 94.3563 211.6 102.569 211.6 112.15V186.747C211.6 196.328 219.813 204.541 229.394 204.541C238.975 204.541 247.188 196.328 247.188 186.747V112.15Z" fill="black"/>
</svg>
