<svg width="438" height="514" viewBox="0 0 438 514" fill="none" xmlns="http://www.w3.org/2000/svg">
<path d="M410.5 59L377 152.5L390 158L437 71.5L410.5 59Z" fill="black"/>
<path d="M395 7L364.5 148L349.5 144.5L361 1L395 7Z" fill="black"/>
<path d="M335 88.5V144.5H321L311 88.5H335Z" fill="black"/>
<path d="M278.5 54L307.5 148L294.5 152.5L253 63.5L278.5 54Z" fill="black"/>
<path d="M166.5 11.5L274 164L264 173.5L137 35L166.5 11.5Z" fill="black"/>
<path d="M123.5 96.5L249 189.5L241.5 202L103.5 124L123.5 96.5Z" fill="black"/>
<path d="M160.5 185L235 215L230.5 228.5L154.5 207.5L160.5 185Z" fill="black"/>
<path d="M1 215L226.5 243V258H1V215Z" fill="black"/>
<path d="M53.5 294.5L226.5 272.5L230.5 285L60 330L53.5 294.5Z" fill="black"/>
<path d="M120.5 345.5L235 300L241.5 311.5L137 374L120.5 345.5Z" fill="black"/>
<path d="M182 374L249 324L257 335.5L199 395.5L182 374Z" fill="black"/>
<path d="M154.5 487.5L269 345.5L280 352.5L188 509.5L154.5 487.5Z" fill="black"/>
<path d="M235 500.5L294.5 362L307.5 366.5L264 513L235 500.5Z" fill="black"/>
<path d="M321 369.5H337V409.5H315L321 369.5Z" fill="black"/>
<path d="M353 369.5H364.5L390 473L361 478L353 369.5Z" fill="black"/>
<path d="M380.5 362L394 357L433.5 435.5L409.5 445.5L380.5 362Z" fill="black"/>
<path d="M410.5 59L377 152.5L390 158L437 71.5L410.5 59Z" stroke="black"/>
<path d="M395 7L364.5 148L349.5 144.5L361 1L395 7Z" stroke="black"/>
<path d="M335 88.5V144.5H321L311 88.5H335Z" stroke="black"/>
<path d="M278.5 54L307.5 148L294.5 152.5L253 63.5L278.5 54Z" stroke="black"/>
<path d="M166.5 11.5L274 164L264 173.5L137 35L166.5 11.5Z" stroke="black"/>
<path d="M123.5 96.5L249 189.5L241.5 202L103.5 124L123.5 96.5Z" stroke="black"/>
<path d="M160.5 185L235 215L230.5 228.5L154.5 207.5L160.5 185Z" stroke="black"/>
<path d="M1 215L226.5 243V258H1V215Z" stroke="black"/>
<path d="M53.5 294.5L226.5 272.5L230.5 285L60 330L53.5 294.5Z" stroke="black"/>
<path d="M120.5 345.5L235 300L241.5 311.5L137 374L120.5 345.5Z" stroke="black"/>
<path d="M182 374L249 324L257 335.5L199 395.5L182 374Z" stroke="black"/>
<path d="M154.5 487.5L269 345.5L280 352.5L188 509.5L154.5 487.5Z" stroke="black"/>
<path d="M235 500.5L294.5 362L307.5 366.5L264 513L235 500.5Z" stroke="black"/>
<path d="M321 369.5H337V409.5H315L321 369.5Z" stroke="black"/>
<path d="M353 369.5H364.5L390 473L361 478L353 369.5Z" stroke="black"/>
<path d="M380.5 362L394 357L433.5 435.5L409.5 445.5L380.5 362Z" stroke="black"/>
<path d="M360.969 267.203L391.984 276.578C389.901 285.276 386.62 292.542 382.141 298.375C377.661 304.208 372.089 308.609 365.422 311.578C358.807 314.547 350.37 316.031 340.109 316.031C327.661 316.031 317.479 314.234 309.562 310.641C301.698 306.995 294.901 300.615 289.172 291.5C283.443 282.385 280.578 270.719 280.578 256.5C280.578 237.542 285.604 222.984 295.656 212.828C305.76 202.62 320.031 197.516 338.469 197.516C352.896 197.516 364.224 200.432 372.453 206.266C380.734 212.099 386.88 221.057 390.891 233.141L359.641 240.094C358.547 236.604 357.401 234.052 356.203 232.438C354.224 229.729 351.802 227.646 348.938 226.188C346.073 224.729 342.87 224 339.328 224C331.307 224 325.161 227.229 320.891 233.688C317.661 238.479 316.047 246.005 316.047 256.266C316.047 268.974 317.974 277.698 321.828 282.438C325.682 287.125 331.099 289.469 338.078 289.469C344.849 289.469 349.953 287.568 353.391 283.766C356.88 279.964 359.406 274.443 360.969 267.203Z" fill="black"/>
</svg>
