<svg width="3387" height="3387" fill="none" xmlns="http://www.w3.org/2000/svg"><path d="M2844.92 1703.31c-394.58 7.74-312.4 257.53-590.48 320.7-282.5 64.18-327.1-689.94-609.52-689.94-282.46 0-345.04 732.55-698.712 1235.45l-10.091 14.23 758.283 437.72 1150.52-664.19v-653.97Z" fill="#C5BEC5"/><path d="M2844.92 1680.57c-132.09-169.53-221.69-364.42-414.45-364.42-341.11 0-251.36 556.47-628.36 556.47-377.03 0-416.67-598.56-843.783-35.9-136.097 179.29-245.646 379.19-331.697 568.35l1067.77 616.42 1150.52-664.19v-676.73Z" fill="#424242"/><path opacity=".8" d="M543.843 1911.08c129.447-358.48 185.315-648.81 432.442-648.81 376.995 0 466.735 1059.13 789.925 951.38 323.15-107.69 287.23-682.14 789.93-682.14 95.69 0 193.38 58.62 288.8 153.43v672.34l-1150.52 664.19-1150.56-664.19v-446.2h-.017Z" fill="#8C8C8C"/><path d="M1693.5 3104.75 471.146 2399.14V987.875L1693.5 282.25l1222.35 705.625V2399.13L1693.5 3104.75ZM614.758 2316.23 1693.5 2938.96l1078.74-622.73V1070.79L1693.5 448.054 614.758 1070.79v1245.44Z" fill="#000"/></svg>
