<svg width="109" height="123" viewBox="0 0 109 123" fill="none" xmlns="http://www.w3.org/2000/svg">
<path d="M36.25 12.3V57.78C36.25 57.78 52.27 57.78 60.85 57.13C67.59 55.95 68.84 55.3 70.08 48.55L72.56 38.67H79.89L78.65 60.26L79.3 82.38H71.9L70.07 73.74C68.24 67.59 65.76 66.35 60.84 65.75C54.69 65.1 36.24 65.1 36.24 65.1V103.24C36.24 110.57 39.96 113.71 48.54 113.71H74.38C82.37 113.71 90.34 113.06 95.32 101.41L102 86.63H108.21C107.56 89.7 104.49 116.79 103.9 122.88C103.9 122.88 80.54 122.29 70.72 122.29H26.42L0 122.88V116.2L8.58 114.31C14.79 113.07 16.62 111.24 16.62 106.32C16.62 106.32 17.27 89.71 17.27 62.02C17.27 34.41 16.62 17.78 16.62 17.78C16.62 12.28 14.79 11.04 8.58 9.79L0 7.98V1.24L25.84 1.77H75.04C84.86 1.77 101.41 0 101.41 0C101.41 0 100.82 10.41 100.17 35.01H93.43L90.95 26.37C88.52 15.31 84.85 9.81 78.05 9.81H39.38C36.25 9.82 36.25 10.41 36.25 12.3Z" fill="black"/>
</svg>
