<svg width="256" height="255" fill="none" xmlns="http://www.w3.org/2000/svg"><path d="M118.267 105.334h19.795l4.918-6.733V45.874h-29.627v52.733l4.914 6.727ZM105.508 128.851l6.116-18.717-4.919-6.731L56.271 87.11l-9.154 28.016 50.44 16.296 7.951-2.571ZM124.06 148.187l-16.012-11.571-7.959 2.573-31.169 42.659 23.968 17.314 31.172-42.661v-8.314ZM148.285 136.614l-16.016 11.569.004 8.32 31.169 42.659 23.969-17.314-31.175-42.663-7.951-2.571ZM144.702 110.13l6.118 18.719 7.958 2.569 50.435-16.292-9.157-28.018-50.436 16.297-4.918 6.725Z" fill="#000"/><path d="M128.171.106C57.709.106.383 57.1.383 127.152c0 70.078 57.326 127.087 127.788 127.087 70.454 0 127.774-57.009 127.774-127.087 0-70.053-57.32-127.046-127.774-127.046Zm0 25.725c56.269 0 101.9 45.357 101.9 101.321 0 55.982-45.631 101.358-101.9 101.358-56.288 0-101.913-45.376-101.913-101.358 0-55.964 45.625-101.32 101.913-101.32Z" fill="#000"/><path d="m205.565 155.391-38.338-12.387 2.535-7.765 38.338 12.387-2.535 7.765ZM156.669 94.19l-6.644-4.798 23.693-32.429 6.644 4.799-23.693 32.428ZM100.072 93.895l-23.69-32.43 6.644-4.798 23.69 32.428-6.644 4.8ZM50.608 154.907l-2.536-7.765 38.334-12.382 2.536 7.764-38.334 12.383ZM123.807 208.159h8.211v-40.085h-8.211v40.085Z" fill="#000"/></svg>
