<?xml version="1.0" encoding="utf-8"?>
<!-- Svg Vector Icons : http://www.onlinewebfonts.com/icon -->
<!DOCTYPE svg PUBLIC "-//W3C//DTD SVG 1.1//EN" "http://www.w3.org/Graphics/SVG/1.1/DTD/svg11.dtd">
<svg version="1.1" xmlns="http://www.w3.org/2000/svg" xmlns:xlink="http://www.w3.org/1999/xlink" x="0px" y="0px" viewBox="0 0 1000 1000" enable-background="new 0 0 1000 1000" xml:space="preserve">
<metadata> Svg Vector Icons : http://www.onlinewebfonts.com/icon </metadata>
<g><path d="M724.7,177.9c-28.4,20-56,37-86.4,61.7c-23,18.8-64.4,44.4-66.7,79c-3.5,52.6,77.5,101.2,34.6,167.9c-16.3,25.4-43.9,36.3-79,51.9c-4.2-7.7,9.1-14.1,14.8-22.2c53.8-78-56.1-104-42-200C513.6,223.3,623,191,724.7,177.9z"/><path d="M381.5,498.9c-25.4,11.9-67.9,14.1-86.4,39.5c18.8,14.1,46.2,13.6,71.6,14.8c104.2,4.7,234.6-4.2,323.5-19.8c3,6.4-12.3,17.5-22.2,24.7c-56,41-230.4,52.6-350.6,44.4c-40.2-2.7-132.3-13.3-133.3-49.4c-1.2-43.7,111.6-48.4,158-51.9C351.1,500.6,368.2,496.9,381.5,498.9z"/><path d="M329.7,610c11.6,1.5-8.1,8.4-4.9,17.3c42.5,42,174.6,30.1,239.5,17.3c13.6-2.7,27.2-10.9,37-9.9c24.7,2.2,40.5,30.9,61.7,34.6c-75.1,33.8-220,49.9-325.9,29.6c-27.4-5.2-75.1-20-76.5-42C258.3,627,307.7,614.4,329.7,610z"/><path d="M361.8,711.2c7.7,2.5-2.7,6.7-2.5,9.9c22.5,39,133.6,25.2,190.1,12.3c11.4-2.7,22.7-10.6,32.1-9.9c28.6,2,39.5,31.9,64.2,37c-78.8,48.1-269.6,67.7-348.1,7.4C293.9,724.1,329.2,719.1,361.8,711.2z"/><path d="M290.1,785.3c-23.5,5.9-84.2-2.5-86.4,29.6c-0.7,12.3,20.7,26.9,34.6,32.1c80.5,30.4,242.2,35.1,375.3,19.8c61.7-7.2,177.8-27.9,163-91.4c18.5,2.2,35.1,14.1,37,32.1c7.4,68.1-149.1,96.8-212.3,103.7c-137.5,15.1-309.4,12.1-414.8-24.7c-34.3-11.9-75.8-33.8-74.1-66.7C115.3,764.6,248.7,749.3,290.1,785.3z"/><path d="M500,990c-92.6-10.1-181.7-23.7-256.8-56.8c196.3,47.2,482.5,43.7,619.8-56.8c7.4-5.4,14.3-16,24.7-14.8C853.1,965.3,720.3,972.5,606.2,990C570.6,990,535.3,990,500,990z"/><path d="M564.2,10c17.3,16.3,29.6,46.7,29.6,79c0,95.6-101.2,150.9-150.6,214.8c-10.9,14.3-24.9,36.3-24.7,59.3c0.5,52.1,54.3,110.4,74.1,153.1c-34.6-22.7-76.5-53.1-106.2-88.9c-29.6-35.6-59.3-93.3-32.1-143.2c40.7-75.1,162-119.8,204.9-200C569.7,64.6,577.8,34.7,564.2,10z"/><path d="M709.9,523.6c50.9-43.5,137-26.4,140.7,46.9c4.2,85.9-89.9,134.1-158,138.3c31.6-30.1,115.1-78.5,98.8-148.1C784.7,532.5,749.7,515.4,709.9,523.6z"/></g>
</svg>