<svg width="802" height="885" viewBox="0 0 802 885" fill="none" xmlns="http://www.w3.org/2000/svg">
<path d="M751.113 435.743C751.113 390.257 714.237 353.381 668.752 353.381C665.823 353.381 662.939 353.538 660.092 353.839L773.217 20.1901H292.477L405.444 353.547C403.778 353.442 402.108 353.388 400.438 353.384C354.952 353.384 318.076 390.254 318.076 435.746C318.076 472.512 342.173 503.642 375.428 514.232C357.865 544.657 335.761 572.061 310.667 595.738C276.544 627.928 237.492 652.338 195.254 667.378C144.965 641.544 121.219 584.091 142.645 533.718C145.066 528.027 147.536 522.262 149.897 516.521C186.328 508.019 213.479 475.359 213.479 436.335C213.479 390.847 176.603 353.973 131.114 353.973C85.6254 353.973 48.7523 390.847 48.7523 436.335C48.7523 464.229 62.6287 488.869 83.8446 503.767C63.4595 550.181 33.4932 598.758 24.1566 655.057C12.967 722.526 24.119 794.147 82.4745 834.594C218.379 928.788 365.903 776.201 521.447 737.842C577.818 723.943 639.698 726.182 689.362 697.419C726.659 675.818 751.248 640.017 758.224 599.827C765.121 560.122 755.07 520.591 731.957 488.536C744.357 473.741 751.14 455.047 751.113 435.743" fill="#A9A9A9"/>
<path d="M738.406 596.384C732.349 631.279 710.798 661.756 679.283 680.013C649.903 697.027 614.697 702.106 577.42 707.48C557.452 710.358 536.803 713.34 516.631 718.312C463.295 731.465 411.633 757.126 361.677 781.941C261.695 831.603 175.352 874.486 93.9368 818.059C34.2989 776.728 37.0516 700.254 43.9993 658.348C50.439 619.522 67.8488 583.765 84.6817 549.187C87.5495 543.31 90.3942 537.422 93.2157 531.523C101.701 534.915 110.605 537.149 119.686 538.164C102.549 594.719 129.499 656.213 186.062 685.27L193.806 689.249L202.001 686.33C246.718 670.403 287.924 644.851 324.472 610.367C348.095 588.079 368.408 563.421 385.103 537.072C390.179 537.838 395.305 538.223 400.438 538.223C452.353 538.223 495.343 499.412 501.996 449.287C523.247 448.509 545.817 448.503 567.19 449.28C573.836 499.412 616.833 538.226 668.748 538.226C690.457 538.226 710.591 531.423 727.179 519.866C738.695 543.44 742.993 569.964 738.406 596.384V596.384ZM131.117 374.089C165.441 374.089 193.364 402.014 193.364 436.338C193.364 448.666 189.746 460.163 183.535 469.844C173.189 485.981 155.6 497.042 135.394 498.422C133.98 498.516 132.553 498.585 131.117 498.585C123.467 498.585 116.14 497.19 109.365 494.656C95.7202 489.525 84.2938 479.793 77.0569 467.139C71.6831 457.764 68.8596 447.144 68.8677 436.338C68.8677 402.014 96.793 374.089 131.117 374.089V374.089ZM338.194 435.746C338.194 404.56 361.247 378.666 391.201 374.189C394.217 373.735 397.302 373.499 400.441 373.499C420.396 373.499 438.163 382.952 449.557 397.6C452.411 401.252 454.848 405.211 456.824 409.404C460.693 417.646 462.695 426.641 462.687 435.746C462.687 440.721 462.085 445.559 460.978 450.199C454.912 475.594 433.257 495.007 406.72 497.679C404.658 497.886 402.563 497.992 400.441 497.992C388.468 498.002 376.749 494.538 366.706 488.019C349.569 476.917 338.194 457.639 338.194 435.746V435.746ZM597.993 361.724C584.447 374.653 574.699 391.044 569.804 409.118C546.342 408.254 522.856 408.254 499.394 409.118C494.127 389.58 483.21 372.343 468.522 359.25L532.934 229.007L597.993 361.724ZM320.534 40.3118H745.156L644.864 336.103C640.55 337.136 636.307 338.451 632.164 340.037L533.091 137.933L433.737 338.83C429.405 337.344 424.979 336.151 420.487 335.259L320.534 40.3118ZM730.995 435.749C730.995 441.988 730.064 448.014 728.349 453.704C724.28 467.101 715.83 478.744 704.355 486.765C693.925 494.085 681.49 498.006 668.748 497.995C640.008 497.995 615.763 478.41 608.634 451.886C607.218 446.624 606.501 441.198 606.502 435.749C606.502 427.24 608.22 419.126 611.324 411.733C612.926 407.951 614.898 404.336 617.212 400.942C628.414 384.407 647.316 373.503 668.748 373.503C670.714 373.503 672.652 373.603 674.574 373.785C706.176 376.729 730.998 403.387 730.998 435.749H730.995ZM771.229 435.749C771.229 385.717 735.18 343.972 687.701 335.056L801.277 0.074585H264.42L378.171 335.733C332.341 345.932 297.963 386.887 297.963 435.746C297.963 472.434 317.351 504.658 346.409 522.767C332.432 543.591 315.859 563.186 296.866 581.106C266.743 609.521 233.187 631.072 197.01 645.253C160.569 622.363 145.166 579.194 161.162 541.59L162.416 538.643L164.767 533.113C204.791 519.152 233.594 481.059 233.594 436.338C233.594 379.829 187.623 333.858 131.117 333.858C74.6114 333.858 28.6336 379.829 28.6336 436.338C28.6336 464.859 40.3593 490.687 59.227 509.285C55.708 516.741 52.1358 524.172 48.5108 531.576C31.2578 567.007 11.7067 607.166 4.3107 651.765C-10.3746 740.334 13.315 811.136 71.0185 851.126C106.032 875.392 141.592 884.936 177.374 884.936C244.75 884.936 312.909 851.085 379.573 817.971C427.582 794.128 477.228 769.47 526.266 757.374C544.513 752.875 563.286 750.166 583.164 747.3C622.582 741.613 663.34 735.735 699.445 714.826C741.297 690.585 769.943 649.921 778.045 603.269C784.999 563.217 776.631 523.102 756.221 489.079C766.055 473.029 771.25 454.569 771.229 435.746V435.749Z" fill="black"/>
</svg>
