<svg version="1.0" xmlns="http://www.w3.org/2000/svg" width="642.667" height="309.333" viewBox="0 0 482 232"><path d="M223.5 37.2c-.8 8.7-3.9 24.4-6.1 31.3-8.8 27.2-28.7 38.9-63.4 37.1-6.9-.4-19.9-1.4-29-2.2-60.4-5.9-92.3 8.8-105.9 48.5-3.3 9.6-6.1 27.9-6.8 44.3l-.6 14.8H32v-3.1c0-5.5 3.1-24.2 5.1-31.1 1.9-6.4 6.6-14 11.3-18 3.1-2.8 11.5-6.9 17.1-8.6 3.9-1.2 14.9-1.6 51.5-2.2 35.4-.6 48.2-1.2 53.5-2.3 35.9-7.7 54.6-29.2 64.1-73.5l1.7-8.2h7.5l1.7 7.2c5.5 23.2 12.2 39.2 20.7 49.8 9 11.1 23.1 19.6 39.8 24.1 8 2.1 11.1 2.2 56 2.9l47.5.6 8 2.7c18.5 6.2 26.8 18.2 29.5 42.7.6 5.8 1.3 12 1.6 13.7l.5 3.3h19.2l-.6-15.3c-1.7-39.3-9.6-61.6-27-76.4-17.9-15.2-44.8-20-87.2-15.7-23.2 2.4-45.9 2.2-55.7-.4-9.6-2.6-14-4.8-20.2-10.3-12-10.6-17.9-26.3-21.1-56.7l-.7-6.2h-31.6l-.7 7.2z"/></svg>
