<svg width="2500" height="2461" fill="none" xmlns="http://www.w3.org/2000/svg"><path d="M2301.25 1896.6c-135.92-3.39-241.26 10.21-329.61 47.58-25.49 10.19-66.27 10.2-69.67 42.48 13.6 13.59 15.3 35.68 27.19 54.37 20.41 33.97 56.06 79.85 88.35 103.65 35.67 27.18 71.37 54.35 108.73 78.14 66.27 40.78 141.04 64.56 205.6 105.34 37.39 23.77 74.74 54.38 112.12 79.86 18.7 13.57 30.58 35.68 54.38 44.17v-5.09c-11.9-15.3-15.3-37.38-27.19-54.38-16.97-16.99-33.98-32.28-50.97-49.27-49.27-66.25-110.43-124.03-176.69-171.59-54.37-37.39-173.31-88.35-195.39-151.23 0 0-1.71-1.68-3.4-3.38 37.37-3.4 81.54-17 117.23-27.19 57.77-15.3 110.43-11.9 169.91-27.19 27.17-6.8 54.36-15.29 81.54-23.79v-15.28c-30.57-30.59-52.66-71.36-84.94-100.25-86.65-74.77-181.81-147.82-280.34-208.98-52.68-33.98-120.65-56.07-176.71-84.95-20.37-10.21-54.37-15.29-66.25-32.29-30.6-37.37-47.59-86.64-69.67-130.82-49.26-93.45-96.85-197.09-139.33-295.62-30.56-66.27-49.26-132.54-86.64-193.693-175-288.838-365.29-463.838-657.518-635.449-62.871-35.674-137.626-50.967-217.48-69.648-42.461-1.709-84.951-5.098-127.422-6.807-27.187-11.895-54.375-44.17-78.164-59.463C332.09 44.658 82.315-87.852 10.957 87.148c-45.879 110.43 67.969 219.161 107.031 275.245 28.907 39.072 66.27 83.242 86.661 127.421 11.894 28.868 15.283 59.473 27.177 90.049 27.198 74.737 52.666 158.008 88.36 227.676 18.691 35.674 39.072 73.047 62.861 105.332 13.594 18.682 37.373 27.188 42.48 57.764-23.779 33.985-25.488 84.965-39.091 127.435-61.162 191.99-37.364 429.85 49.277 570.87 27.178 42.46 91.748 135.93 178.398 100.24 76.465-30.58 59.473-127.42 81.543-212.37 5.118-20.41 1.719-33.99 11.905-47.58v3.41c23.789 47.56 47.568 93.44 69.658 141.01 52.676 83.24 144.414 169.9 220.869 227.68 40.794 30.56 73.064 83.24 124.044 101.93v-5.11h-3.41c-10.19-15.29-25.49-22.08-39.07-33.98-30.58-30.57-64.57-67.95-88.351-101.93-71.348-95.16-134.229-200.49-190.293-309.23-27.178-52.66-50.977-110.43-73.057-163.1-10.205-20.41-10.205-50.97-27.187-61.16-25.488 37.37-62.861 69.66-81.553 115.53-32.266 73.05-35.674 163.1-47.568 256.54-6.797 1.72-3.408 0-6.807 3.42-54.355-13.61-73.047-69.67-93.447-117.25-50.977-120.62-59.473-314.31-15.283-453.63 11.894-35.68 62.871-147.813 42.48-181.797-10.195-32.286-44.189-50.977-62.871-76.456-22.08-32.285-45.879-73.046-61.162-108.74-40.781-95.146-61.172-200.488-105.342-295.635-20.391-44.179-56.055-90.039-84.951-130.82-32.275-45.869-67.959-78.164-93.447-132.529-8.487-18.682-20.391-49.268-6.797-69.658 3.398-13.594 10.185-18.682 23.789-22.08 22.09-18.702 84.961 5.087 107.031 15.283 62.871 25.468 115.537 49.277 168.213 84.951 23.779 16.992 49.268 49.277 79.844 57.773h35.683c54.375 11.885 115.528 3.399 166.504 18.682 90.059 28.877 171.602 71.357 244.668 117.236C1132.32 530.586 1315.8 731.074 1439.84 970.635c20.39 39.065 28.88 74.765 47.57 115.525 35.7 83.26 79.87 168.21 115.53 249.77 35.68 79.84 69.66 161.4 120.63 227.67 25.49 35.67 127.43 54.37 173.31 73.06 33.98 15.28 86.66 28.89 117.23 47.57 57.77 35.66 115.53 76.46 169.9 115.53 27.19 20.39 112.13 62.87 117.24 96.84Z" fill="#000"/><path d="M568.223 420.137c-28.877 0-49.258 3.418-69.649 8.506v3.398h3.399c13.603 27.188 37.373 45.879 54.355 69.658 13.604 27.178 25.488 54.375 39.092 81.563 1.689-1.709 3.389-3.399 3.389-3.399 23.798-17.002 35.683-44.179 35.683-84.961-10.195-11.884-11.894-23.779-20.39-35.673-10.186-17.002-32.286-25.489-45.879-39.092Z" fill="#000"/></svg>
