<?xml version="1.0" standalone="no"?>
<!DOCTYPE svg PUBLIC "-//W3C//DTD SVG 20010904//EN"
 "http://www.w3.org/TR/2001/REC-SVG-20010904/DTD/svg10.dtd">
<svg version="1.0" xmlns="http://www.w3.org/2000/svg"
 width="900.000000pt" height="900.000000pt" viewBox="0 0 900.000000 900.000000"
 preserveAspectRatio="xMidYMid meet">

<g transform="translate(0.000000,900.000000) scale(0.100000,-0.100000)"
fill="#000000" stroke="none">
<path d="M0 4500 l0 -4500 4500 0 4500 0 0 4500 0 4500 -4500 0 -4500 0 0
-4500z m2304 3288 c19 -62 132 -430 251 -818 233 -758 463 -1509 500 -1630
l24 -75 3 1315 3 1315 563 3 562 2 0 -3255 0 -3255 -560 0 -559 0 -20 68 c-11
37 -101 351 -201 697 -99 347 -272 947 -383 1333 l-202 704 -3 -1398 c-1 -815
-6 -1400 -11 -1403 -5 -3 -257 -5 -560 -3 l-551 2 0 3255 0 3255 555 0 554 0
35 -112z m5514 -1438 l22 0 -3 -2192 c-2 -2054 -4 -2197 -20 -2250 -40 -133
-91 -218 -184 -312 -101 -102 -204 -160 -338 -191 -57 -14 -194 -16 -1005 -15
-899 0 -941 1 -1015 20 -116 30 -206 82 -299 175 -127 126 -186 247 -207 420
-5 44 -9 384 -9 756 l0 676 93 21 c50 11 297 68 547 126 250 58 463 106 473
108 17 3 18 -26 17 -584 l0 -588 410 0 410 0 0 1908 c0 1049 0 1912 0 1917 0
7 186 9 542 8 299 -2 553 -3 566 -3z"/>
</g>
</svg>
