<svg width="700" height="110" viewBox="0 0 700 110" fill="none" xmlns="http://www.w3.org/2000/svg"><path d="M0 181.799c0 100.403 154.734 181.798 345.6 181.798s345.601-81.395 345.601-181.798S536.466-.001 345.6-.001C154.734 0 0 81.397 0 181.8Z" fill="#A9A9A9"/><path d="M345.6 350.099c183.411 0 332.1-75.351 332.1-168.301 0-92.949-148.689-168.301-332.1-168.301-183.411 0-332.1 75.352-332.1 168.301 0 92.95 148.689 168.301 332.1 168.301Z" fill="#DFDEDF"/><path d="M187.768 202.666c15.081 0 26.34-2.782 33.464-8.264 7.047-5.426 11.915-14.828 14.466-27.941 2.379-12.258 1.472-20.817-2.693-25.435-4.258-4.718-13.466-7.11-27.366-7.11h-24.101l-13.361 68.75h19.591Zm-78.829 84.687c-1.119 0-2.181-.5-2.892-1.365a3.745 3.745 0 0 1-.788-3.1l35.41-182.189a3.75 3.75 0 0 1 3.681-3.034h76.318c23.985 0 41.837 6.513 53.059 19.359 11.281 12.914 14.765 30.965 10.353 53.652-1.795 9.242-4.882 17.826-9.176 25.511-4.299 7.694-9.98 14.812-16.889 21.162-8.27 7.74-17.63 13.353-27.795 16.655-10.003 3.259-22.851 4.912-38.185 4.912h-30.902l-8.825 45.402a3.749 3.749 0 0 1-3.68 3.035h-39.689Z" fill="#000"/><path d="M184.629 137.665h21.01c16.777 0 22.604 3.681 24.584 5.875 3.285 3.642 3.905 11.322 1.794 22.209-2.373 12.187-6.77 20.828-13.073 25.681-6.452 4.967-16.942 7.485-31.176 7.485h-15.042l11.903-61.25Zm36.039-43.75h-76.319a7.5 7.5 0 0 0-7.361 6.069l-35.41 182.188a7.5 7.5 0 0 0 7.361 8.93h39.688a7.5 7.5 0 0 0 7.362-6.068l8.235-42.369h27.812c15.727 0 28.967-1.715 39.348-5.096 10.677-3.469 20.499-9.35 29.193-17.48 7.19-6.615 13.112-14.04 17.6-22.072 4.489-8.033 7.714-16.992 9.585-26.627 4.644-23.88.871-43.003-11.211-56.833-11.965-13.697-30.768-20.642-55.883-20.642Zm-57.041 112.5h24.141c16.001 0 27.92-3.014 35.751-9.043 7.833-6.03 13.115-16.093 15.86-30.196 2.627-13.54 1.43-23.095-3.588-28.661-5.025-5.566-15.074-8.35-30.152-8.35h-27.192l-14.82 76.25Zm57.041-105c22.959 0 39.708 6.025 50.235 18.076 10.526 12.051 13.696 28.873 9.496 50.469-1.728 8.896-4.652 17.03-8.768 24.399-4.122 7.373-9.503 14.116-16.153 20.23-7.925 7.416-16.729 12.701-26.416 15.848-9.688 3.157-22.026 4.728-37.026 4.728h-33.995l-9.414 48.437h-39.688l35.41-182.187h76.319" fill="#fff"/><path d="M375.079 238.915c-1.12 0-2.182-.5-2.893-1.365a3.744 3.744 0 0 1-.789-3.1l15.664-80.611c1.49-7.666 1.123-13.169-1.034-15.494-1.32-1.421-5.285-3.805-17.008-3.805h-28.378l-19.694 101.34a3.75 3.75 0 0 1-3.681 3.035h-39.375a3.75 3.75 0 0 1-3.681-4.465l35.41-182.188a3.75 3.75 0 0 1 3.681-3.034h39.375a3.75 3.75 0 0 1 3.681 4.465l-8.545 43.972h30.528c23.256 0 39.026 4.1 48.211 12.535 9.363 8.605 12.284 22.364 8.684 40.899L418.76 235.88a3.75 3.75 0 0 1-3.681 3.035h-40Z" fill="#000"/><path d="M352.676 45.477h-39.375a7.5 7.5 0 0 0-7.362 6.069l-35.41 182.189a7.496 7.496 0 0 0 7.362 8.93h39.375a7.502 7.502 0 0 0 7.363-6.069l19.104-98.306h25.286c11.704 0 14.16 2.5 14.259 2.607.71.764 1.643 4.302.102 12.227l-15.664 80.611a7.5 7.5 0 0 0 7.363 8.93h40a7.5 7.5 0 0 0 7.362-6.069l16.474-84.781c3.866-19.901.559-34.83-9.826-44.375-9.91-9.102-26.51-13.525-50.749-13.525h-25.98l7.679-39.506a7.502 7.502 0 0 0-7.363-8.932Zm0 7.5-9.413 48.438h35.077c22.071 0 37.295 3.852 45.674 11.547 8.379 7.7 10.889 20.177 7.54 37.423l-16.475 84.78h-40l15.664-80.61c1.782-9.17 1.127-15.425-1.968-18.76-3.096-3.335-9.682-5.005-19.756-5.005h-31.47l-20.283 104.375h-39.375l35.41-182.188h39.375Z" fill="#fff"/><path d="M497.537 202.666c15.081 0 26.34-2.782 33.464-8.264 7.047-5.425 11.915-14.826 14.467-27.941 2.379-12.258 1.473-20.817-2.693-25.435-4.259-4.718-13.467-7.11-27.367-7.11h-24.101l-13.361 68.75h19.591Zm-78.827 84.687a3.753 3.753 0 0 1-3.682-4.465l35.41-182.189a3.753 3.753 0 0 1 3.683-3.034h76.316c23.986 0 41.838 6.513 53.06 19.359 11.281 12.913 14.764 30.964 10.354 53.652-1.798 9.242-4.884 17.826-9.178 25.511-4.298 7.694-9.98 14.812-16.888 21.162-8.27 7.74-17.63 13.353-27.795 16.655-10.004 3.259-22.852 4.912-38.185 4.912h-30.904l-8.821 45.402a3.752 3.752 0 0 1-3.683 3.035H418.71Z" fill="#000"/><path d="M494.399 137.665h21.01c16.776 0 22.603 3.681 24.583 5.875 3.287 3.642 3.907 11.322 1.794 22.207-2.372 12.189-6.771 20.83-13.072 25.683-6.453 4.967-16.943 7.485-31.177 7.485h-15.041l11.903-61.25Zm36.038-43.75H454.12a7.5 7.5 0 0 0-7.361 6.069l-35.41 182.188a7.504 7.504 0 0 0 1.573 6.202 7.502 7.502 0 0 0 5.788 2.728h39.687a7.502 7.502 0 0 0 7.363-6.068l8.234-42.369h27.811c15.727 0 28.967-1.715 39.349-5.096 10.676-3.469 20.501-9.352 29.195-17.483 7.19-6.614 13.11-14.037 17.597-22.069 4.489-8.033 7.714-16.992 9.585-26.627 4.644-23.881.871-43.004-11.211-56.834-11.965-13.696-30.766-20.641-55.883-20.641Zm-57.04 112.5h24.14c16.002 0 27.92-3.014 35.752-9.043 7.833-6.03 13.115-16.093 15.86-30.196 2.627-13.54 1.431-23.095-3.589-28.661-5.025-5.566-15.074-8.35-30.151-8.35h-27.193l-14.819 76.25Zm57.04-105c22.959 0 39.708 6.025 50.235 18.076 10.528 12.051 13.697 28.873 9.497 50.469-1.729 8.896-4.653 17.03-8.769 24.399-4.121 7.373-9.503 14.116-16.153 20.23-7.925 7.416-16.728 12.701-26.416 15.848-9.687 3.157-22.026 4.728-37.026 4.728H467.81l-9.413 48.437H418.71l35.41-182.187h76.317" fill="#fff"/></svg>
