<svg width="400" height="110" viewBox="0 0 400 110" fill="none" xmlns="http://www.w3.org/2000/svg"><path fill-rule="evenodd" clip-rule="evenodd" d="M344.6 121.5v18.1h32.7c6.7 0 18.2-4.9 18.6-18.6v-7c0-11.7-9.6-18.6-18.6-18.6H361V87h32.3V68.8h-31c-8 0-18.7 6.6-18.7 18.9V94c0 12.3 10.6 18.6 18.7 18.6 22.5.1-5.4 0 15.4 0v8.8l-33.1.1Zm-175.2-4.4s17.5-1.5 17.5-24.1-21.2-24.7-21.2-24.7h-38.2v71.3h19.2v-17.2l16.6 17.2h28.4l-22.3-22.5Zm-7.4-14.6h-15.3V86.2h15.4s4.3 1.6 4.3 8.1-4.4 8.2-4.4 8.2Zm72.3-33.7h-19.5c-13.9 0-18.6 12.6-18.6 18.6v52.2h19.5v-12.5H234v12.5h18.9V87.4c0-15.2-13.8-18.6-18.6-18.6Zm-.3 38.1h-18.4V89.6s0-3.9 6.1-3.9h6.7c5.4 0 5.5 3.9 5.5 3.9v17.3h.1Z" fill="#000"/><path d="M282.1 68.8h-20.3v70.8h20.3V68.8Z" fill="#000"/><path fill-rule="evenodd" clip-rule="evenodd" d="M310.6 121.3V68.8h-20.2v70.8h47.5v-18.3h-27.3ZM7 139.6h79s-15.1-68.9 34.9-96.8c10.9-5.3 45.6-25.1 102.4 16.9 1.8-1.5 3.5-2.7 3.5-2.7s-52-51.9-109.9-46.1C87.8 13.5 52 40 31 75c-21 35-24 64.6-24 64.6Z" fill="#000"/><path fill-rule="evenodd" clip-rule="evenodd" d="M7 139.6h79s-15.1-68.9 34.9-96.8c10.9-5.3 45.6-25.1 102.4 16.9 1.8-1.5 3.5-2.7 3.5-2.7s-52-51.9-109.9-46.1C87.8 13.5 52 40 31 75c-21 35-24 64.6-24 64.6Z" fill="#000"/><path fill-rule="evenodd" clip-rule="evenodd" d="M7 139.6h79s-15.1-68.9 34.9-96.8c10.9-5.3 45.6-25.1 102.4 16.9 1.8-1.5 3.5-2.7 3.5-2.7s-52-51.9-109.9-46.1c-29.2 2.6-65 29.1-86 64.1C9.9 110 7 139.6 7 139.6ZM171.6 16.5l.4-6.7c-.9-.5-3.4-1.7-9.7-3.5l-.4 6.6c3.3 1.1 6.5 2.3 9.7 3.6Z" fill="#000"/><path fill-rule="evenodd" clip-rule="evenodd" d="m162.1 37.7-.4 6.3c3.3.1 6.6.5 9.9 1.2l.4-6.2c-3.4-.7-6.7-1.1-9.9-1.3Zm-37-31.2h1l-2-6.1c-3.1 0-6.3.2-9.6.6l1.9 5.9c2.9-.3 5.8-.4 8.7-.4Zm4.8 36.8 2.3 6.9c2.9-1.4 5.8-2.6 8.7-3.5l-2.2-6.6c-3.4 1-6.3 2.1-8.8 3.2ZM84.5 17 80 10.1c-2.5 1.3-5.1 2.7-7.8 4.3l4.6 7c2.6-1.6 5.1-3.1 7.7-4.4ZM105 62l4.8 7.2c1.7-2.5 3.7-4.8 5.9-7.1l-4.5-6.8c-2.3 2.1-4.4 4.4-6.2 6.7ZM90.5 94.2l8.1 6.4c.4-3.9 1.1-7.8 2.1-11.7l-7.2-5.7c-1.3 3.7-2.2 7.4-3 11ZM46.7 46.7l-7.1-6.2c-2.6 2.5-5.1 5-7.4 7.5l7.7 6.6c2.1-2.7 4.4-5.4 6.8-7.9ZM16.5 91.4 5 87.2c-1.9 4.3-4 9.3-5 12l11.5 4.2c1.3-3.4 3.4-8.3 5-12ZM89 119.6c.2 5.3.7 9.6 1.2 12.6l12 4.3c-.9-3.9-1.8-8.3-2.4-13L89 119.6Z" fill="#000"/></svg>
