<svg xmlns="http://www.w3.org/2000/svg" width="254" height="254" fill="none"><path fill="#050505" d="M247.5 103.1c6.23 24.26-20.53 52.67-54 44.62 42.63-31 23.14-70.71.61-89.76-24.43-20.66-.78-27.28 7.1-19.8-.19-15.09-53.33-11.68-6.85 36.78 23.88 24.89-4.29 79.95-37.85 38.08a10.13 10.13 0 0 1-.75-1.19c5.42-2.25 9.87-8.37 9.87-18.45A25.081 25.081 0 0 0 163.55 83c3.88-7.9 7.44-17.34 7.44-29.16 0-28.25-18.33-53.43-44-53.43s-44 25.18-44 53.43c0 11.82 3.57 21.27 7.45 29.17a25 25 0 0 0-2.08 10.4c0 10.08 4.44 16.2 9.87 18.45a10.3 10.3 0 0 1-.76 1.19c-33.56 41.87-61.74-13.2-37.85-38.08 46.49-48.46-6.67-51.86-6.86-36.78 7.88-7.47 31.54-.85 7.1 19.8-22.53 19-42 58.72.61 89.76-33.46 8.05-60.21-20.36-54-44.62-10.86 20-2.81 57.82 40.3 65.12C.88 178.78 14.69 242.14 47 232c-27.71-1.63-24.63-33.52-13.42-43.12 12.4-10.63 28.08-3.14 56.67-7.93-.31 25.74 24.76 39.57 11.61 54.31-13.93 15.6-33-1.25-30.06-16.58-13.3 27.52 24.57 49.42 41.17 17.46 12.79-24.59-21.2-69 14-69s1.2 44.36 14 69c16.6 32 54.47 10.06 41.17-17.46 2.91 15.34-16.13 32.18-30.05 16.58-13.09-14.78 11.91-28.61 11.64-54.35 28.58 4.79 44.26-2.71 56.65 7.93 11.23 9.6 14.3 41.49-13.41 43.12 32.36 10.18 46.16-53.19.25-63.75 43.08-7.29 51.14-45.12 40.28-65.11Z"/><path fill="#656565" d="M34.11 190.8c12.39-10.63 26.62-1.33 56.17-9.89 0 0 .41-7.9.79-13.76-9 6.78-25.46 5.9-39.2 7.91C6.65 181.69 16.69 236 47 232c-22.43-3.68-24.11-31.59-12.89-41.2Z"/><path fill="#797979" d="M92.81 151.88c5-7.73 5.62-20.19-4.49-8.86-34.16 38.27-93.43 7-81.82-39.91C-6 120.08 0 164.45 46.8 168.22c11.75-3.9 35.94-.88 46.01-16.34Z"/><path fill="#767676" d="M60.48 147.721s12-1.23 19.78-10.37c-31.63 11.76-57.58-39.25-18-73.73 30.78-26.78-.55-37.34-9.53-25.46 3.31-3.27 30.13-1.42 5.69 19.24-22.49 19.05-46.32 58.6 2.06 90.32Z"/><path fill="#696969" d="M149.74 240.421c-13.17-14.74 0-28.05 2.42-51.28 1.6-15.67-4.25-33-25.16-33s-26.77 17.36-25.16 33c2.39 23.23 15.58 36.54 2.42 51.28-13.92 15.59-39.95-.66-32.43-21.78-18.51 30.73 28.47 49.86 45.07 17.91 12.78-24.6-25.1-67.71 10.1-67.71s-2.68 43.11 10.1 67.71c16.6 31.95 63.57 12.82 45.06-17.91 7.51 21.12-18.5 37.36-32.42 21.78Z"/><path fill="#6B6B6B" d="M202.13 175.07c-13.75-2-30.22-1.14-39.2-7.92.39 5.86.79 13.77.79 13.77 29.54 8.55 43.77-.76 56.16 9.88 11.22 9.6 9.54 37.52-12.93 41.16 30.35 4.04 40.4-50.27-4.82-56.89Z"/><path fill="#757575" d="M247.5 103.101c11.61 46.9-47.66 78.19-81.83 39.9-10.11-11.33-9.52 1.14-4.48 8.87 10.07 15.46 34.25 12.44 46 16.34 46.81-3.76 52.81-48.14 40.31-65.11Z"/><path fill="#6A6A6A" d="M173.74 137.351c7.78 9.14 19.77 10.37 19.77 10.37 48.38-31.68 24.55-71.28 2-90.32-24.45-20.66 2.37-22.51 5.68-19.24-9-11.88-40.31-1.32-9.53 25.46 39.65 34.48 13.7 85.49-17.92 73.73Z"/><path fill="#4B1313" d="M140 35.56c0 7.8-13 7.8-13 0s13-7.79 13 0Zm-20.47 7.14c0 5.37-8.93 5.37-8.93 0s8.93-5.37 8.93 0Zm5.7-24.7c0 5.38-8.94 5.38-8.94 0s8.94-5.33 8.94 0Zm-18.62 38.11c0 2.69-4.47 2.69-4.47 0s4.47-2.69 4.47 0Zm.85-26.4c0 3.72-6.18 3.72-6.18 0s6.18-3.71 6.18 0Zm17.77 32.71c0 3.73-6.18 3.73-6.18 0s6.18-3.7 6.18 0Z" opacity=".3"/><path fill="#BBB" d="M111.12 93.38c0 14.18-16.08 14.18-16.08 0s16.08-14.18 16.08 0Z"/><path fill="#fff" d="M102.88 89.77a2.481 2.481 0 1 1-4.94 0 2.48 2.48 0 1 1 4.94 0Z"/><path fill="#BBB" d="M159 93.38c0 14.18-16.08 14.18-16.08 0S159 79.2 159 93.38Z"/><path fill="#fff" d="M150.71 89.77a2.48 2.48 0 1 1-4.94 0 2.48 2.48 0 1 1 4.94 0Z"/><path fill="#4A4A4A" d="M119.53 121.6c0 8.08-.67 14.62-1.44 14.62-.77 0-1.39-6.54-1.38-14.61.01-8.07.67-14.62 1.45-14.62.78 0 1.39 6.53 1.37 14.61ZM127.26 138.76c.585 0 1.06-7.687 1.06-17.17s-.475-17.17-1.06-17.17c-.586 0-1.06 7.687-1.06 17.17s.474 17.17 1.06 17.17ZM137.28 121.41c0 7.88-.64 14.27-1.4 14.27-.76 0-1.33-6.37-1.32-14.26.01-7.89.66-14.27 1.4-14.27.74 0 1.35 6.38 1.32 14.26Z"/><path fill="#404040" d="M197.28 143.93c-1.66-2.2 8-9.46 9.68-7.25 1.68 2.21-8.03 9.46-9.68 7.25Z"/><path fill="#000" d="M199.68 142.57c-.75-1 4.54-5 5.3-4 .76 1-4.54 5.01-5.3 4Z"/><path fill="#404040" d="M203 134.26c-2-1.92 5.35-9.47 7.33-7.55 1.98 1.92-5.39 9.48-7.33 7.55Z"/><path fill="#000" d="M204.88 132.79c-.91-.88 3.11-5 4-4.13.89.87-3.1 5.01-4 4.13Z"/><path fill="#606060" d="M213.41 120.25c-2.64-.81.43-10.88 3.07-10.07 2.64.81-.48 10.89-3.07 10.07Z"/><path fill="#000" d="M214.44 118.07c-1.21-.37.48-5.87 1.67-5.51 1.19.36-.48 5.88-1.67 5.51Z"/><path fill="#404040" d="M186.4 143.56c-1.17-2.5 9.44-7.46 10.6-4.95 1.16 2.51-9.44 7.45-10.6 4.95Z"/><path fill="#000" d="M189 142.76c-.53-1.15 5.26-3.86 5.8-2.72.54 1.14-5.33 3.86-5.8 2.72Z"/><path fill="#606060" d="M213 129.301c-2.31-1.49 3.41-10.34 5.71-8.83 2.3 1.51-3.38 10.33-5.71 8.83Z"/><path fill="#000" d="M214.61 127.49c-1.06-.69 2.07-5.52 3.12-4.84 1.05.68-2.07 5.52-3.12 4.84Z"/><path fill="#404040" d="M170.31 157.79c1.07-2.73 11 1.18 10 3.92s-11.08-1.18-10-3.92Z"/><path fill="#000" d="M172.43 159c.49-1.25 5.94.9 5.46 2.14-.48 1.24-5.96-.86-5.46-2.14Z"/><path fill="#404040" d="M184.3 161c.75-3.41 11-1.14 10.26 2.27-.74 3.41-11.02 1.14-10.26-2.27Z"/><path fill="#000" d="M186.529 162c.35-1.57 6-.32 5.62 1.23-.38 1.55-5.97.27-5.62-1.23Z"/><path fill="#404040" d="M161.63 145.91c2.52-2.78 11.18 5.11 8.67 7.87s-11.19-5.1-8.67-7.87Z"/><path fill="#000" d="M163.27 148c1.16-1.27 5.89 3.05 4.74 4.31-1.15 1.26-5.89-3-4.74-4.31Z"/><path fill="#606060" d="M198.11 164.83c0-2.38 8.88-2.2 8.83.18-.05 2.38-8.89 2.21-8.83-.18Z"/><path fill="#000" d="M200.09 165.18c0-1.1 4.85-1 4.84.08-.01 1.08-4.86 1-4.84-.08Z"/><path fill="#404040" d="M165.31 174.2c.75-3.41 11-1.14 10.27 2.27-.73 3.41-11.02 1.14-10.27-2.27Z"/><path fill="#000" d="M167.54 175.151c.35-1.57 6-.33 5.62 1.23-.38 1.56-5.97.31-5.62-1.23Z"/><path fill="#404040" d="M120.76 163.07c0-3.49 12.42-3.66 12.47-.16.05 3.5-12.42 3.66-12.47.16Z"/><path fill="#000" d="M123.59 163.48c0-1.6 6.79-1.69 6.82-.1.03 1.59-6.8 1.69-6.82.1Z"/><path fill="#404040" d="M136.85 167.25c2.43-2.51 10 4.84 7.53 7.34-2.47 2.5-9.96-4.83-7.53-7.34Z"/><path fill="#000" d="M138.24 169.23c1.13-1.15 5.24 2.87 4.14 4-1.1 1.13-5.24-2.87-4.14-4Z"/><path fill="#606060" d="M148.88 177.18c3.48.19 2.9 10.7-.59 10.51-3.49-.19-2.9-10.69.59-10.51Z"/><path fill="#000" d="M148.3 179.53c1.6.09 1.28 5.84-.3 5.75-1.58-.09-1.29-5.84.3-5.75Z"/><path fill="#606060" d="M142.89 187.79c3.42.7 1.32 11-2.1 10.33-3.42-.67-1.32-11.02 2.1-10.33Z"/><path fill="#000" d="M142 190c1.57.33.42 6-1.14 5.66-1.56-.34-.43-5.94 1.14-5.66Z"/><path fill="#606060" d="M146.27 198.761c3.42.7 1.32 11-2.1 10.32-3.42-.68-1.32-11.01 2.1-10.32Z"/><path fill="#000" d="M145.36 201c1.57.32.43 6-1.14 5.65-1.57-.35-.41-5.97 1.14-5.65Z"/><path fill="#606060" d="M138.44 210.2c3.41.69 1.32 11-2.1 10.31-3.42-.69-1.34-11.01 2.1-10.31Z"/><path fill="#000" d="M137.52 212.44c1.58.33.43 6-1.13 5.65-1.56-.35-.39-5.97 1.13-5.65Z"/><path fill="#606060" d="M140.38 222.26c3.48.13 3.09 10.65-.4 10.52-3.49-.13-3.1-10.65.4-10.52Z"/><path fill="#000" d="M139.84 224.63c1.61.07 1.39 5.82-.2 5.76-1.59-.06-1.38-5.82.2-5.76Z"/><path fill="#606060" d="M138.64 237.16c2.71-2.2 8.26 4.64 5.54 6.84-2.72 2.2-8.25-4.65-5.54-6.84Z"/><path fill="#000" d="M139.55 239c1.25-1 4.28 2.74 3 3.74-1.28 1-4.23-2.74-3-3.74Z"/><path fill="#404040" d="M147.78 243.64c1.4-2.54 7.8 1 6.4 3.52-1.4 2.52-7.8-.98-6.4-3.52Z"/><path fill="#000" d="M149.05 244.76c.64-1.17 4.14.76 3.51 1.91-.63 1.15-4.15-.75-3.51-1.91Z"/><path fill="#404040" d="M155.86 251.38c.21-2.63 6.49-2.12 6.27.51-.22 2.63-6.49 2.11-6.27-.51Z"/><path fill="#000" d="M157.25 251.82c.1-1.2 3.53-.93 3.44.27-.09 1.2-3.54.91-3.44-.27Z"/><path fill="#404040" d="M164.64 249.81c-.56-2.34 5-3.69 5.58-1.35.58 2.34-5.01 3.69-5.58 1.35Z"/><path fill="#000" d="M166 249.79c-.25-1.06 2.8-1.8 3.06-.75.26 1.05-2.83 1.82-3.06.75Z"/><path fill="#404040" d="M173.06 250c-.92-2.23 4.39-4.43 5.3-2.2.91 2.23-4.36 4.38-5.3 2.2Z"/><path fill="#000" d="M174.37 249.73c-.41-1 2.49-2.21 2.91-1.21.42 1-2.49 2.23-2.91 1.21Z"/><path fill="#404040" d="M177.8 244.06c-1.76-1.64 2.16-5.85 3.91-4.21 1.75 1.64-2.15 5.85-3.91 4.21Z"/><path fill="#000" d="M178.91 243.31c-.8-.76 1.33-3.06 2.13-2.31.8.75-1.33 3.06-2.13 2.31Z"/><path fill="#404040" d="M184.27 236.54c-2.31-.66-.71-6.19 1.6-5.51 2.31.68.7 6.19-1.6 5.51Z"/><path fill="#000" d="M184.92 235.381c-1-.31-.18-3.33.87-3 1.05.33.21 3.32-.87 3Z"/><path fill="#404040" d="M178.08 182.57c.3-3.47 10.78-2.57 10.47.92-.31 3.49-10.78 2.57-10.47-.92Z"/><path fill="#000" d="M180.41 183.221c.15-1.6 5.87-1.09 5.73.49-.14 1.58-5.87 1.09-5.73-.49Z"/><path fill="#606060" d="M190.66 178.91c.07-3.43 10.58-3.22 10.5.22-.08 3.44-10.58 3.22-10.5-.22Z"/><path fill="#000" d="M193 179.401c0-1.58 5.78-1.45 5.75.11-.03 1.56-5.75 1.49-5.75-.11Z"/><path fill="#606060" d="M202.57 183.26c.75-3.3 9.91-1.21 9.13 2.11-.78 3.32-9.9 1.21-9.13-2.11Z"/><path fill="#000" d="M204.54 184.16c.35-1.51 5.35-.36 5 1.14-.35 1.5-5.35.38-5-1.14Z"/><path fill="#565455" d="M215.29 183.51c1.55-3 9.2.92 7.63 4-1.57 3.08-9.18-.97-7.63-4Z"/><path fill="#000" d="M216.82 184.79c.72-1.39 4.88.78 4.19 2.14-.69 1.36-4.9-.76-4.19-2.14Z"/><path fill="#565455" d="M223.35 192.17c2.53-1.14 5.43 5.28 2.89 6.42-2.54 1.14-5.43-5.27-2.89-6.42Z"/><path fill="#000" d="M223.68 193.781c1.16-.53 2.74 3 1.6 3.5-1.14.5-2.76-2.99-1.6-3.5Z"/><path fill="#565455" d="M230.44 199.92c2.77 0 2.75 7.05 0 7-2.75-.05-2.78-7.01 0-7Z"/><path fill="#000" d="M230.07 201.521c1.29 0 1.27 3.85 0 3.85s-1.26-3.86 0-3.85Z"/><path fill="#565455" d="M227.73 209c2.47.45 1.31 6.76-1.17 6.29-2.48-.47-1.32-6.72 1.17-6.29Z"/><path fill="#000" d="M227.14 210.4c1.15.22.51 3.66-.62 3.45-1.13-.21-.52-3.66.62-3.45Z"/><path fill="#565455" d="M228 218.13c2 1.11-.84 6.17-2.84 5s.84-6.13 2.84-5Z"/><path fill="#000" d="M227.14 219.12c.91.52-.64 3.28-1.55 2.76s.63-3.27 1.55-2.76Z"/><path fill="#565455" d="M222.059 224.85c1.39 1.35-2.05 4.89-3.44 3.52-1.39-1.37 2.05-4.89 3.44-3.52Z"/><path fill="#000" d="M221.109 225.47c.64.63-1.25 2.55-1.88 1.93-.63-.62 1.24-2.55 1.88-1.93Z"/><path fill="#606060" d="M208.709 163.39c-.79-3.33 9.44-5.76 10.24-2.41.8 3.35-9.44 5.77-10.24 2.41Z"/><path fill="#000" d="M211.14 163.281c-.36-1.54 5.22-2.86 5.59-1.34.37 1.52-5.24 2.86-5.59 1.34Z"/><path fill="#565455" d="M221.82 164.29c-1-2.85 8.92-6.33 9.92-3.47s-8.93 6.34-9.92 3.47Z"/><path fill="#000" d="M224.19 163.87c-.46-1.32 5-3.21 5.43-1.91.43 1.3-4.97 3.22-5.43 1.91Z"/><path fill="#565455" d="M230.77 156.81c-2-2.25 5.76-9.32 7.8-7.08s-5.77 9.32-7.8 7.08Z"/><path fill="#000" d="M232.79 155.49c-.93-1 3.34-4.89 4.26-3.88.92 1.01-3.33 4.9-4.26 3.88Z"/><path fill="#565455" d="M243.5 149.56c-2.53-1.68 3.32-10.44 5.84-8.76 2.52 1.68-3.34 10.44-5.84 8.76Z"/><path fill="#000" d="M245.13 147.79c-1.15-.78 2.05-5.55 3.19-4.8 1.14.75-2.04 5.56-3.19 4.8Z"/><path fill="#565455" d="M247.09 137.07c-2.84-1.07.9-10.91 3.72-9.85 2.82 1.06-.9 10.93-3.72 9.85Z"/><path fill="#000" d="M248.29 135.001c-1.3-.5.75-5.88 2-5.39 1.25.49-.71 5.86-2 5.39Z"/><path fill="#565455" d="M252.32 123.48c-2.22.25-3.07-7.49-.85-7.74 2.22-.25 3.08 7.49.85 7.74Z"/><path fill="#000" d="M252.41 121.7c-1 .1-1.47-4.129-.47-4.229 1-.1 1.49 4.109.47 4.229Z"/><path fill="#606060" d="M220.27 112.22c-2.73-.33-1.45-10.79 1.28-10.44 2.73.35 1.45 10.78-1.28 10.44Z"/><path fill="#000" d="M220.91 109.901c-1.26-.15-.55-5.87.69-5.72 1.24.15.56 5.87-.69 5.72Z"/><path fill="#606060" d="M216.18 103.85c-2.74.23-3.59-10.27-.83-10.49 2.76-.22 3.59 10.27.83 10.49Z"/><path fill="#000" d="M216.34 101.44c-1.26.1-1.71-5.63-.46-5.74 1.25-.11 1.72 5.65.46 5.74Z"/><path fill="#606060" d="M219.13 90.79c-2.5 1.15-6.87-8.42-4.36-9.57 2.51-1.15 6.88 8.43 4.36 9.57Z"/><path fill="#000" d="M218.46 88.48c-1.14.52-3.53-4.7-2.4-5.23 1.13-.53 3.55 4.75 2.4 5.23Z"/><path fill="#606060" d="M210.81 83.09c-2.25 1.26-7-7.3-4.74-8.55 2.26-1.25 7.01 7.29 4.74 8.55Z"/><path fill="#000" d="M209.999 81c-1 .58-3.62-4.09-2.59-4.67 1.03-.58 3.65 4.09 2.59 4.67Z"/><path fill="#606060" d="M209.27 72.54c-1.92 1.5-7.44-5.58-5.5-7.09 1.94-1.51 7.45 5.55 5.5 7.09Z"/><path fill="#000" d="M208.27 70.74c-.88.69-3.9-3.18-3-3.87.9-.69 3.89 3.18 3 3.87Z"/><path fill="#606060" d="M200 68.23c-1.85 1.61-7.71-5.19-5.85-6.79 1.86-1.6 7.68 5.19 5.85 6.79Z"/><path fill="#000" d="M198.87 66.49c-.84.74-4-3-3.2-3.71.8-.71 4.06 2.98 3.2 3.71Z"/><path fill="#606060" d="M195.79 59.17c-1.67 1.44-6.46-4.12-4.78-5.56 1.68-1.44 6.46 4.11 4.78 5.56Z"/><path fill="#000" d="M194.92 57.72c-.77.66-3.39-2.38-2.62-3 .77-.62 3.38 2.35 2.62 3Z"/><path fill="#404040" d="M187.76 57.38c-1.88 1.14-5.69-5.13-3.79-6.28 1.9-1.15 5.7 5.12 3.79 6.28Z"/><path fill="#000" d="M187.14 55.81c-.85.52-2.94-2.9-2.08-3.43.86-.53 2.94 2.91 2.08 3.43Z"/><path fill="#404040" d="M187 49.85c-2.11.62-3.74-4.82-1.61-5.45 2.13-.63 3.71 4.81 1.61 5.45Z"/><path fill="#000" d="M186.86 48.53c-1 .29-1.85-2.69-.88-3 .97-.31 1.85 2.71.88 3Z"/><path fill="#404040" d="M181.15 43.79c-2.08-.73-.2-6.09 1.89-5.35 2.09.74.2 6.1-1.89 5.35Z"/><path fill="#000" d="M181.839 42.67c-1-.32.08-3.26 1-2.92.92.34-.05 3.25-1 2.92Z"/><path fill="#404040" d="M186.44 37.59c-.35-2.18 5.25-3.06 5.6-.87.35 2.19-5.26 3.08-5.6.87Z"/><path fill="#000" d="M187.75 37.67c-.16-1 2.91-1.47 3.06-.48.15.99-2.9 1.48-3.06.48Z"/><path fill="#404040" d="M56.73 143.93c1.65-2.2-8-9.46-9.69-7.25-1.69 2.21 8.03 9.46 9.69 7.25Z"/><path fill="#000" d="M54.32 142.57c.75-1-4.54-5-5.3-4-.76 1 4.54 5.01 5.3 4Z"/><path fill="#404040" d="M51 134.26c2-1.92-5.35-9.47-7.33-7.55-1.98 1.92 5.39 9.48 7.33 7.55Z"/><path fill="#000" d="M49.12 132.79c.91-.88-3.11-5-4-4.13-.89.87 3.1 5.01 4 4.13Z"/><path fill="#606060" d="M40.59 120.25c2.64-.81-.43-10.88-3.07-10.07-2.64.81.48 10.89 3.07 10.07Z"/><path fill="#000" d="M39.56 118.07c1.21-.37-.48-5.87-1.67-5.51-1.19.36.48 5.88 1.67 5.51Z"/><path fill="#404040" d="M67.61 143.56c1.16-2.5-9.45-7.46-10.61-4.95-1.16 2.51 9.44 7.45 10.61 4.95Z"/><path fill="#000" d="M65.05 142.76c.53-1.15-5.26-3.86-5.8-2.72-.54 1.14 5.28 3.86 5.8 2.72Z"/><path fill="#606060" d="M41 129.301c2.31-1.49-3.41-10.34-5.71-8.83-2.3 1.51 3.38 10.33 5.71 8.83Z"/><path fill="#000" d="M39.39 127.49c1.06-.69-2.07-5.52-3.12-4.84-1.05.68 2.07 5.52 3.12 4.84Z"/><path fill="#404040" d="M84.16 157.49c-1.18-3-12.43 1.4-11.25 4.43 1.18 3.03 12.44-1.41 11.25-4.43Z"/><path fill="#000" d="M81.77 158.88c-.55-1.39-6.7 1-6.17 2.41.53 1.41 6.71-1.04 6.17-2.41Z"/><path fill="#404040" d="M69.7 161c-.75-3.41-11-1.14-10.26 2.27.74 3.41 11.02 1.14 10.26-2.27Z"/><path fill="#000" d="M67.47 162c-.35-1.57-6-.32-5.62 1.23.38 1.55 5.97.27 5.62-1.23Z"/><path fill="#404040" d="M92.37 145.91c-2.52-2.78-11.18 5.11-8.67 7.87s11.19-5.1 8.67-7.87Z"/><path fill="#000" d="M90.73 148c-1.16-1.27-5.89 3.05-4.74 4.31 1.15 1.26 5.89-3 4.74-4.31Z"/><path fill="#606060" d="M57.37 164.56c-.07-2.56-9.14-2.43-9.06.14.08 2.57 9.13 2.44 9.06-.14Z"/><path fill="#000" d="M55.33 164.92c0-1.18-5-1.09-5 .07 0 1.16 5.03 1.11 5-.07Z"/><path fill="#404040" d="M88.69 174.2c-.75-3.41-11-1.14-10.27 2.27.73 3.41 11.02 1.14 10.27-2.27Z"/><path fill="#000" d="M86.46 175.151c-.35-1.57-6-.33-5.62 1.23.38 1.56 5.97.31 5.62-1.23Z"/><path fill="#404040" d="M117.69 167.901c-2-2.86-10.62 3.17-8.62 6s10.62-3.13 8.62-6Z"/><path fill="#000" d="M116 169.63c-.93-1.31-5.63 2-4.73 3.29.9 1.29 5.63-1.99 4.73-3.29Z"/><path fill="#606060" d="M105.12 177.18c-3.48.19-2.9 10.7.59 10.51 3.49-.19 2.9-10.69-.59-10.51Z"/><path fill="#000" d="M105.7 179.53c-1.6.09-1.28 5.84.3 5.75 1.58-.09 1.29-5.84-.3-5.75Z"/><path fill="#606060" d="M111.11 187.79c-3.42.7-1.32 11 2.1 10.33 3.42-.67 1.32-11.02-2.1-10.33Z"/><path fill="#000" d="M112 190c-1.57.33-.42 6 1.14 5.66 1.56-.34.43-5.94-1.14-5.66Z"/><path fill="#606060" d="M107.73 198.761c-3.42.7-1.32 11 2.1 10.32 3.42-.68 1.32-11.01-2.1-10.32Z"/><path fill="#000" d="M108.64 201c-1.57.32-.43 6 1.14 5.65 1.57-.35.41-5.97-1.14-5.65Z"/><path fill="#606060" d="M115.56 210.2c-3.41.69-1.32 11 2.1 10.31 3.42-.69 1.34-11.01-2.1-10.31Z"/><path fill="#000" d="M116.48 212.44c-1.58.33-.43 6 1.13 5.65 1.56-.35.39-5.97-1.13-5.65Z"/><path fill="#606060" d="M113.62 222.26c-3.47.13-3.09 10.65.4 10.52 3.49-.13 3.1-10.65-.4-10.52Z"/><path fill="#000" d="M114.16 224.63c-1.61.07-1.39 5.82.2 5.76 1.59-.06 1.38-5.82-.2-5.76Z"/><path fill="#606060" d="M115.36 237.16c-2.71-2.2-8.26 4.64-5.54 6.84 2.72 2.2 8.25-4.65 5.54-6.84Z"/><path fill="#000" d="M114.45 239c-1.25-1-4.28 2.74-3 3.74 1.28 1 4.23-2.74 3-3.74Z"/><path fill="#404040" d="M106.22 243.64c-1.4-2.54-7.8 1-6.4 3.52 1.4 2.52 7.8-.98 6.4-3.52Z"/><path fill="#000" d="M105 244.76c-.64-1.17-4.14.76-3.51 1.91.63 1.15 4.1-.75 3.51-1.91Z"/><path fill="#404040" d="M98.14 251.38c-.21-2.63-6.49-2.12-6.27.51.22 2.63 6.49 2.11 6.27-.51Z"/><path fill="#000" d="M96.75 251.82c-.1-1.2-3.53-.93-3.44.27.09 1.2 3.54.91 3.44-.27Z"/><path fill="#404040" d="M89.36 249.81c.56-2.34-5-3.69-5.58-1.35-.58 2.34 5.01 3.69 5.58 1.35Z"/><path fill="#000" d="M88 249.79c.25-1.06-2.8-1.8-3.06-.75-.26 1.05 2.83 1.82 3.06.75Z"/><path fill="#404040" d="M80.94 250c.92-2.23-4.39-4.43-5.3-2.2-.91 2.23 4.36 4.38 5.3 2.2Z"/><path fill="#000" d="M79.63 249.73c.41-1-2.49-2.21-2.91-1.21-.42 1 2.49 2.23 2.91 1.21Z"/><path fill="#404040" d="M76.2 244.06c1.76-1.64-2.16-5.85-3.91-4.21-1.75 1.64 2.15 5.85 3.91 4.21Z"/><path fill="#000" d="M75.09 243.31c.8-.76-1.33-3.06-2.13-2.31-.8.75 1.33 3.06 2.13 2.31Z"/><path fill="#404040" d="M69.73 236.54c2.31-.66.71-6.19-1.6-5.51-2.31.68-.7 6.19 1.6 5.51Z"/><path fill="#000" d="M69.08 235.381c1-.31.18-3.33-.87-3-1.05.33-.21 3.32.87 3Z"/><path fill="#404040" d="M75.92 182.57c-.3-3.47-10.78-2.57-10.47.92.31 3.49 10.78 2.57 10.47-.92Z"/><path fill="#000" d="M73.59 183.221c-.15-1.6-5.87-1.09-5.73.49.14 1.58 5.87 1.09 5.73-.49Z"/><path fill="#606060" d="M63.34 178.91c-.07-3.43-10.58-3.22-10.5.22.08 3.44 10.58 3.22 10.5-.22Z"/><path fill="#000" d="M61 179.401c0-1.58-5.78-1.45-5.75.11.03 1.56 5.75 1.49 5.75-.11Z"/><path fill="#606060" d="M51.43 183.26c-.75-3.3-9.9-1.21-9.13 2.11.77 3.32 9.9 1.21 9.13-2.11Z"/><path fill="#000" d="M49.46 184.16c-.35-1.51-5.35-.36-5 1.14.35 1.5 5.35.38 5-1.14Z"/><path fill="#565455" d="M38.71 183.51c-1.55-3-9.2.92-7.63 4 1.57 3.08 9.18-.97 7.63-4Z"/><path fill="#000" d="M37.18 184.79c-.72-1.39-4.88.78-4.19 2.14.69 1.36 4.9-.76 4.19-2.14Z"/><path fill="#565455" d="M30.65 192.17c-2.53-1.14-5.43 5.28-2.89 6.42 2.54 1.14 5.43-5.27 2.89-6.42Z"/><path fill="#000" d="M30.32 193.781c-1.16-.53-2.74 3-1.6 3.5 1.14.5 2.76-2.99 1.6-3.5Z"/><path fill="#565455" d="M23.56 199.92c-2.77 0-2.75 7.05 0 7 2.75-.05 2.78-7.01 0-7Z"/><path fill="#000" d="M23.93 201.521c-1.29 0-1.27 3.85 0 3.85s1.27-3.86 0-3.85Z"/><path fill="#565455" d="M26.27 209c-2.47.45-1.31 6.76 1.17 6.29 2.48-.47 1.32-6.72-1.17-6.29Z"/><path fill="#000" d="M26.86 210.4c-1.15.22-.51 3.66.62 3.45 1.13-.21.52-3.66-.62-3.45Z"/><path fill="#565455" d="M26 218.13c-2 1.11.84 6.17 2.84 5s-.84-6.13-2.84-5Z"/><path fill="#000" d="M26.86 219.12c-.91.52.64 3.28 1.55 2.76s-.63-3.27-1.55-2.76Z"/><path fill="#565455" d="M31.94 224.85c-1.39 1.35 2 4.89 3.44 3.52 1.44-1.37-2.05-4.89-3.44-3.52Z"/><path fill="#000" d="M32.89 225.47c-.64.63 1.25 2.55 1.88 1.93.63-.62-1.24-2.55-1.88-1.93Z"/><path fill="#606060" d="M45.29 163.39c.79-3.33-9.44-5.76-10.24-2.41-.8 3.35 9.44 5.77 10.24 2.41Z"/><path fill="#000" d="M42.86 163.281c.36-1.54-5.22-2.86-5.59-1.34-.37 1.52 5.24 2.86 5.59 1.34Z"/><path fill="#565455" d="M32.18 164.29c1-2.85-8.92-6.33-9.92-3.47s8.93 6.34 9.92 3.47Z"/><path fill="#000" d="M29.81 163.87c.46-1.32-5-3.21-5.43-1.91-.43 1.3 4.97 3.22 5.43 1.91Z"/><path fill="#565455" d="M23.23 156.81c2-2.25-5.76-9.32-7.8-7.08s5.77 9.32 7.8 7.08Z"/><path fill="#000" d="M21.21 155.49c.93-1-3.34-4.89-4.26-3.88-.92 1.01 3.33 4.9 4.26 3.88Z"/><path fill="#565455" d="M10.5 149.56c2.53-1.68-3.32-10.44-5.84-8.76-2.52 1.68 3.34 10.44 5.84 8.76Z"/><path fill="#000" d="M8.87 147.79c1.15-.78-2-5.55-3.19-4.8s2.04 5.56 3.19 4.8Z"/><path fill="#565455" d="M6.91 137.07c2.84-1.07-.9-10.91-3.72-9.85-2.82 1.06.9 10.93 3.72 9.85Z"/><path fill="#000" d="M5.71 135.001c1.3-.5-.75-5.88-2-5.39-1.25.49.71 5.86 2 5.39Z"/><path fill="#565455" d="M1.68 123.48c2.22.25 3.07-7.49.85-7.74-2.22-.25-3.08 7.49-.85 7.74Z"/><path fill="#000" d="M1.59 121.7c1 .1 1.47-4.129.47-4.229-1-.1-1.49 4.109-.47 4.229Z"/><path fill="#606060" d="M33.73 112.22c2.73-.33 1.45-10.79-1.28-10.44-2.73.35-1.45 10.78 1.28 10.44Z"/><path fill="#000" d="M33.09 109.901c1.26-.15.55-5.87-.69-5.72-1.24.15-.56 5.87.69 5.72Z"/><path fill="#606060" d="M37.82 103.85c2.74.23 3.59-10.27.83-10.49-2.76-.22-3.59 10.27-.83 10.49Z"/><path fill="#000" d="M37.66 101.44c1.26.1 1.71-5.63.46-5.74-1.25-.11-1.72 5.65-.46 5.74Z"/><path fill="#606060" d="M34.87 90.79c2.5 1.15 6.87-8.42 4.36-9.57-2.51-1.15-6.88 8.43-4.36 9.57Z"/><path fill="#000" d="M35.54 88.48c1.14.52 3.53-4.7 2.4-5.23-1.13-.53-3.55 4.75-2.4 5.23Z"/><path fill="#606060" d="M43.19 83.09c2.25 1.26 7-7.3 4.74-8.55-2.26-1.25-7.01 7.29-4.74 8.55Z"/><path fill="#000" d="M44 81c1 .58 3.62-4.09 2.59-4.67-1.03-.58-3.65 4.09-2.59 4.67Z"/><path fill="#606060" d="M44.73 72.54c1.92 1.5 7.44-5.58 5.5-7.09-1.94-1.51-7.45 5.55-5.5 7.09Z"/><path fill="#000" d="M45.73 70.74c.88.69 3.9-3.18 3-3.87-.9-.69-3.89 3.18-3 3.87Z"/><path fill="#606060" d="M54 68.23c1.85 1.61 7.71-5.19 5.85-6.79-1.86-1.6-7.68 5.19-5.85 6.79Z"/><path fill="#000" d="M55.13 66.49c.84.74 4-3 3.2-3.71-.8-.71-4.06 2.98-3.2 3.71Z"/><path fill="#606060" d="M58.21 59.17c1.67 1.44 6.46-4.12 4.78-5.56-1.68-1.44-6.46 4.11-4.78 5.56Z"/><path fill="#000" d="M59.08 57.72c.77.66 3.39-2.38 2.62-3-.77-.62-3.38 2.35-2.62 3Z"/><path fill="#404040" d="M66.24 57.38c1.88 1.14 5.69-5.13 3.79-6.28-1.9-1.15-5.7 5.12-3.79 6.28Z"/><path fill="#000" d="M66.86 55.81c.85.52 2.94-2.9 2.08-3.43-.86-.53-2.94 2.91-2.08 3.43Z"/><path fill="#404040" d="M67 49.85c2.11.62 3.74-4.82 1.61-5.45-2.13-.63-3.71 4.81-1.61 5.45Z"/><path fill="#000" d="M67.14 48.53c1 .29 1.85-2.69.88-3-.97-.31-1.85 2.71-.88 3Z"/><path fill="#404040" d="M72.85 43.79c2.08-.73.21-6.09-1.89-5.35-2.1.74-.2 6.1 1.89 5.35Z"/><path fill="#000" d="M72.16 42.67c1-.32-.08-3.26-1-2.92-.92.34.05 3.25 1 2.92Z"/><path fill="#404040" d="M67.56 37.59c.35-2.18-5.25-3.06-5.6-.87-.35 2.19 5.26 3.08 5.6.87Z"/><path fill="#000" d="M66.25 37.67c.16-1-2.91-1.47-3.06-.48-.15.99 2.9 1.48 3.06.48Z"/></svg>
