<svg width="5702" height="6303" fill="none" xmlns="http://www.w3.org/2000/svg"><path d="M2853.34 5462.43c1231.75 0 2230.28-998.47 2230.28-2230.14 0-1231.67-998.53-2230.14-2230.28-2230.14-1231.75 0-2230.275 998.47-2230.275 2230.14 0 1231.67 998.525 2230.14 2230.275 2230.14Z" fill="#424242"/><path d="M2861.18 4724.27c821.02 0 1486.59-665.53 1486.59-1486.5 0-820.98-665.57-1486.51-1486.59-1486.51-821.02 0-1486.59 665.53-1486.59 1486.51 0 820.97 665.57 1486.5 1486.59 1486.5Z" fill="#9E9E9E"/><path d="M2861.18 3991.14c416.14 0 753.48-337.33 753.48-753.44 0-416.11-337.34-753.43-753.48-753.43-416.13 0-753.48 337.32-753.48 753.43 0 416.11 337.35 753.44 753.48 753.44Z" fill="#C5BEC5"/><path d="m7.738 1683.41 82.822-134.05c33.01-53.41 68.689-84.54 107.075-93.4 38.346-8.86 76.957-1.29 115.812 22.74 13.115 8.09 24.763 18.29 34.925 30.63 10.182 12.32 18.348 25.94 24.6 40.87 6.231 14.9 9.897 30.62 11.119 47.14 1.221 16.53-.856 32.88-6.15 49.05l267.362 20.24-35.128 56.84-262.475-23.26-54.006 87.42 200.343 123.79-32.42 52.45L7.738 1683.41Zm80.5-22.74 160.267 99.02 54.251-87.8c20.018-32.4 27.369-60.28 21.993-83.65-5.335-23.34-19.937-42.4-43.722-57.1-11.669-7.21-23.521-11.85-35.658-14.01-12.096-2.12-23.948-1.94-35.556.57-11.608 2.5-23.215 8.21-34.762 17.12-11.546 8.92-22.4 21.61-32.583 38.04l-54.23 87.81Zm400.627-639.5 236.307-226.237 36.717 38.343-195.477 187.134 121.412 126.82 161.448-154.572 39.099 40.812-161.448 154.57 135.627 141.65 193.6-185.37 36.74 38.37-234.474 224.48-369.551-386ZM1548.99 568.74c38.77 68.583 57.87 129.285 57.28 182.086-.61 52.822-20.77 97.01-60.36 132.503 10.29 15.842 22.1 26.859 35.44 33.09 13.36 6.21 30.46 3.421 51.34-8.37 2.48-1.405 6.33-3.909 11.5-7.493 5.17-3.584 10.94-7.331 17.25-11.241 6.33-3.889 12.2-7.717 17.64-11.444 5.43-3.726 9.38-6.292 11.87-7.697l27.2 51.519-29.08 16.453c-24.35 13.765-45.55 24.13-63.61 31.054-18.07 6.923-34.72 8.796-49.96 5.62-15.23-3.177-28.83-10.1-40.75-20.73-11.91-10.65-23.35-25.657-34.33-45.022-20.3 8.185-42.13 11.871-65.59 11.036-23.46-.835-47.61-7.025-72.46-18.53-24.9-11.505-49.4-28.997-73.45-52.415-24.07-23.437-46.82-54.043-68.18-91.816-26.42-46.693-42.99-88.478-49.75-125.335-6.74-36.857-6.97-68.868-.67-96.032 6.27-27.144 16.84-50.195 31.72-69.133 14.91-18.897 31.02-33.273 48.41-43.129 21.38-12.075 44.41-19.202 69.11-21.361 24.69-2.138 50.65 2.016 77.92 12.503 27.25 10.508 53.27 28.081 78.08 52.761 24.78 24.68 49.26 58.381 73.43 101.123Zm-325.63-15.557c-9.26 43.943 4.67 98.72 41.79 164.289 16.86 29.811 34.8 55.428 53.8 76.809 18.98 21.402 38.51 37.916 58.53 49.543 19.98 11.648 40.42 18.144 61.2 19.488 20.79 1.384 40.13-3.014 57.99-13.134 12.43-7.026 23.46-17.37 33.14-31.034 9.67-13.643 15.94-30.646 18.85-51.009 2.94-20.363 1.25-43.658-5.09-69.927-6.33-26.248-18.77-55.795-37.33-88.579-23.6-41.765-46.34-73.816-68.22-96.236-21.87-22.399-43.07-37.61-63.7-45.613-20.6-8.023-38.99-11.241-55.14-9.652-16.13 1.608-30.16 5.763-42.1 12.503-14.92 8.45-26.73 20.037-35.43 34.8-8.69 14.763-14.78 30.728-18.29 47.752Zm616.59-387.998 65.31-17.655 1.29 1.426c.59 2.219.2 5.742-1.17 10.548-1.36 4.805-1.75 10.405-1.22 16.759l84.43 312.206c7.76 28.691 16.56 50.174 26.29 64.428 9.78 14.234 21.02 25.128 33.71 32.663 12.66 7.514 26.43 11.953 41.27 13.256 14.85 1.324 30.12.428 45.86-2.627 15.14-5.274 28.84-11.953 41.16-20.037 12.3-8.064 22.12-18.836 29.39-32.377 7.27-13.521 11.67-29.058 13.13-46.632 1.47-17.573-1.83-41.275-9.9-71.087l-90.96-336.214 55.41-14.967 90.56 334.789c9.08 33.619 13.05 63.003 11.87 88.172-1.22 25.148-7.41 47.548-18.67 67.137-11.26 19.609-26.03 36.042-44.36 49.258-18.28 13.216-40.13 23.275-65.49 30.117-24.8 6.72-48.42 8.96-70.89 6.781-22.48-2.199-43.07-8.777-61.68-19.691-18.63-10.935-34.84-26.065-48.63-45.389-13.83-19.325-25.66-47.182-35.47-83.57l-91.24-337.294ZM2682.34 9.448l266.35-2.382.43 49.645-105.31.957 3.89 435.871 110.5-.977.43 48.79-277.49 2.484-.43-49.645 105.33-.957-3.91-434.996-99.32.876-.47-49.666Zm766.58 50.5 153.14 37.184c61.01 14.804 101.65 39.076 121.98 72.798 20.3 33.721 25.07 72.757 14.29 117.128-3.64 14.987-9.75 29.241-18.3 42.701-8.56 13.501-18.98 25.515-31.22 36.063-12.24 10.548-26.05 18.938-41.36 25.189-15.34 6.272-31.53 9.388-48.55 9.367l63.66 260.444-64.92-15.761-59.26-256.738-99.89-24.252-55.57 228.84-59.92-14.56 125.92-518.402Zm46.55 69.459-44.44 183.064 100.28 24.375c37 8.98 65.77 7.31 86.34-5.03 20.57-12.34 34.15-32.092 40.75-59.297 3.22-13.297 3.97-26.045 2.26-38.222-1.73-12.177-5.58-23.397-11.59-33.64-5.96-10.263-14.98-19.507-27.04-27.734-12.06-8.186-27.47-14.58-46.25-19.141l-100.31-24.375Zm739.73 185.385 288.5 154.21-25.03 46.835L4260 388.242l-82.78 154.82 197.15 105.379-26.66 49.828-197.12-105.379-92.48 172.944 236.39 126.373-25.03 46.815-286.22-152.988 251.95-471.242Zm481.31 488.469c7.31 5.62 13.32 12.605 18.04 20.913 4.71 8.328 7.93 16.901 9.57 25.719 1.72 8.837 1.8 17.532.25 26.146-1.55 8.593-4.83 16.209-9.94 22.827-5.46 7.106-12.05 12.645-19.83 16.636-7.8 3.991-16.05 6.292-24.79 6.903-8.75.611-17.67-.427-26.73-3.054-9.07-2.647-17.6-7.066-25.66-13.236-7.8-5.987-14.08-12.89-18.82-20.669-4.73-7.799-7.88-15.944-9.43-24.476-1.51-8.512-1.3-17.003.67-25.454 2-8.43 5.81-16.331 11.45-23.662 5.43-7.086 12.13-12.584 20-16.494 7.9-3.889 16.21-6.17 24.98-6.781 8.74-.611 17.52.326 26.35 2.77 8.82 2.484 16.8 6.455 23.89 11.912Zm465 195.16 165.7 179.239-36.49 33.72-55.8-60.38-223.66 206.71c-25.6 23.68-49.26 41.07-70.93 52.15-21.66 11.09-43.03 16.63-64.06 16.63-21.04 0-39.57-3.85-55.64-11.52-16.07-7.7-30.71-18.68-43.84-32.91-34.5-37.33-48.53-81.51-42.06-132.56l63.17-3.59c-.1 2.43-1.42 4.99-3.93 7.74-2.54 2.73-4.05 5.5-4.58 8.31l-.55 14.5c-.57 3.62-.24 8.39.96 14.27 1.18 5.91 3.03 12.14 5.62 18.72 2.57 6.55 5.44 13.03 8.61 19.42 3.18 6.4 7.11 12.1 11.77 17.15 19.35 20.95 40.86 29.46 64.48 25.51 23.6-3.95 53.7-22.8 90.25-56.59l224.34-207.33-69.75-75.47 36.39-33.719Zm499.62 803.869-63.32-7.1c-.44-3.04.88-5.6 3.93-7.7 3.08-2.12 5.1-4.07 6.01-5.91 8.45-17.39 12.28-36.51 11.47-57.44-.86-20.93-8.07-43.27-21.69-67.04-13.1-22.78-30.65-37.89-52.68-45.32-22.04-7.42-42.24-5.87-60.55 4.64-10.91 6.25-19.26 13.52-25.02 21.77-5.79 8.26-10.19 18.36-13.2 30.32-3.01 11.91-4.09 27.53-3.26 46.79.86 19.27 3.4 43.48 7.66 72.64 3.64 28.18 5.17 52.33 4.54 72.45-.63 20.1-3.58 37.61-8.88 52.47-5.27 14.87-12.67 27.53-22.18 37.92-9.49 10.41-21.44 19.71-35.8 27.96-15.84 9.1-33.52 15.29-53.02 18.59-19.49 3.3-39.21 2.26-59.06-3.12-19.88-5.37-39.35-15.45-58.32-30.19-19.02-14.77-36.33-35.76-51.97-63.01-34.4-59.89-42.32-119.55-23.73-178.91l70.93-.24c-.06 3.32-1.81 5.96-5.29 7.98-3.47 1.98-5.77 4.3-6.89 6.9-7.82 19.65-11.01 41.89-9.59 66.73 1.43 24.85 9.96 50.89 25.62 78.12 7.94 13.84 17.61 25.27 29 34.21 11.38 8.94 23.34 15.41 35.84 19.4 12.52 4.01 25.52 5.46 39 4.28 13.48-1.16 26.16-5.13 38.06-11.98 9.41-5.39 17.02-11.91 22.85-19.52 5.8-7.64 9.93-17.07 12.36-28.35 2.42-11.26 3.05-25.64 1.95-43.07-1.16-17.45-3.66-39.87-7.53-67.28-4.54-29.66-6.58-55.32-6.17-76.95.4-21.62 2.73-40.24 6.96-55.83 4.22-15.58 10.79-28.76 19.8-39.49 8.96-10.75 20.12-19.95 33.49-27.63 16.85-9.65 34.77-15.17 53.75-16.51 18.98-1.37 37.67 1.1 56.04 7.31 18.39 6.23 35.64 16.23 51.79 29.99 16.14 13.79 29.91 30.57 41.27 50.38 14.48 25.25 23.06 51.92 25.7 80.05 2.65 28.12-.67 55.32-9.87 81.69ZM1287.84 6090.55h2912.09Z" fill="#000"/><path d="M1287.84 6090.55h2912.09" stroke="#4C4C4C" stroke-width="2"/><path d="M4444.93 6069.96c20.18 9.69 20.33 25.82.29 35.84l-270.66 135.78c-20.04 10.02-35.72-.12-35.72-22.5v-255.92c0-22.4 15.8-32.79 36-23.12l270.09 129.92Z" fill="#4C4C4C"/><path d="m1543.96 5897.1 195.15 193.45Z" fill="#000"/><path d="m1543.96 5897.1 195.15 193.45" stroke="#4C4C4C" stroke-width="2"/><path d="m1401.41 5897.1 195.15 193.45Z" fill="#000"/><path d="m1401.41 5897.1 195.15 193.45" stroke="#4C4C4C" stroke-width="2"/><path d="m1258.86 5897.1 195.15 193.45Z" fill="#000"/><path d="m1258.86 5897.1 195.15 193.45" stroke="#4C4C4C" stroke-width="2"/><path d="m1454.01 6090.59-195.17 193.45Z" fill="#000"/><path d="m1454.01 6090.59-195.17 193.45" stroke="#4C4C4C" stroke-width="2"/><path d="m1596.56 6090.59-195.17 193.45Z" fill="#000"/><path d="m1596.56 6090.59-195.17 193.45" stroke="#4C4C4C" stroke-width="2"/><path d="m1739.11 6090.59-195.17 193.45Z" fill="#000"/><path d="m1739.11 6090.59-195.17 193.45" stroke="#4C4C4C" stroke-width="2"/><path d="m1686.51 5897.1 195.17 193.45Z" fill="#000"/><path d="m1686.51 5897.1 195.17 193.45" stroke="#4C4C4C" stroke-width="2"/><path d="m1881.66 6090.59-195.17 193.45Z" fill="#000"/><path d="m1881.66 6090.59-195.17 193.45" stroke="#4C4C4C" stroke-width="2"/></svg>
