<svg version="1.0" xmlns="http://www.w3.org/2000/svg" width="300" height="300" viewBox="0 0 225 225"><path d="M100.8 1C49.2 6 7.4 47.5.9 100.3c-1.2 9.4-.7 23.3 1.1 32.8 1.5 7.6 5 18.9 5.9 18.9.4 0 2.7-2.7 5.1-6 2.4-3.3 5-6 5.9-6 .8 0 4.8.9 8.9 2.1 4 1.1 7.5 1.9 7.7 1.7.2-.2-.8-4.1-2.2-8.8-2.2-7.2-2.6-10.5-2.7-21.5 0-15.4 1.5-22.7 7.5-35.4 12.8-27.4 37.7-44.8 68.2-47.6l7.8-.7 4.6-6.2c2.6-3.3 5-6.6 5.4-7.1.4-.6-1.3-4.5-3.8-8.8-5.1-8.7-3.6-8.2-19.5-6.7z"/><path d="m127.6 8.5 4.5 7.5-5.5 7.2-5.6 7.2 8.2 1.7c16.3 3.3 30.4 11.1 42.3 23.4 19.7 20.3 28 51.2 20.9 77.8l-1.8 6.7 4.2 8.5c4.6 9.4 3.9 9 15.2 7.8 6-.6 6.3-.7 7.7-4.2 3-7 6.2-22.1 6.9-31.8 3.3-50.1-28.4-97.7-76-113.9-6.3-2.2-20.8-5.4-24.2-5.4-.9 0 .3 2.7 3.2 7.5z"/><path d="M66.7 79.5 52 94.8l3.8 8c3 6.1 9.7 15 29.2 38.8 13.9 17 25.6 31.3 26 31.8 1.1 1.1 51.8-62.4 56.4-70.7 2-3.5 3.6-6.9 3.6-7.5 0-.5-6.6-7.8-14.6-16.1L141.8 64l-30.2.1H81.5L66.7 79.5z"/><path d="m15.3 152.8-4.7 6.5 3.4 6.5c11 21.3 32.5 41 54.7 50.2 50.6 21.1 112.8 1.1 139.9-45 2.4-4.1 4.4-7.8 4.4-8.2 0-.4-3.9-.5-8.7-.2l-8.8.7-3.5-7.3c-1.9-3.9-3.8-7.4-4.2-7.6-.4-.2-2.1 2.3-4 5.7-4.3 8.1-16.1 20.6-25.3 26.8-22.6 15.1-53.3 18.3-77.7 8.2-14.3-6-28.4-18.1-37.3-31.8l-4-6.2-9.8-2.4-9.8-2.5-4.6 6.6z"/></svg>
