<svg width="500" height="110" viewBox="0 0 500 110" fill="none" xmlns="http://www.w3.org/2000/svg">
<path d="M0 0H500V110H0V0Z" fill="black"/>
<path d="M35.336 69.617C35.5734 71.6477 36.0877 73.0717 36.879 73.889C38.2504 75.3923 40.8344 76.144 44.631 76.144C46.8464 76.17 48.6134 75.8403 49.932 75.155C51.224 74.4957 51.87 73.5067 51.87 72.188C51.87 70.9487 51.3427 69.9864 50.288 69.301C49.2067 68.6677 45.2907 67.5337 38.54 65.899C33.6614 64.6857 30.22 63.1693 28.216 61.35C26.186 59.5833 25.184 56.999 25.21 53.597C25.21 49.6417 26.779 46.2137 29.917 43.313C33.029 40.465 37.4197 39.041 43.089 39.041C48.4684 39.041 52.8587 40.109 56.26 42.245C59.6094 44.4337 61.5477 48.152 62.075 53.4H50.802C50.644 51.9494 50.2354 50.802 49.576 49.958C48.31 48.4287 46.2004 47.664 43.247 47.664C40.7944 47.6907 39.054 48.073 38.026 48.811C36.9447 49.5757 36.4174 50.4723 36.444 51.501C36.444 52.8197 36.9977 53.7557 38.105 54.309C39.2124 54.9423 43.1284 55.984 49.853 57.434C54.309 58.5153 57.671 60.1107 59.939 62.22C62.1544 64.4087 63.262 67.1117 63.262 70.329C63.262 74.601 61.6797 78.0817 58.515 80.771C55.2977 83.5137 50.3797 84.872 43.761 84.846C36.9577 84.872 31.9607 83.4347 28.77 80.534C25.5267 77.686 23.905 74.047 23.905 69.617H35.336Z" fill="black"/>
<path d="M35.336 62.866C35.5734 64.8967 36.0877 66.3207 36.879 67.138C38.2504 68.6413 40.8344 69.393 44.631 69.393C46.8464 69.419 48.6134 69.0893 49.932 68.404C51.224 67.7447 51.87 66.7557 51.87 65.437C51.87 64.1977 51.3427 63.2353 50.288 62.55C49.2067 61.9173 45.2907 60.7833 38.54 59.148C33.6614 57.9353 30.22 56.419 28.216 54.599C26.186 52.8323 25.184 50.2483 25.21 46.847C25.21 42.8917 26.779 39.4637 29.917 36.563C33.029 33.715 37.4197 32.291 43.089 32.291C48.4684 32.291 52.8587 33.359 56.26 35.495C59.6094 37.6837 61.5477 41.4017 62.075 46.649H50.802C50.644 45.1983 50.2354 44.0513 49.576 43.208C48.31 41.6787 46.2004 40.914 43.247 40.914C40.7944 40.94 39.054 41.3223 38.026 42.061C36.9447 42.8257 36.4174 43.722 36.444 44.75C36.444 46.0687 36.9977 47.005 38.105 47.559C39.2124 48.1917 43.1284 49.2333 49.853 50.684C54.309 51.7647 57.671 53.36 59.939 55.47C62.1544 57.6587 63.262 60.3613 63.262 63.578C63.262 67.85 61.6797 71.331 58.515 74.021C55.2977 76.763 50.3797 78.121 43.761 78.095C36.9577 78.121 31.9607 76.6837 28.77 73.783C25.5267 70.9357 23.905 67.2967 23.905 62.866H35.336Z" fill="white"/>
<path d="M96.0571 54.742C95.8464 53.16 95.3057 51.7097 94.4351 50.391C93.1431 48.651 91.1787 47.781 88.5421 47.781C84.7181 47.807 82.1207 49.6924 80.7501 53.437C79.9847 55.4677 79.6154 58.131 79.6421 61.427C79.6154 64.591 79.9847 67.1357 80.7501 69.061C82.0947 72.6737 84.6261 74.4667 88.3441 74.44C90.9807 74.44 92.8531 73.728 93.9611 72.304C95.0684 70.88 95.7407 69.0344 95.9781 66.767H107.488C107.198 70.221 105.959 73.4644 103.77 76.497C100.21 81.4544 94.9757 83.92 88.0671 83.894C81.1317 83.894 76.0291 81.837 72.7591 77.723C69.4631 73.6097 67.8284 68.27 67.8551 61.704C67.8551 54.32 69.6614 48.558 73.2741 44.418C76.8601 40.3047 81.8437 38.248 88.2251 38.248C93.6311 38.274 98.0614 39.487 101.516 41.887C104.944 44.339 106.974 48.624 107.607 54.742H96.0571Z" fill="black"/>
<path d="M96.0571 47.9919C95.8464 46.4093 95.3057 44.9586 94.4351 43.6399C93.1431 41.8999 91.1787 41.0299 88.5421 41.0299C84.7181 41.0559 82.1207 42.9413 80.7501 46.6859C79.9847 48.7166 79.6154 51.3799 79.6421 54.6759C79.6154 57.8406 79.9847 60.3853 80.7501 62.3099C82.0947 65.9226 84.6261 67.7159 88.3441 67.6899C90.9807 67.6899 92.8531 66.9779 93.9611 65.5539C95.0684 64.1299 95.7407 62.2839 95.9781 60.0159H107.488C107.198 63.4706 105.959 66.7143 103.77 69.7469C100.21 74.7043 94.9757 77.1696 88.0671 77.1429C81.1317 77.1429 76.0291 75.0863 72.7591 70.9729C69.4631 66.8589 67.8284 61.5189 67.8551 54.9529C67.8551 47.5696 69.6614 41.8079 73.2741 37.6679C76.8601 33.5539 81.8437 31.4969 88.2251 31.4969C93.6311 31.5236 98.0614 32.7366 101.516 35.136C104.944 37.5886 106.974 41.8739 107.607 47.9919H96.0571Z" fill="white"/>
<path d="M147.17 40.564C149.333 41.4867 151.113 42.8974 152.51 44.796C153.671 46.4314 154.396 48.0797 154.686 49.741C154.949 51.481 155.081 54.263 155.081 58.087V83.402H143.571V57.177C143.571 54.8564 143.175 52.984 142.384 51.56C141.355 49.556 139.404 48.554 136.53 48.554C133.55 48.554 131.295 49.543 129.766 51.521C128.21 53.551 127.432 56.3987 127.432 60.064V83.402H116.199V25.296H127.432V45.904C129.041 43.4254 130.939 41.6717 133.128 40.643C135.264 39.6677 137.519 39.18 139.892 39.18C142.529 39.206 144.955 39.6674 147.17 40.564V40.564Z" fill="black"/>
<path d="M147.17 33.813C149.333 34.7364 151.113 36.1474 152.51 38.046C153.671 39.6807 154.396 41.3287 154.686 42.99C154.949 44.7307 155.081 47.5127 155.081 51.336V76.651H143.571V50.426C143.571 48.1054 143.175 46.233 142.384 44.809C141.355 42.805 139.404 41.803 136.53 41.803C133.55 41.803 131.295 42.792 129.766 44.77C128.21 46.8007 127.432 49.6487 127.432 53.314V76.651H116.199V18.545H127.432V39.153C129.041 36.6744 130.939 34.9207 133.128 33.892C135.264 32.9167 137.519 32.429 139.892 32.429C142.529 32.455 144.955 32.9164 147.17 33.813V33.813Z" fill="white"/>
<path d="M178.902 50.888C177.425 52.5227 176.516 54.7377 176.173 57.533H193.695C193.484 54.5797 192.588 52.312 191.006 50.73C189.371 49.2 187.353 48.435 184.954 48.435C182.343 48.4617 180.326 49.2793 178.902 50.888V50.888ZM194.645 41.157C197.519 42.5284 199.892 44.6513 201.764 47.526C203.425 50.11 204.52 53.0763 205.047 56.425C205.311 58.403 205.43 61.251 205.403 64.969H175.896C176.027 69.2937 177.385 72.3263 179.97 74.067C181.499 75.1477 183.372 75.688 185.587 75.688C187.881 75.688 189.766 75.029 191.243 73.711C192.034 72.999 192.733 72.01 193.339 70.744H204.85C204.56 73.3287 203.228 75.926 200.855 78.536C197.163 82.7294 191.994 84.826 185.349 84.826C179.838 84.826 174.999 83.059 170.833 79.525C166.64 76.0184 164.543 70.2697 164.543 62.279C164.543 54.843 166.442 49.121 170.239 45.113C173.984 41.131 178.889 39.14 184.954 39.14C188.514 39.14 191.744 39.8124 194.645 41.157V41.157Z" fill="black"/>
<path d="M178.902 44.137C177.425 45.7717 176.516 47.9867 176.173 50.782H193.695C193.484 47.8287 192.588 45.561 191.006 43.979C189.371 42.4497 187.353 41.685 184.954 41.685C182.343 41.711 180.326 42.5284 178.902 44.137ZM194.645 34.407C197.519 35.7777 199.892 37.9004 201.764 40.775C203.425 43.359 204.52 46.3257 205.047 49.675C205.311 51.6524 205.43 54.5004 205.403 58.219H175.896C176.027 62.543 177.385 65.5754 179.97 67.316C181.499 68.3974 183.372 68.938 185.587 68.938C187.881 68.938 189.766 68.2787 191.243 66.96C192.034 66.248 192.733 65.259 193.339 63.993H204.85C204.56 66.5777 203.228 69.1754 200.855 71.786C197.163 75.9787 191.994 78.075 185.349 78.075C179.838 78.075 174.999 76.3084 170.833 72.775C166.64 69.2677 164.543 63.519 164.543 55.529C164.543 48.0924 166.442 42.37 170.239 38.362C173.984 34.38 178.889 32.389 184.954 32.389C188.514 32.389 191.744 33.0617 194.645 34.407V34.407Z" fill="white"/>
<path d="M266.88 40.445C268.726 41.2097 270.401 42.502 271.904 44.322C273.091 45.8513 273.908 47.697 274.356 49.859C274.62 51.3357 274.752 53.4587 274.752 56.228L274.672 83.402H263.122V55.951C263.096 54.3423 262.832 52.9973 262.331 51.916C261.329 49.912 259.483 48.91 256.794 48.91C253.656 48.9367 251.507 50.2287 250.346 52.786C249.74 54.184 249.437 55.8323 249.437 57.731V83.402H238.084V57.731C238.058 55.173 237.794 53.3137 237.293 52.153C236.344 50.0703 234.485 49.029 231.716 49.029C228.499 49.029 226.336 50.0703 225.229 52.153C224.622 53.3663 224.319 55.1333 224.319 57.454V83.402H212.888V40.366H223.845V46.655C225.216 44.4137 226.535 42.8183 227.8 41.869C229.963 40.1817 232.797 39.338 236.304 39.338C239.574 39.338 242.237 40.063 244.294 41.513C245.903 42.8843 247.142 44.6117 248.013 46.695C249.463 44.1637 251.296 42.3047 253.511 41.118C255.831 39.9313 258.415 39.338 261.263 39.338C263.136 39.338 265.008 39.707 266.88 40.445V40.445Z" fill="black"/>
<path d="M266.88 33.695C268.726 34.4597 270.401 35.7517 271.904 37.571C273.091 39.1004 273.908 40.9464 274.356 43.109C274.62 44.5857 274.752 46.7084 274.752 49.477L274.672 76.651H263.122V49.2C263.096 47.5914 262.832 46.2467 262.331 45.166C261.329 43.1614 259.483 42.159 256.794 42.159C253.656 42.1857 251.507 43.478 250.346 46.036C249.74 47.4334 249.437 49.0814 249.437 50.98V76.651H238.084V50.98C238.058 48.422 237.794 46.563 237.293 45.403C236.344 43.3197 234.485 42.278 231.716 42.278C228.499 42.278 226.336 43.3197 225.229 45.403C224.622 46.6157 224.319 48.3824 224.319 50.703V76.651H212.888V33.616H223.845V39.905C225.216 37.6637 226.535 36.0684 227.8 35.119C229.963 33.431 232.797 32.587 236.304 32.587C239.574 32.587 242.237 33.3124 244.294 34.763C245.903 36.1337 247.142 37.8607 248.013 39.944C249.463 37.4127 251.296 35.5537 253.511 34.367C255.831 33.1804 258.415 32.587 261.263 32.587C263.136 32.587 265.008 32.9564 266.88 33.695V33.695Z" fill="white"/>
<path d="M309.907 62.418C309.195 62.8667 308.483 63.2227 307.771 63.486C307.006 63.776 306.004 64.0397 304.765 64.277L302.234 64.752C299.861 65.2 298.16 65.714 297.131 66.294C295.39 67.3227 294.52 68.9183 294.52 71.081C294.52 73.0323 295.061 74.4167 296.142 75.234C297.171 76.104 298.463 76.539 300.019 76.539C302.418 76.539 304.66 75.827 306.743 74.403C308.747 72.979 309.802 70.3817 309.907 66.611V62.418ZM303.064 57.157C305.121 56.8937 306.611 56.564 307.534 56.168C309.143 55.5093 309.947 54.4417 309.947 52.965C309.947 51.1977 309.34 49.9713 308.127 49.286C306.888 48.6267 305.081 48.297 302.708 48.297C300.045 48.3237 298.159 48.983 297.052 50.275C296.261 51.277 295.733 52.5953 295.47 54.23H284.592C284.829 50.486 285.884 47.3877 287.757 44.935C290.71 41.1377 295.826 39.239 303.104 39.239C307.798 39.2657 311.991 40.2017 315.682 42.047C319.347 43.9457 321.18 47.4793 321.18 52.648V72.425C321.18 73.823 321.206 75.4843 321.259 77.409C321.338 78.9123 321.563 79.9143 321.932 80.415C322.275 80.943 322.828 81.3783 323.593 81.721V83.382H311.331C310.962 82.512 310.724 81.6947 310.619 80.93C310.487 80.1913 310.382 79.321 310.303 78.319C308.72 80.033 306.927 81.4703 304.923 82.631C302.471 84.0283 299.729 84.727 296.696 84.727C292.767 84.753 289.55 83.6323 287.045 81.365C284.46 79.1497 283.181 75.9984 283.208 71.911C283.208 66.611 285.252 62.7743 289.339 60.401C291.58 59.109 294.876 58.186 299.227 57.632L303.064 57.157Z" fill="black"/>
<path d="M309.907 55.667C309.195 56.1157 308.483 56.4717 307.771 56.735C307.006 57.025 306.004 57.2887 304.765 57.526L302.234 58.001C299.861 58.4497 298.16 58.964 297.131 59.544C295.39 60.572 294.52 62.1674 294.52 64.33C294.52 66.2814 295.061 67.6657 296.142 68.483C297.171 69.353 298.463 69.788 300.019 69.788C302.418 69.788 304.66 69.076 306.743 67.652C308.747 66.2287 309.802 63.6314 309.907 59.86V55.667ZM303.064 50.407C305.121 50.143 306.611 49.8134 307.534 49.418C309.143 48.7587 309.947 47.6907 309.947 46.214C309.947 44.4474 309.34 43.221 308.127 42.535C306.888 41.8757 305.081 41.546 302.708 41.546C300.045 41.5727 298.159 42.232 297.052 43.524C296.261 44.526 295.733 45.8447 295.47 47.48H284.592C284.829 43.7354 285.884 40.6367 287.757 38.184C290.71 34.3867 295.826 32.488 303.104 32.488C307.798 32.5147 311.991 33.451 315.682 35.297C319.347 37.1957 321.18 40.729 321.18 45.897V65.675C321.18 67.0724 321.206 68.7337 321.259 70.659C321.338 72.1617 321.563 73.1637 321.932 73.665C322.275 74.1924 322.828 74.6274 323.593 74.97V76.631H311.331C310.962 75.761 310.724 74.9437 310.619 74.179C310.487 73.4404 310.382 72.57 310.303 71.568C308.72 73.282 306.927 74.7194 304.923 75.88C302.471 77.2774 299.729 77.976 296.696 77.976C292.767 78.0027 289.55 76.882 287.045 74.614C284.46 72.3994 283.181 69.2484 283.208 65.161C283.208 59.8604 285.252 56.0234 289.339 53.65C291.58 52.358 294.876 51.435 299.227 50.881L303.064 50.407Z" fill="white"/>
<path d="M331.552 71.614H343.537V83.402H331.552V71.614Z" fill="black"/>
<path d="M331.552 64.864H343.537V76.651H331.552V64.864Z" fill="white"/>
<path d="M387.509 71.9109C389.276 69.5903 390.159 66.2546 390.159 61.9039C390.159 57.6053 389.276 54.2693 387.509 51.8959C385.716 49.5759 383.184 48.4159 379.914 48.4159C376.618 48.4159 374.087 49.5759 372.32 51.8959C370.527 54.2693 369.63 57.6053 369.63 61.9039C369.63 66.2546 370.527 69.5903 372.32 71.9109C374.087 74.2576 376.618 75.4309 379.914 75.4309C383.184 75.4309 385.716 74.2576 387.509 71.9109ZM396.527 78.1209C392.862 82.6303 387.337 84.8849 379.954 84.8849C372.544 84.8849 367.019 82.6303 363.38 78.1209C359.741 73.6643 357.922 68.2586 357.922 61.9039C357.922 55.7066 359.741 50.3139 363.38 45.7259C367.019 41.1899 372.544 38.9089 379.954 38.8829C387.337 38.9089 392.862 41.1899 396.527 45.7259C400.166 50.3139 401.986 55.7066 401.986 61.9039C401.986 68.2586 400.166 73.6643 396.527 78.1209Z" fill="black"/>
<path d="M387.509 65.16C389.276 62.84 390.159 59.5043 390.159 55.153C390.159 50.855 389.276 47.5193 387.509 45.146C385.716 42.8253 383.184 41.665 379.914 41.665C376.618 41.665 374.087 42.8253 372.32 45.146C370.527 47.5193 369.63 50.855 369.63 55.153C369.63 59.5043 370.527 62.84 372.32 65.16C374.087 67.5073 376.618 68.681 379.914 68.681C383.184 68.681 385.716 67.5073 387.509 65.16ZM396.527 71.37C392.862 75.8793 387.337 78.134 379.954 78.134C372.544 78.134 367.019 75.8793 363.38 71.37C359.741 66.914 357.922 61.5083 357.922 55.153C357.922 48.9563 359.741 43.5636 363.38 38.975C367.019 34.4396 372.544 32.1586 379.954 32.132C387.337 32.1586 392.862 34.4396 396.527 38.975C400.166 43.5636 401.986 48.9563 401.986 55.153C401.986 61.5083 400.166 66.914 396.527 71.37Z" fill="white"/>
<path d="M430.355 39.259C430.46 39.3117 430.777 39.338 431.304 39.338V50.888C430.592 50.8354 429.959 50.7827 429.406 50.73C428.852 50.7034 428.404 50.69 428.061 50.69C423.499 50.69 420.453 52.1667 418.924 55.12C418.053 56.808 417.618 59.366 417.618 62.794V83.402H406.266V40.287H417.025V47.802C418.739 44.9547 420.255 42.9904 421.574 41.909C423.657 40.1424 426.4 39.259 429.801 39.259H430.355V39.259Z" fill="black"/>
<path d="M430.355 32.5081C430.46 32.5607 430.777 32.5871 431.304 32.5871V44.1371C430.592 44.0844 429.959 44.0317 429.406 43.9791C428.852 43.9524 428.404 43.9391 428.061 43.9391C423.499 43.9391 420.453 45.4157 418.924 48.3691C418.053 50.0571 417.618 52.6151 417.618 56.0431V76.6511H406.266V33.5361H417.025V41.0521C418.739 38.2041 420.255 36.2394 421.574 35.1581C423.657 33.3914 426.4 32.5081 429.801 32.5081H430.355V32.5081Z" fill="white"/>
<path d="M460.483 71.12C462.302 69.1427 463.212 65.9783 463.212 61.627C463.186 57.5663 462.329 54.4547 460.641 52.292C458.874 50.156 456.554 49.088 453.68 49.088C449.724 49.088 446.995 50.947 445.492 54.665C444.701 56.6697 444.305 59.109 444.305 61.983C444.305 64.5144 444.727 66.7427 445.571 68.668C447.1 72.3067 449.843 74.126 453.798 74.126C456.435 74.1527 458.664 73.1507 460.483 71.12V71.12ZM456.646 40.228C459.362 41.388 461.577 43.4713 463.291 46.478V40.267H474.248V81.167C474.221 86.7577 473.285 90.9504 471.44 93.745C468.223 98.6237 462.052 101.05 452.928 101.023C447.417 101.05 442.921 99.9687 439.44 97.78C435.933 95.644 434.008 92.4137 433.665 88.089H445.927C446.243 89.4077 446.757 90.357 447.469 90.937C448.656 91.9657 450.699 92.48 453.6 92.48C457.635 92.506 460.351 91.1477 461.749 88.405C462.646 86.665 463.094 83.738 463.094 79.624V76.856C461.986 78.728 460.826 80.1124 459.613 81.009C457.345 82.723 454.431 83.58 450.871 83.58C445.307 83.606 440.89 81.6547 437.62 77.726C434.297 73.8493 432.636 68.5883 432.636 61.943C432.61 55.5617 434.206 50.1693 437.423 45.766C440.614 41.4147 445.136 39.239 450.99 39.239C453.126 39.239 455.011 39.5687 456.646 40.228V40.228Z" fill="black"/>
<path d="M460.483 64.369C462.302 62.3917 463.212 59.2274 463.212 54.876C463.186 50.8154 462.329 47.7037 460.641 45.541C458.874 43.4057 456.554 42.338 453.68 42.338C449.724 42.338 446.995 44.197 445.492 47.915C444.701 49.919 444.305 52.358 444.305 55.232C444.305 57.764 444.727 59.9924 445.571 61.917C447.1 65.5564 449.843 67.376 453.798 67.376C456.435 67.402 458.664 66.3997 460.483 64.369V64.369ZM456.646 33.477C459.362 34.6377 461.577 36.721 463.291 39.727V33.517H474.248V74.416C474.221 80.0067 473.285 84.1997 471.44 86.995C468.223 91.873 462.052 94.299 452.928 94.273C447.417 94.299 442.921 93.2177 439.44 91.029C435.933 88.893 434.008 85.6627 433.665 81.338H445.927C446.243 82.6567 446.757 83.606 447.469 84.186C448.656 85.2147 450.699 85.729 453.6 85.729C457.635 85.7557 460.351 84.3977 461.749 81.655C462.646 79.9144 463.094 76.9874 463.094 72.874V70.105C461.986 71.977 460.826 73.3614 459.613 74.258C457.345 75.972 454.431 76.829 450.871 76.829C445.307 76.8557 440.89 74.9044 437.62 70.975C434.297 67.099 432.636 61.8384 432.636 55.193C432.61 48.8117 434.206 43.419 437.423 39.015C440.614 34.6637 445.136 32.488 450.99 32.488C453.126 32.488 455.011 32.8177 456.646 33.477V33.477Z" fill="white"/>
</svg>
