<?xml version="1.0" standalone="no"?>
<!DOCTYPE svg PUBLIC "-//W3C//DTD SVG 20010904//EN"
 "http://www.w3.org/TR/2001/REC-SVG-20010904/DTD/svg10.dtd">
<svg version="1.0" xmlns="http://www.w3.org/2000/svg"
 width="150.000000pt" height="150.000000pt" viewBox="0 0 150.000000 150.000000"
 preserveAspectRatio="xMidYMid meet">

<g transform="translate(0.000000,150.000000) scale(0.100000,-0.100000)"
fill="#000000" stroke="none">
<path d="M0 750 l0 -750 750 0 750 0 0 750 0 750 -750 0 -750 0 0 -750z m920
25 l0 -75 -95 0 -95 0 0 -305 0 -305 -85 0 -85 0 0 305 0 304 -92 3 -93 3 -3
73 -3 72 276 0 275 0 0 -75z m428 55 l32 -12 0 -74 c0 -41 -2 -74 -5 -74 -3 0
-34 9 -68 21 -82 28 -152 22 -183 -14 -41 -47 -23 -72 106 -142 101 -56 136
-86 161 -140 57 -122 -9 -253 -146 -290 -72 -20 -192 -17 -260 6 l-40 14 -3
83 c-2 45 0 82 3 82 4 0 26 -11 50 -25 114 -67 271 -32 236 53 -13 30 -25 40
-121 90 -132 69 -173 122 -173 222 0 111 63 180 198 214 32 8 177 -2 213 -14z"/>
</g>
</svg>
